%TF.GenerationSoftware,KiCad,Pcbnew,9.0.0*%
%TF.CreationDate,2025-05-17T06:27:11-04:00*%
%TF.ProjectId,phase-interferometer,70686173-652d-4696-9e74-65726665726f,rev?*%
%TF.SameCoordinates,Original*%
%TF.FileFunction,Copper,L2,Inr*%
%TF.FilePolarity,Positive*%
%FSLAX46Y46*%
G04 Gerber Fmt 4.6, Leading zero omitted, Abs format (unit mm)*
G04 Created by KiCad (PCBNEW 9.0.0) date 2025-05-17 06:27:11*
%MOMM*%
%LPD*%
G01*
G04 APERTURE LIST*
%TA.AperFunction,ComponentPad*%
%ADD10R,1.700000X1.700000*%
%TD*%
%TA.AperFunction,ComponentPad*%
%ADD11O,1.700000X1.700000*%
%TD*%
%TA.AperFunction,HeatsinkPad*%
%ADD12O,1.000000X2.100000*%
%TD*%
%TA.AperFunction,HeatsinkPad*%
%ADD13O,1.000000X1.800000*%
%TD*%
%TA.AperFunction,ViaPad*%
%ADD14C,0.600000*%
%TD*%
G04 APERTURE END LIST*
D10*
%TO.N,Net-(AE3-A)*%
%TO.C,AE3*%
X167677500Y-56360000D03*
D11*
%TO.N,Earth*%
X170217500Y-56360000D03*
%TD*%
D10*
%TO.N,Net-(AE1-A)*%
%TO.C,AE1*%
X132402500Y-56360000D03*
D11*
%TO.N,Earth*%
X134942500Y-56360000D03*
%TD*%
D12*
%TO.N,Net-(J1-SHIELD)*%
%TO.C,J1*%
X149380000Y-121245000D03*
D13*
X149380000Y-125425000D03*
D12*
X158020000Y-121245000D03*
D13*
X158020000Y-125425000D03*
%TD*%
D10*
%TO.N,+3V3*%
%TO.C,J3*%
X128400000Y-127450000D03*
D11*
%TO.N,Earth*%
X128400000Y-124910000D03*
X128400000Y-122370000D03*
%TO.N,/GPIO29_ADC3*%
X128400000Y-119830000D03*
%TO.N,/GPIO25*%
X128400000Y-117290000D03*
%TO.N,/GPIO24*%
X128400000Y-114750000D03*
%TO.N,/GPIO23*%
X128400000Y-112210000D03*
%TO.N,/GPIO22*%
X128400000Y-109670000D03*
%TO.N,/GPIO21*%
X128400000Y-107130000D03*
%TO.N,/GPIO20*%
X128400000Y-104590000D03*
%TO.N,/GPIO19*%
X128400000Y-102050000D03*
%TO.N,/GPIO18*%
X128400000Y-99510000D03*
%TO.N,/GPIO17*%
X128400000Y-96970000D03*
%TO.N,/GPIO16*%
X128400000Y-94430000D03*
%TO.N,/RUN*%
X128400000Y-91890000D03*
%TO.N,/SWD*%
X128400000Y-89350000D03*
%TO.N,/SWCLK*%
X128400000Y-86810000D03*
%TO.N,Earth*%
X128400000Y-84270000D03*
%TD*%
D10*
%TO.N,+3V3*%
%TO.C,J2*%
X178150000Y-127370000D03*
D11*
%TO.N,/GPIO0*%
X178150000Y-124830000D03*
%TO.N,/GPIO1*%
X178150000Y-122290000D03*
%TO.N,/GPIO2*%
X178150000Y-119750000D03*
%TO.N,/GPIO3*%
X178150000Y-117210000D03*
%TO.N,/SDA*%
X178150000Y-114670000D03*
%TO.N,/SCL*%
X178150000Y-112130000D03*
%TO.N,/GPIO6*%
X178150000Y-109590000D03*
%TO.N,/GPIO7*%
X178150000Y-107050000D03*
%TO.N,/GPIO8*%
X178150000Y-104510000D03*
%TO.N,/GPIO9*%
X178150000Y-101970000D03*
%TO.N,/GPIO10*%
X178150000Y-99430000D03*
%TO.N,/GPIO11*%
X178150000Y-96890000D03*
%TO.N,/GPIO12*%
X178150000Y-94350000D03*
%TO.N,/GPIO13*%
X178150000Y-91810000D03*
%TO.N,/GPIO14*%
X178150000Y-89270000D03*
%TO.N,/GPIO15*%
X178150000Y-86730000D03*
%TO.N,Earth*%
X178150000Y-84190000D03*
%TD*%
D10*
%TO.N,Net-(AE2-A)*%
%TO.C,AE2*%
X150040000Y-56360000D03*
D11*
%TO.N,Earth*%
X152580000Y-56360000D03*
%TD*%
D10*
%TO.N,+3V3*%
%TO.C,J4*%
X135480000Y-126200000D03*
D11*
%TO.N,Earth*%
X138020000Y-126200000D03*
%TO.N,+5V*%
X140560000Y-126200000D03*
%TO.N,Earth*%
X143100000Y-126200000D03*
%TD*%
D14*
%TO.N,Earth*%
X152000000Y-89950000D03*
X148550000Y-90000000D03*
X145850000Y-90850000D03*
X143450000Y-92800000D03*
X142950000Y-97300000D03*
X143100000Y-103300000D03*
X143050000Y-105950000D03*
X135250000Y-88300000D03*
X135250000Y-90700000D03*
X135200000Y-93050000D03*
X135300000Y-95600000D03*
X135350000Y-98050000D03*
X135400000Y-100800000D03*
X135350000Y-103150000D03*
X135450000Y-105750000D03*
X165750000Y-106750000D03*
X162900000Y-106750000D03*
X174250000Y-106750000D03*
X145950000Y-114150000D03*
X176200000Y-63100000D03*
X173250000Y-58750000D03*
X176200000Y-67350000D03*
X173250000Y-69375000D03*
X173250000Y-65125000D03*
X176200000Y-58850000D03*
X176200000Y-69475000D03*
X173250000Y-67250000D03*
X176200000Y-60975000D03*
X173250000Y-63000000D03*
X176200000Y-65225000D03*
X173250000Y-60875000D03*
X145450000Y-80575000D03*
X142500000Y-84725000D03*
X142500000Y-74100000D03*
X142500000Y-80475000D03*
X145450000Y-74200000D03*
X145450000Y-84825000D03*
X142500000Y-76225000D03*
X142500000Y-78350000D03*
X145450000Y-76325000D03*
X145450000Y-78450000D03*
X163200000Y-81025000D03*
X160250000Y-85175000D03*
X160250000Y-74550000D03*
X160250000Y-83050000D03*
X160250000Y-80925000D03*
X163200000Y-74650000D03*
X163200000Y-85275000D03*
X160250000Y-76675000D03*
X160250000Y-78800000D03*
X163200000Y-76775000D03*
X163200000Y-83150000D03*
X163200000Y-78900000D03*
X161550000Y-65825000D03*
X158600000Y-67850000D03*
X158600000Y-61475000D03*
X158600000Y-69975000D03*
X155900000Y-59350000D03*
X158600000Y-63600000D03*
X155900000Y-63600000D03*
X155900000Y-69975000D03*
X161550000Y-61575000D03*
X158600000Y-59350000D03*
X155900000Y-61475000D03*
X161550000Y-59450000D03*
X161550000Y-70075000D03*
X158600000Y-65725000D03*
X161550000Y-67950000D03*
X155900000Y-65725000D03*
X155900000Y-67850000D03*
X161550000Y-63700000D03*
X144150000Y-65475000D03*
X141200000Y-67500000D03*
X141200000Y-61125000D03*
X141200000Y-69625000D03*
X138500000Y-59000000D03*
X141200000Y-63250000D03*
X138500000Y-63250000D03*
X138500000Y-69625000D03*
X144150000Y-61225000D03*
X141200000Y-59000000D03*
X138500000Y-61125000D03*
X144150000Y-59100000D03*
X144150000Y-69725000D03*
X141200000Y-65375000D03*
X144150000Y-67600000D03*
X138500000Y-65375000D03*
X138500000Y-67500000D03*
X144150000Y-63350000D03*
X127350000Y-64650000D03*
X127350000Y-81650000D03*
X127350000Y-62525000D03*
X127350000Y-66775000D03*
X127350000Y-77400000D03*
X127350000Y-58275000D03*
X127350000Y-56150000D03*
X127350000Y-60400000D03*
X127350000Y-71025000D03*
X127350000Y-68900000D03*
X127350000Y-73150000D03*
X127350000Y-79525000D03*
X127350000Y-75275000D03*
X145225000Y-54850000D03*
X128225000Y-54850000D03*
X138850000Y-54850000D03*
X140975000Y-54850000D03*
X147350000Y-54850000D03*
X143100000Y-54850000D03*
X160125000Y-54850000D03*
X177125000Y-54850000D03*
X158000000Y-54850000D03*
X162250000Y-54850000D03*
X172875000Y-54850000D03*
X155875000Y-54850000D03*
X164375000Y-54850000D03*
X175000000Y-54850000D03*
X179000000Y-63425000D03*
X179000000Y-80425000D03*
X179000000Y-61300000D03*
X179000000Y-65550000D03*
X179000000Y-76175000D03*
X179000000Y-57050000D03*
X179000000Y-54925000D03*
X179000000Y-59175000D03*
X179000000Y-69800000D03*
X179000000Y-67675000D03*
X179000000Y-71925000D03*
X179000000Y-78300000D03*
X179000000Y-74050000D03*
X165200000Y-96450000D03*
X166950000Y-93650000D03*
X151250000Y-98400000D03*
X158050000Y-95650000D03*
X151800000Y-94350000D03*
X136700000Y-122350000D03*
X136700000Y-118400000D03*
X150500000Y-120670000D03*
X174950000Y-78350000D03*
X174900000Y-84450000D03*
X172900000Y-81600000D03*
X172800000Y-79985000D03*
X174900000Y-80000000D03*
X172800000Y-84900000D03*
X175200000Y-81200000D03*
X175100000Y-87200000D03*
X175550000Y-83500000D03*
X170300000Y-67850000D03*
X172850000Y-87600000D03*
X166350000Y-59885000D03*
X168700000Y-58000000D03*
X169000000Y-60900000D03*
X168850000Y-59850000D03*
X173500000Y-74900000D03*
X166550000Y-61700000D03*
X167550000Y-67800000D03*
X168890000Y-75510000D03*
X167400000Y-70400000D03*
X170100000Y-64500000D03*
X170900000Y-70650000D03*
X166600000Y-58050000D03*
X167600000Y-65200000D03*
X168900000Y-72950000D03*
X168800000Y-78000000D03*
X158100000Y-89650000D03*
X159300000Y-88450000D03*
X157800000Y-87150000D03*
X155050000Y-85200000D03*
X157600000Y-84400000D03*
X155200000Y-87500000D03*
X158250000Y-83450000D03*
X155600000Y-81550000D03*
X157900000Y-81150000D03*
X155500000Y-79935000D03*
X157600000Y-79950000D03*
X153000000Y-67800000D03*
X157650000Y-78300000D03*
X149300000Y-58000000D03*
X149050000Y-59835000D03*
X151400000Y-57950000D03*
X151700000Y-60850000D03*
X152800000Y-64450000D03*
X150300000Y-65150000D03*
X156200000Y-74850000D03*
X151550000Y-59800000D03*
X149250000Y-61650000D03*
X150250000Y-67750000D03*
X153600000Y-70600000D03*
X151500000Y-77950000D03*
X151600000Y-72900000D03*
X151590000Y-75460000D03*
X150100000Y-70350000D03*
X140150000Y-89750000D03*
X141350000Y-88550000D03*
X139850000Y-87250000D03*
X137600000Y-87650000D03*
X137550000Y-84950000D03*
X139650000Y-84500000D03*
X140300000Y-83550000D03*
X139950000Y-81250000D03*
X137650000Y-81650000D03*
X137550000Y-80035000D03*
X139650000Y-80050000D03*
X139700000Y-78400000D03*
X138250000Y-74950000D03*
X131350000Y-58100000D03*
X133450000Y-58050000D03*
X133600000Y-59900000D03*
X131100000Y-59935000D03*
X133750000Y-60950000D03*
X131300000Y-61750000D03*
X132350000Y-65250000D03*
X134850000Y-64550000D03*
X132300000Y-67850000D03*
X135050000Y-67900000D03*
X132150000Y-70450000D03*
X135650000Y-70700000D03*
X133550000Y-78050000D03*
X133650000Y-73000000D03*
X133640000Y-75560000D03*
X132700000Y-121800000D03*
X145750000Y-123150000D03*
X156150000Y-127250000D03*
X153550000Y-127250000D03*
X151000000Y-127200000D03*
X162600000Y-123350000D03*
X170950000Y-123600000D03*
X166450000Y-124500000D03*
X167600000Y-125750000D03*
X175700000Y-108350000D03*
X162400000Y-108950000D03*
X161650000Y-113500000D03*
X157450000Y-117550000D03*
X145850000Y-118550000D03*
X147450000Y-118550000D03*
X149050000Y-118600000D03*
%TO.N,/SDA*%
X156150000Y-111081922D03*
X163298231Y-97396785D03*
%TO.N,/SCL*%
X156149999Y-110281920D03*
X162500000Y-97450000D03*
%TO.N,/SWCLK*%
X153334927Y-108133457D03*
%TO.N,/SWD*%
X152535454Y-108162500D03*
%TO.N,+1V1*%
X153450000Y-112362502D03*
X154800000Y-107800000D03*
%TO.N,/GPIO29_ADC3*%
X146150000Y-112700000D03*
%TO.N,/GPIO25*%
X151741989Y-111094552D03*
%TO.N,/GPIO24*%
X148750000Y-110650000D03*
%TO.N,/GPIO23*%
X151883564Y-110307176D03*
%TO.N,/GPIO22*%
X145600000Y-108450000D03*
%TO.N,/GPIO21*%
X151700000Y-108750000D03*
%TO.N,/GPIO20*%
X146875735Y-105874265D03*
%TO.N,+3V3*%
X151949998Y-109509936D03*
%TO.N,/GPIO19*%
X147900000Y-106050000D03*
%TO.N,/GPIO18*%
X149041213Y-106317648D03*
%TO.N,/RUN*%
X147950000Y-101000000D03*
%TO.N,/GPIO17*%
X149825735Y-106474265D03*
%TO.N,/GPIO16*%
X151850000Y-107750000D03*
%TO.N,/GPIO15*%
X158000000Y-103000000D03*
%TO.N,+3V3*%
X158442393Y-99200000D03*
X162700000Y-93200000D03*
%TO.N,/MX_LO*%
X161200000Y-93200000D03*
%TO.N,/GPIO7*%
X156667471Y-109671816D03*
%TO.N,/QSPI_SD3*%
X163150000Y-128300000D03*
X155086028Y-114637500D03*
%TO.N,/QSPI_SCLK*%
X154967280Y-112362499D03*
X161850000Y-125750000D03*
%TO.N,/QSPI_SD0*%
X160700000Y-125450000D03*
X155647622Y-112783378D03*
%TO.N,/MX_LO*%
X132300000Y-82300000D03*
X149000000Y-83650000D03*
X166350000Y-83200000D03*
%TO.N,Earth*%
X152000000Y-112350000D03*
X156150000Y-108200000D03*
X156218812Y-112223251D03*
%TO.N,+3V3*%
X166050000Y-65000000D03*
X145150000Y-115300000D03*
X158100000Y-113800000D03*
X171050000Y-83950000D03*
X153800000Y-83900000D03*
X165350000Y-127250000D03*
X156342106Y-116062054D03*
X149450735Y-104399265D03*
X142500000Y-115100000D03*
X130750000Y-65150000D03*
X141600000Y-114200000D03*
X142500000Y-114200000D03*
X148104173Y-114176998D03*
X152863279Y-104435448D03*
X160300000Y-108450000D03*
X135900000Y-83850000D03*
X141600000Y-115100000D03*
X148500000Y-65000000D03*
%TD*%
%TA.AperFunction,Conductor*%
%TO.N,Earth*%
G36*
X128650000Y-124476988D02*
G01*
X128592993Y-124444075D01*
X128465826Y-124410000D01*
X128334174Y-124410000D01*
X128207007Y-124444075D01*
X128150000Y-124476988D01*
X128150000Y-122803012D01*
X128207007Y-122835925D01*
X128334174Y-122870000D01*
X128465826Y-122870000D01*
X128592993Y-122835925D01*
X128650000Y-122803012D01*
X128650000Y-124476988D01*
G37*
%TD.AperFunction*%
%TA.AperFunction,Conductor*%
G36*
X179642539Y-53970185D02*
G01*
X179688294Y-54022989D01*
X179699500Y-54074500D01*
X179699500Y-83807273D01*
X179679815Y-83874312D01*
X179627011Y-83920067D01*
X179557853Y-83930011D01*
X179494297Y-83900986D01*
X179457569Y-83845591D01*
X179401095Y-83671782D01*
X179304620Y-83482442D01*
X179179727Y-83310540D01*
X179179723Y-83310535D01*
X179029464Y-83160276D01*
X179029459Y-83160272D01*
X178857557Y-83035379D01*
X178668215Y-82938903D01*
X178466124Y-82873241D01*
X178400000Y-82862768D01*
X178400000Y-83756988D01*
X178342993Y-83724075D01*
X178215826Y-83690000D01*
X178084174Y-83690000D01*
X177957007Y-83724075D01*
X177900000Y-83756988D01*
X177900000Y-82862768D01*
X177899999Y-82862768D01*
X177833875Y-82873241D01*
X177631784Y-82938903D01*
X177442442Y-83035379D01*
X177270540Y-83160272D01*
X177270535Y-83160276D01*
X177120276Y-83310535D01*
X177120272Y-83310540D01*
X176995379Y-83482442D01*
X176898904Y-83671782D01*
X176833242Y-83873870D01*
X176833242Y-83873873D01*
X176822769Y-83940000D01*
X177716988Y-83940000D01*
X177684075Y-83997007D01*
X177650000Y-84124174D01*
X177650000Y-84255826D01*
X177684075Y-84382993D01*
X177716988Y-84440000D01*
X176822769Y-84440000D01*
X176833242Y-84506126D01*
X176833242Y-84506129D01*
X176898904Y-84708217D01*
X176995379Y-84897557D01*
X177120272Y-85069459D01*
X177120276Y-85069464D01*
X177270535Y-85219723D01*
X177270540Y-85219727D01*
X177442444Y-85344622D01*
X177451495Y-85349234D01*
X177502292Y-85397208D01*
X177519087Y-85465029D01*
X177496550Y-85531164D01*
X177451499Y-85570202D01*
X177442182Y-85574949D01*
X177270213Y-85699890D01*
X177119890Y-85850213D01*
X176994951Y-86022179D01*
X176898444Y-86211585D01*
X176832753Y-86413760D01*
X176799500Y-86623713D01*
X176799500Y-86836287D01*
X176832754Y-87046243D01*
X176858746Y-87126239D01*
X176898444Y-87248414D01*
X176994951Y-87437820D01*
X177119890Y-87609786D01*
X177270213Y-87760109D01*
X177442182Y-87885050D01*
X177450946Y-87889516D01*
X177501742Y-87937491D01*
X177518536Y-88005312D01*
X177495998Y-88071447D01*
X177450946Y-88110484D01*
X177442182Y-88114949D01*
X177270213Y-88239890D01*
X177119890Y-88390213D01*
X176994951Y-88562179D01*
X176898444Y-88751585D01*
X176832753Y-88953760D01*
X176799500Y-89163713D01*
X176799500Y-89376287D01*
X176832754Y-89586243D01*
X176858746Y-89666239D01*
X176898444Y-89788414D01*
X176994951Y-89977820D01*
X177119890Y-90149786D01*
X177270213Y-90300109D01*
X177442182Y-90425050D01*
X177450946Y-90429516D01*
X177501742Y-90477491D01*
X177518536Y-90545312D01*
X177495998Y-90611447D01*
X177450946Y-90650484D01*
X177442182Y-90654949D01*
X177270213Y-90779890D01*
X177119890Y-90930213D01*
X176994951Y-91102179D01*
X176898444Y-91291585D01*
X176832753Y-91493760D01*
X176799500Y-91703713D01*
X176799500Y-91916287D01*
X176832754Y-92126243D01*
X176858746Y-92206239D01*
X176898444Y-92328414D01*
X176994951Y-92517820D01*
X177119890Y-92689786D01*
X177270213Y-92840109D01*
X177442182Y-92965050D01*
X177450946Y-92969516D01*
X177501742Y-93017491D01*
X177518536Y-93085312D01*
X177495998Y-93151447D01*
X177450946Y-93190484D01*
X177442182Y-93194949D01*
X177270213Y-93319890D01*
X177119890Y-93470213D01*
X176994951Y-93642179D01*
X176898444Y-93831585D01*
X176832753Y-94033760D01*
X176799500Y-94243713D01*
X176799500Y-94456287D01*
X176832754Y-94666243D01*
X176858746Y-94746239D01*
X176898444Y-94868414D01*
X176994951Y-95057820D01*
X177119890Y-95229786D01*
X177270213Y-95380109D01*
X177442182Y-95505050D01*
X177450946Y-95509516D01*
X177501742Y-95557491D01*
X177518536Y-95625312D01*
X177495998Y-95691447D01*
X177450946Y-95730484D01*
X177442182Y-95734949D01*
X177270213Y-95859890D01*
X177119890Y-96010213D01*
X176994951Y-96182179D01*
X176898444Y-96371585D01*
X176832753Y-96573760D01*
X176799500Y-96783713D01*
X176799500Y-96996286D01*
X176825951Y-97163295D01*
X176832754Y-97206243D01*
X176886338Y-97371158D01*
X176898444Y-97408414D01*
X176994951Y-97597820D01*
X177119890Y-97769786D01*
X177270213Y-97920109D01*
X177442182Y-98045050D01*
X177450946Y-98049516D01*
X177501742Y-98097491D01*
X177518536Y-98165312D01*
X177495998Y-98231447D01*
X177450946Y-98270484D01*
X177442182Y-98274949D01*
X177270213Y-98399890D01*
X177119890Y-98550213D01*
X176994951Y-98722179D01*
X176898444Y-98911585D01*
X176832753Y-99113760D01*
X176806606Y-99278846D01*
X176799500Y-99323713D01*
X176799500Y-99536287D01*
X176832754Y-99746243D01*
X176885766Y-99909397D01*
X176898444Y-99948414D01*
X176994951Y-100137820D01*
X177119890Y-100309786D01*
X177270213Y-100460109D01*
X177442182Y-100585050D01*
X177450946Y-100589516D01*
X177501742Y-100637491D01*
X177518536Y-100705312D01*
X177495998Y-100771447D01*
X177450946Y-100810484D01*
X177442182Y-100814949D01*
X177270213Y-100939890D01*
X177119890Y-101090213D01*
X176994951Y-101262179D01*
X176898444Y-101451585D01*
X176832753Y-101653760D01*
X176799500Y-101863713D01*
X176799500Y-102076286D01*
X176823887Y-102230263D01*
X176832754Y-102286243D01*
X176862636Y-102378211D01*
X176898444Y-102488414D01*
X176994951Y-102677820D01*
X177119890Y-102849786D01*
X177270213Y-103000109D01*
X177442182Y-103125050D01*
X177450946Y-103129516D01*
X177501742Y-103177491D01*
X177518536Y-103245312D01*
X177495998Y-103311447D01*
X177450946Y-103350484D01*
X177442182Y-103354949D01*
X177270213Y-103479890D01*
X177119890Y-103630213D01*
X176994951Y-103802179D01*
X176898444Y-103991585D01*
X176832753Y-104193760D01*
X176806961Y-104356606D01*
X176799500Y-104403713D01*
X176799500Y-104616287D01*
X176832754Y-104826243D01*
X176896052Y-105021054D01*
X176898444Y-105028414D01*
X176994951Y-105217820D01*
X177119890Y-105389786D01*
X177270213Y-105540109D01*
X177442182Y-105665050D01*
X177450946Y-105669516D01*
X177501742Y-105717491D01*
X177518536Y-105785312D01*
X177495998Y-105851447D01*
X177450946Y-105890484D01*
X177442182Y-105894949D01*
X177270213Y-106019890D01*
X177119890Y-106170213D01*
X176994951Y-106342179D01*
X176898444Y-106531585D01*
X176832753Y-106733760D01*
X176813798Y-106853437D01*
X176799500Y-106943713D01*
X176799500Y-107156287D01*
X176802973Y-107178213D01*
X176832354Y-107363721D01*
X176832754Y-107366243D01*
X176889707Y-107541527D01*
X176898444Y-107568414D01*
X176994951Y-107757820D01*
X177119890Y-107929786D01*
X177270213Y-108080109D01*
X177442182Y-108205050D01*
X177450946Y-108209516D01*
X177501742Y-108257491D01*
X177518536Y-108325312D01*
X177495998Y-108391447D01*
X177450946Y-108430484D01*
X177442182Y-108434949D01*
X177270213Y-108559890D01*
X177119890Y-108710213D01*
X176994951Y-108882179D01*
X176898444Y-109071585D01*
X176832753Y-109273760D01*
X176799500Y-109483713D01*
X176799500Y-109696286D01*
X176832606Y-109905313D01*
X176832754Y-109906243D01*
X176887158Y-110073682D01*
X176898444Y-110108414D01*
X176994951Y-110297820D01*
X177119890Y-110469786D01*
X177270213Y-110620109D01*
X177442182Y-110745050D01*
X177450946Y-110749516D01*
X177501742Y-110797491D01*
X177518536Y-110865312D01*
X177495998Y-110931447D01*
X177450946Y-110970484D01*
X177442182Y-110974949D01*
X177270213Y-111099890D01*
X177119890Y-111250213D01*
X176994951Y-111422179D01*
X176898444Y-111611585D01*
X176832753Y-111813760D01*
X176799500Y-112023713D01*
X176799500Y-112236286D01*
X176831978Y-112441348D01*
X176832754Y-112446243D01*
X176890117Y-112622788D01*
X176898444Y-112648414D01*
X176994951Y-112837820D01*
X177119890Y-113009786D01*
X177270213Y-113160109D01*
X177442182Y-113285050D01*
X177450946Y-113289516D01*
X177501742Y-113337491D01*
X177518536Y-113405312D01*
X177495998Y-113471447D01*
X177450946Y-113510484D01*
X177442182Y-113514949D01*
X177270213Y-113639890D01*
X177119890Y-113790213D01*
X176994951Y-113962179D01*
X176898444Y-114151585D01*
X176832753Y-114353760D01*
X176799500Y-114563713D01*
X176799500Y-114776286D01*
X176831368Y-114977497D01*
X176832754Y-114986243D01*
X176895334Y-115178844D01*
X176898444Y-115188414D01*
X176994951Y-115377820D01*
X177119890Y-115549786D01*
X177270213Y-115700109D01*
X177442182Y-115825050D01*
X177450946Y-115829516D01*
X177501742Y-115877491D01*
X177518536Y-115945312D01*
X177495998Y-116011447D01*
X177450946Y-116050484D01*
X177442182Y-116054949D01*
X177270213Y-116179890D01*
X177119890Y-116330213D01*
X176994951Y-116502179D01*
X176898444Y-116691585D01*
X176832753Y-116893760D01*
X176799500Y-117103713D01*
X176799500Y-117316287D01*
X176832754Y-117526243D01*
X176858746Y-117606239D01*
X176898444Y-117728414D01*
X176994951Y-117917820D01*
X177119890Y-118089786D01*
X177270213Y-118240109D01*
X177442182Y-118365050D01*
X177450946Y-118369516D01*
X177501742Y-118417491D01*
X177518536Y-118485312D01*
X177495998Y-118551447D01*
X177450946Y-118590484D01*
X177442182Y-118594949D01*
X177270213Y-118719890D01*
X177119890Y-118870213D01*
X176994951Y-119042179D01*
X176898444Y-119231585D01*
X176832753Y-119433760D01*
X176799500Y-119643713D01*
X176799500Y-119856286D01*
X176831324Y-120057218D01*
X176832754Y-120066243D01*
X176858746Y-120146239D01*
X176898444Y-120268414D01*
X176994951Y-120457820D01*
X177119890Y-120629786D01*
X177270213Y-120780109D01*
X177442182Y-120905050D01*
X177450946Y-120909516D01*
X177501742Y-120957491D01*
X177518536Y-121025312D01*
X177495998Y-121091447D01*
X177450946Y-121130484D01*
X177442182Y-121134949D01*
X177270213Y-121259890D01*
X177119890Y-121410213D01*
X176994951Y-121582179D01*
X176898444Y-121771585D01*
X176832753Y-121973760D01*
X176809591Y-122120000D01*
X176799500Y-122183713D01*
X176799500Y-122396287D01*
X176832754Y-122606243D01*
X176885994Y-122770099D01*
X176898444Y-122808414D01*
X176994951Y-122997820D01*
X177119890Y-123169786D01*
X177270213Y-123320109D01*
X177442182Y-123445050D01*
X177450946Y-123449516D01*
X177501742Y-123497491D01*
X177518536Y-123565312D01*
X177495998Y-123631447D01*
X177450946Y-123670484D01*
X177442182Y-123674949D01*
X177270213Y-123799890D01*
X177119890Y-123950213D01*
X176994951Y-124122179D01*
X176898444Y-124311585D01*
X176832753Y-124513760D01*
X176818620Y-124602993D01*
X176799500Y-124723713D01*
X176799500Y-124936287D01*
X176801498Y-124948903D01*
X176826644Y-125107671D01*
X176832754Y-125146243D01*
X176889385Y-125320535D01*
X176898444Y-125348414D01*
X176994951Y-125537820D01*
X177119890Y-125709786D01*
X177233430Y-125823326D01*
X177266915Y-125884649D01*
X177261931Y-125954341D01*
X177220059Y-126010274D01*
X177189083Y-126027189D01*
X177057669Y-126076203D01*
X177057664Y-126076206D01*
X176942455Y-126162452D01*
X176942452Y-126162455D01*
X176856206Y-126277664D01*
X176856202Y-126277671D01*
X176805908Y-126412517D01*
X176799501Y-126472116D01*
X176799500Y-126472135D01*
X176799500Y-128267870D01*
X176799501Y-128267876D01*
X176805908Y-128327483D01*
X176856202Y-128462328D01*
X176856206Y-128462335D01*
X176942452Y-128577544D01*
X176942455Y-128577547D01*
X177057664Y-128663793D01*
X177057671Y-128663797D01*
X177192517Y-128714091D01*
X177192516Y-128714091D01*
X177199444Y-128714835D01*
X177252127Y-128720500D01*
X179047872Y-128720499D01*
X179107483Y-128714091D01*
X179242331Y-128663796D01*
X179357546Y-128577546D01*
X179443796Y-128462331D01*
X179459318Y-128420715D01*
X179501189Y-128364781D01*
X179566653Y-128340364D01*
X179634926Y-128355215D01*
X179684332Y-128404620D01*
X179699500Y-128464048D01*
X179699500Y-128925500D01*
X179679815Y-128992539D01*
X179627011Y-129038294D01*
X179575500Y-129049500D01*
X163831941Y-129049500D01*
X163764902Y-129029815D01*
X163719147Y-128977011D01*
X163709203Y-128907853D01*
X163738228Y-128844297D01*
X163744260Y-128837819D01*
X163771786Y-128810292D01*
X163771789Y-128810289D01*
X163859394Y-128679179D01*
X163919737Y-128533497D01*
X163950500Y-128378842D01*
X163950500Y-128221158D01*
X163950500Y-128221155D01*
X163950499Y-128221153D01*
X163919738Y-128066510D01*
X163919737Y-128066503D01*
X163919735Y-128066498D01*
X163859397Y-127920827D01*
X163859390Y-127920814D01*
X163771789Y-127789711D01*
X163771786Y-127789707D01*
X163660292Y-127678213D01*
X163660288Y-127678210D01*
X163529185Y-127590609D01*
X163529172Y-127590602D01*
X163383501Y-127530264D01*
X163383489Y-127530261D01*
X163228845Y-127499500D01*
X163228842Y-127499500D01*
X163071158Y-127499500D01*
X163071155Y-127499500D01*
X162916510Y-127530261D01*
X162916498Y-127530264D01*
X162770827Y-127590602D01*
X162770814Y-127590609D01*
X162639711Y-127678210D01*
X162639707Y-127678213D01*
X162528213Y-127789707D01*
X162528210Y-127789711D01*
X162440609Y-127920814D01*
X162440602Y-127920827D01*
X162380264Y-128066498D01*
X162380261Y-128066510D01*
X162349500Y-128221153D01*
X162349500Y-128378846D01*
X162380261Y-128533489D01*
X162380264Y-128533501D01*
X162440602Y-128679172D01*
X162440609Y-128679185D01*
X162528210Y-128810288D01*
X162528213Y-128810292D01*
X162555740Y-128837819D01*
X162589225Y-128899142D01*
X162584241Y-128968834D01*
X162542369Y-129024767D01*
X162476905Y-129049184D01*
X162468059Y-129049500D01*
X126524500Y-129049500D01*
X126457461Y-129029815D01*
X126411706Y-128977011D01*
X126400500Y-128925500D01*
X126400500Y-86703713D01*
X127049500Y-86703713D01*
X127049500Y-86916286D01*
X127070082Y-87046239D01*
X127082754Y-87126243D01*
X127122449Y-87248412D01*
X127148444Y-87328414D01*
X127244951Y-87517820D01*
X127369890Y-87689786D01*
X127520213Y-87840109D01*
X127692182Y-87965050D01*
X127700946Y-87969516D01*
X127751742Y-88017491D01*
X127768536Y-88085312D01*
X127745998Y-88151447D01*
X127700946Y-88190484D01*
X127692182Y-88194949D01*
X127520213Y-88319890D01*
X127369890Y-88470213D01*
X127244951Y-88642179D01*
X127148444Y-88831585D01*
X127082753Y-89033760D01*
X127049500Y-89243713D01*
X127049500Y-89456286D01*
X127070082Y-89586239D01*
X127082754Y-89666243D01*
X127122449Y-89788412D01*
X127148444Y-89868414D01*
X127244951Y-90057820D01*
X127369890Y-90229786D01*
X127520213Y-90380109D01*
X127692182Y-90505050D01*
X127700946Y-90509516D01*
X127751742Y-90557491D01*
X127768536Y-90625312D01*
X127745998Y-90691447D01*
X127700946Y-90730484D01*
X127692182Y-90734949D01*
X127520213Y-90859890D01*
X127369890Y-91010213D01*
X127244951Y-91182179D01*
X127148444Y-91371585D01*
X127082753Y-91573760D01*
X127049500Y-91783713D01*
X127049500Y-91996286D01*
X127070082Y-92126239D01*
X127082754Y-92206243D01*
X127145547Y-92399500D01*
X127148444Y-92408414D01*
X127244951Y-92597820D01*
X127369890Y-92769786D01*
X127520213Y-92920109D01*
X127692182Y-93045050D01*
X127700946Y-93049516D01*
X127751742Y-93097491D01*
X127768536Y-93165312D01*
X127745998Y-93231447D01*
X127700946Y-93270484D01*
X127692182Y-93274949D01*
X127520213Y-93399890D01*
X127369890Y-93550213D01*
X127244951Y-93722179D01*
X127148444Y-93911585D01*
X127082753Y-94113760D01*
X127049500Y-94323713D01*
X127049500Y-94536286D01*
X127070082Y-94666239D01*
X127082754Y-94746243D01*
X127122449Y-94868412D01*
X127148444Y-94948414D01*
X127244951Y-95137820D01*
X127369890Y-95309786D01*
X127520213Y-95460109D01*
X127692182Y-95585050D01*
X127700946Y-95589516D01*
X127751742Y-95637491D01*
X127768536Y-95705312D01*
X127745998Y-95771447D01*
X127700946Y-95810484D01*
X127692182Y-95814949D01*
X127520213Y-95939890D01*
X127369890Y-96090213D01*
X127244951Y-96262179D01*
X127148444Y-96451585D01*
X127082753Y-96653760D01*
X127049500Y-96863713D01*
X127049500Y-97076286D01*
X127082753Y-97286239D01*
X127082753Y-97286241D01*
X127082754Y-97286243D01*
X127144290Y-97475631D01*
X127148444Y-97488414D01*
X127244951Y-97677820D01*
X127369890Y-97849786D01*
X127520213Y-98000109D01*
X127692182Y-98125050D01*
X127700946Y-98129516D01*
X127751742Y-98177491D01*
X127768536Y-98245312D01*
X127745998Y-98311447D01*
X127700946Y-98350484D01*
X127692182Y-98354949D01*
X127520213Y-98479890D01*
X127369890Y-98630213D01*
X127244951Y-98802179D01*
X127148444Y-98991585D01*
X127082753Y-99193760D01*
X127049500Y-99403713D01*
X127049500Y-99616286D01*
X127082048Y-99821789D01*
X127082754Y-99826243D01*
X127139373Y-100000499D01*
X127148444Y-100028414D01*
X127244951Y-100217820D01*
X127369890Y-100389786D01*
X127520213Y-100540109D01*
X127692182Y-100665050D01*
X127700946Y-100669516D01*
X127751742Y-100717491D01*
X127768536Y-100785312D01*
X127745998Y-100851447D01*
X127700946Y-100890484D01*
X127692182Y-100894949D01*
X127520213Y-101019890D01*
X127369890Y-101170213D01*
X127244951Y-101342179D01*
X127148444Y-101531585D01*
X127082753Y-101733760D01*
X127049500Y-101943713D01*
X127049500Y-102156286D01*
X127070774Y-102290609D01*
X127082754Y-102366243D01*
X127122871Y-102489711D01*
X127148444Y-102568414D01*
X127244951Y-102757820D01*
X127369890Y-102929786D01*
X127520213Y-103080109D01*
X127692182Y-103205050D01*
X127700946Y-103209516D01*
X127751742Y-103257491D01*
X127768536Y-103325312D01*
X127745998Y-103391447D01*
X127700946Y-103430484D01*
X127692182Y-103434949D01*
X127520213Y-103559890D01*
X127369890Y-103710213D01*
X127244951Y-103882179D01*
X127148444Y-104071585D01*
X127082753Y-104273760D01*
X127049500Y-104483713D01*
X127049500Y-104696286D01*
X127070082Y-104826239D01*
X127082754Y-104906243D01*
X127147181Y-105104529D01*
X127148444Y-105108414D01*
X127244951Y-105297820D01*
X127369890Y-105469786D01*
X127520213Y-105620109D01*
X127692182Y-105745050D01*
X127700946Y-105749516D01*
X127751742Y-105797491D01*
X127768536Y-105865312D01*
X127745998Y-105931447D01*
X127700946Y-105970484D01*
X127692182Y-105974949D01*
X127520213Y-106099890D01*
X127369890Y-106250213D01*
X127244951Y-106422179D01*
X127148444Y-106611585D01*
X127082753Y-106813760D01*
X127049500Y-107023713D01*
X127049500Y-107236286D01*
X127081228Y-107436613D01*
X127082754Y-107446243D01*
X127122449Y-107568412D01*
X127148444Y-107648414D01*
X127244951Y-107837820D01*
X127369890Y-108009786D01*
X127520213Y-108160109D01*
X127692182Y-108285050D01*
X127700946Y-108289516D01*
X127751742Y-108337491D01*
X127768536Y-108405312D01*
X127745998Y-108471447D01*
X127700946Y-108510484D01*
X127692182Y-108514949D01*
X127520213Y-108639890D01*
X127369890Y-108790213D01*
X127244951Y-108962179D01*
X127148444Y-109151585D01*
X127082753Y-109353760D01*
X127049500Y-109563713D01*
X127049500Y-109776286D01*
X127073528Y-109927997D01*
X127082754Y-109986243D01*
X127146393Y-110182104D01*
X127148444Y-110188414D01*
X127244951Y-110377820D01*
X127369890Y-110549786D01*
X127520213Y-110700109D01*
X127692182Y-110825050D01*
X127700946Y-110829516D01*
X127751742Y-110877491D01*
X127768536Y-110945312D01*
X127745998Y-111011447D01*
X127700946Y-111050484D01*
X127692182Y-111054949D01*
X127520213Y-111179890D01*
X127369890Y-111330213D01*
X127244951Y-111502179D01*
X127148444Y-111691585D01*
X127082753Y-111893760D01*
X127067414Y-111990609D01*
X127049500Y-112103713D01*
X127049500Y-112316287D01*
X127050890Y-112325060D01*
X127082753Y-112526239D01*
X127082753Y-112526241D01*
X127082754Y-112526243D01*
X127140685Y-112704536D01*
X127148444Y-112728414D01*
X127244951Y-112917820D01*
X127369890Y-113089786D01*
X127520213Y-113240109D01*
X127692182Y-113365050D01*
X127700946Y-113369516D01*
X127751742Y-113417491D01*
X127768536Y-113485312D01*
X127745998Y-113551447D01*
X127700946Y-113590484D01*
X127692182Y-113594949D01*
X127520213Y-113719890D01*
X127369890Y-113870213D01*
X127244951Y-114042179D01*
X127148444Y-114231585D01*
X127082753Y-114433760D01*
X127057912Y-114590602D01*
X127049500Y-114643713D01*
X127049500Y-114856287D01*
X127054268Y-114886388D01*
X127075612Y-115021155D01*
X127082754Y-115066243D01*
X127133089Y-115221158D01*
X127148444Y-115268414D01*
X127244951Y-115457820D01*
X127369890Y-115629786D01*
X127520213Y-115780109D01*
X127692182Y-115905050D01*
X127700946Y-115909516D01*
X127751742Y-115957491D01*
X127768536Y-116025312D01*
X127745998Y-116091447D01*
X127700946Y-116130484D01*
X127692182Y-116134949D01*
X127520213Y-116259890D01*
X127369890Y-116410213D01*
X127244951Y-116582179D01*
X127148444Y-116771585D01*
X127082753Y-116973760D01*
X127049500Y-117183713D01*
X127049500Y-117396286D01*
X127070082Y-117526239D01*
X127082754Y-117606243D01*
X127122449Y-117728412D01*
X127148444Y-117808414D01*
X127244951Y-117997820D01*
X127369890Y-118169786D01*
X127520213Y-118320109D01*
X127692182Y-118445050D01*
X127700946Y-118449516D01*
X127751742Y-118497491D01*
X127768536Y-118565312D01*
X127745998Y-118631447D01*
X127700946Y-118670484D01*
X127692182Y-118674949D01*
X127520213Y-118799890D01*
X127369890Y-118950213D01*
X127244951Y-119122179D01*
X127148444Y-119311585D01*
X127082753Y-119513760D01*
X127049500Y-119723713D01*
X127049500Y-119936286D01*
X127070082Y-120066239D01*
X127082754Y-120146243D01*
X127122449Y-120268412D01*
X127148444Y-120348414D01*
X127244951Y-120537820D01*
X127369890Y-120709786D01*
X127520213Y-120860109D01*
X127692179Y-120985048D01*
X127692181Y-120985049D01*
X127692184Y-120985051D01*
X127701493Y-120989794D01*
X127752290Y-121037766D01*
X127769087Y-121105587D01*
X127746552Y-121171722D01*
X127701502Y-121210762D01*
X127692443Y-121215378D01*
X127520540Y-121340272D01*
X127520535Y-121340276D01*
X127370276Y-121490535D01*
X127370272Y-121490540D01*
X127245379Y-121662442D01*
X127148904Y-121851782D01*
X127083242Y-122053870D01*
X127083242Y-122053873D01*
X127072769Y-122120000D01*
X127966988Y-122120000D01*
X127934075Y-122177007D01*
X127900000Y-122304174D01*
X127900000Y-122435826D01*
X127934075Y-122562993D01*
X127966988Y-122620000D01*
X127072769Y-122620000D01*
X127083242Y-122686126D01*
X127083242Y-122686129D01*
X127148904Y-122888217D01*
X127245379Y-123077557D01*
X127370272Y-123249459D01*
X127370276Y-123249464D01*
X127520535Y-123399723D01*
X127520540Y-123399727D01*
X127692444Y-123524622D01*
X127702048Y-123529516D01*
X127752844Y-123577491D01*
X127769638Y-123645312D01*
X127747100Y-123711447D01*
X127702048Y-123750484D01*
X127692444Y-123755377D01*
X127520540Y-123880272D01*
X127520535Y-123880276D01*
X127370276Y-124030535D01*
X127370272Y-124030540D01*
X127245379Y-124202442D01*
X127148904Y-124391782D01*
X127083242Y-124593870D01*
X127083242Y-124593873D01*
X127072769Y-124660000D01*
X127966988Y-124660000D01*
X127934075Y-124717007D01*
X127900000Y-124844174D01*
X127900000Y-124975826D01*
X127934075Y-125102993D01*
X127966988Y-125160000D01*
X127072769Y-125160000D01*
X127083242Y-125226126D01*
X127083242Y-125226129D01*
X127148904Y-125428217D01*
X127245379Y-125617557D01*
X127370272Y-125789459D01*
X127370276Y-125789464D01*
X127483946Y-125903134D01*
X127517431Y-125964457D01*
X127512447Y-126034149D01*
X127470575Y-126090082D01*
X127439598Y-126106997D01*
X127307671Y-126156202D01*
X127307664Y-126156206D01*
X127192455Y-126242452D01*
X127192452Y-126242455D01*
X127106206Y-126357664D01*
X127106202Y-126357671D01*
X127055908Y-126492517D01*
X127050738Y-126540609D01*
X127049501Y-126552123D01*
X127049500Y-126552135D01*
X127049500Y-128347870D01*
X127049501Y-128347876D01*
X127055908Y-128407483D01*
X127106202Y-128542328D01*
X127106206Y-128542335D01*
X127192452Y-128657544D01*
X127192455Y-128657547D01*
X127307664Y-128743793D01*
X127307671Y-128743797D01*
X127442517Y-128794091D01*
X127442516Y-128794091D01*
X127449444Y-128794835D01*
X127502127Y-128800500D01*
X129297872Y-128800499D01*
X129357483Y-128794091D01*
X129492331Y-128743796D01*
X129607546Y-128657546D01*
X129693796Y-128542331D01*
X129744091Y-128407483D01*
X129750500Y-128347873D01*
X129750499Y-126552128D01*
X129744091Y-126492517D01*
X129736486Y-126472128D01*
X129693797Y-126357671D01*
X129693793Y-126357664D01*
X129607547Y-126242455D01*
X129607544Y-126242452D01*
X129492335Y-126156206D01*
X129492328Y-126156202D01*
X129360401Y-126106997D01*
X129304467Y-126065126D01*
X129280050Y-125999662D01*
X129294902Y-125931389D01*
X129316053Y-125903133D01*
X129429728Y-125789458D01*
X129554620Y-125617557D01*
X129651095Y-125428217D01*
X129692062Y-125302135D01*
X134129500Y-125302135D01*
X134129500Y-127097870D01*
X134129501Y-127097876D01*
X134135908Y-127157483D01*
X134186202Y-127292328D01*
X134186206Y-127292335D01*
X134272452Y-127407544D01*
X134272455Y-127407547D01*
X134387664Y-127493793D01*
X134387671Y-127493797D01*
X134522517Y-127544091D01*
X134522516Y-127544091D01*
X134529444Y-127544835D01*
X134582127Y-127550500D01*
X136377872Y-127550499D01*
X136437483Y-127544091D01*
X136572331Y-127493796D01*
X136687546Y-127407546D01*
X136773796Y-127292331D01*
X136823002Y-127160401D01*
X136864872Y-127104468D01*
X136930337Y-127080050D01*
X136998610Y-127094901D01*
X137026865Y-127116053D01*
X137140535Y-127229723D01*
X137140540Y-127229727D01*
X137312442Y-127354620D01*
X137501782Y-127451095D01*
X137703871Y-127516757D01*
X137770000Y-127527231D01*
X137770000Y-126633012D01*
X137827007Y-126665925D01*
X137954174Y-126700000D01*
X138085826Y-126700000D01*
X138212993Y-126665925D01*
X138270000Y-126633012D01*
X138270000Y-127527230D01*
X138336126Y-127516757D01*
X138336129Y-127516757D01*
X138538217Y-127451095D01*
X138727557Y-127354620D01*
X138899459Y-127229727D01*
X138899464Y-127229723D01*
X139049723Y-127079464D01*
X139049727Y-127079459D01*
X139174620Y-126907558D01*
X139179232Y-126898507D01*
X139227205Y-126847709D01*
X139295025Y-126830912D01*
X139361161Y-126853447D01*
X139400204Y-126898504D01*
X139404949Y-126907817D01*
X139529890Y-127079786D01*
X139680213Y-127230109D01*
X139852179Y-127355048D01*
X139852181Y-127355049D01*
X139852184Y-127355051D01*
X140041588Y-127451557D01*
X140243757Y-127517246D01*
X140453713Y-127550500D01*
X140453714Y-127550500D01*
X140666286Y-127550500D01*
X140666287Y-127550500D01*
X140876243Y-127517246D01*
X141078412Y-127451557D01*
X141267816Y-127355051D01*
X141354138Y-127292335D01*
X141439786Y-127230109D01*
X141439788Y-127230106D01*
X141439792Y-127230104D01*
X141590104Y-127079792D01*
X141590106Y-127079788D01*
X141590109Y-127079786D01*
X141657515Y-126987007D01*
X141715051Y-126907816D01*
X141719793Y-126898508D01*
X141767763Y-126847711D01*
X141835583Y-126830911D01*
X141901719Y-126853445D01*
X141940763Y-126898500D01*
X141945377Y-126907555D01*
X142070272Y-127079459D01*
X142070276Y-127079464D01*
X142220535Y-127229723D01*
X142220540Y-127229727D01*
X142392442Y-127354620D01*
X142581782Y-127451095D01*
X142783871Y-127516757D01*
X142850000Y-127527231D01*
X142850000Y-126633012D01*
X142907007Y-126665925D01*
X143034174Y-126700000D01*
X143165826Y-126700000D01*
X143292993Y-126665925D01*
X143350000Y-126633012D01*
X143350000Y-127527230D01*
X143416126Y-127516757D01*
X143416129Y-127516757D01*
X143618217Y-127451095D01*
X143807557Y-127354620D01*
X143979459Y-127229727D01*
X143979464Y-127229723D01*
X144038034Y-127171153D01*
X164549500Y-127171153D01*
X164549500Y-127328846D01*
X164580261Y-127483489D01*
X164580264Y-127483501D01*
X164640602Y-127629172D01*
X164640609Y-127629185D01*
X164728210Y-127760288D01*
X164728213Y-127760292D01*
X164839707Y-127871786D01*
X164839711Y-127871789D01*
X164970814Y-127959390D01*
X164970827Y-127959397D01*
X165116498Y-128019735D01*
X165116503Y-128019737D01*
X165271153Y-128050499D01*
X165271156Y-128050500D01*
X165271158Y-128050500D01*
X165428844Y-128050500D01*
X165428845Y-128050499D01*
X165583497Y-128019737D01*
X165729179Y-127959394D01*
X165860289Y-127871789D01*
X165971789Y-127760289D01*
X166059394Y-127629179D01*
X166119737Y-127483497D01*
X166150500Y-127328842D01*
X166150500Y-127171158D01*
X166150500Y-127171155D01*
X166150499Y-127171153D01*
X166135923Y-127097876D01*
X166119737Y-127016503D01*
X166074719Y-126907818D01*
X166059397Y-126870827D01*
X166059390Y-126870814D01*
X165971789Y-126739711D01*
X165971786Y-126739707D01*
X165860292Y-126628213D01*
X165860288Y-126628210D01*
X165729185Y-126540609D01*
X165729172Y-126540602D01*
X165583501Y-126480264D01*
X165583489Y-126480261D01*
X165428845Y-126449500D01*
X165428842Y-126449500D01*
X165271158Y-126449500D01*
X165271155Y-126449500D01*
X165116510Y-126480261D01*
X165116498Y-126480264D01*
X164970827Y-126540602D01*
X164970814Y-126540609D01*
X164839711Y-126628210D01*
X164839707Y-126628213D01*
X164728213Y-126739707D01*
X164728210Y-126739711D01*
X164640609Y-126870814D01*
X164640602Y-126870827D01*
X164580264Y-127016498D01*
X164580261Y-127016510D01*
X164549500Y-127171153D01*
X144038034Y-127171153D01*
X144129723Y-127079464D01*
X144129727Y-127079459D01*
X144254620Y-126907557D01*
X144351095Y-126718217D01*
X144416757Y-126516129D01*
X144416757Y-126516126D01*
X144427231Y-126450000D01*
X143533012Y-126450000D01*
X143565925Y-126392993D01*
X143600000Y-126265826D01*
X143600000Y-126134174D01*
X143565925Y-126007007D01*
X143533012Y-125950000D01*
X144427231Y-125950000D01*
X144423040Y-125923543D01*
X148379499Y-125923543D01*
X148417947Y-126116829D01*
X148417950Y-126116839D01*
X148493364Y-126298907D01*
X148493371Y-126298920D01*
X148602860Y-126462781D01*
X148602863Y-126462785D01*
X148742214Y-126602136D01*
X148742218Y-126602139D01*
X148906079Y-126711628D01*
X148906092Y-126711635D01*
X149088160Y-126787049D01*
X149088165Y-126787051D01*
X149088169Y-126787051D01*
X149088170Y-126787052D01*
X149281456Y-126825500D01*
X149281459Y-126825500D01*
X149478543Y-126825500D01*
X149608582Y-126799632D01*
X149671835Y-126787051D01*
X149853914Y-126711632D01*
X150017782Y-126602139D01*
X150157139Y-126462782D01*
X150266632Y-126298914D01*
X150342051Y-126116835D01*
X150354632Y-126053582D01*
X150380500Y-125923543D01*
X157019499Y-125923543D01*
X157057947Y-126116829D01*
X157057950Y-126116839D01*
X157133364Y-126298907D01*
X157133371Y-126298920D01*
X157242860Y-126462781D01*
X157242863Y-126462785D01*
X157382214Y-126602136D01*
X157382218Y-126602139D01*
X157546079Y-126711628D01*
X157546092Y-126711635D01*
X157728160Y-126787049D01*
X157728165Y-126787051D01*
X157728169Y-126787051D01*
X157728170Y-126787052D01*
X157921456Y-126825500D01*
X157921459Y-126825500D01*
X158118543Y-126825500D01*
X158248582Y-126799632D01*
X158311835Y-126787051D01*
X158493914Y-126711632D01*
X158657782Y-126602139D01*
X158797139Y-126462782D01*
X158906632Y-126298914D01*
X158982051Y-126116835D01*
X158994632Y-126053582D01*
X159020500Y-125923543D01*
X159020500Y-125371153D01*
X159899500Y-125371153D01*
X159899500Y-125528846D01*
X159930261Y-125683489D01*
X159930264Y-125683501D01*
X159990602Y-125829172D01*
X159990609Y-125829185D01*
X160078210Y-125960288D01*
X160078213Y-125960292D01*
X160189707Y-126071786D01*
X160189711Y-126071789D01*
X160320814Y-126159390D01*
X160320827Y-126159397D01*
X160461172Y-126217529D01*
X160466503Y-126219737D01*
X160621153Y-126250499D01*
X160621156Y-126250500D01*
X160621158Y-126250500D01*
X160778844Y-126250500D01*
X160778845Y-126250499D01*
X160933497Y-126219737D01*
X161049086Y-126171858D01*
X161118554Y-126164390D01*
X161181033Y-126195665D01*
X161199639Y-126217529D01*
X161228210Y-126260288D01*
X161228213Y-126260292D01*
X161339707Y-126371786D01*
X161339711Y-126371789D01*
X161470814Y-126459390D01*
X161470827Y-126459397D01*
X161616498Y-126519735D01*
X161616503Y-126519737D01*
X161771153Y-126550499D01*
X161771156Y-126550500D01*
X161771158Y-126550500D01*
X161928844Y-126550500D01*
X161928845Y-126550499D01*
X162083497Y-126519737D01*
X162198465Y-126472116D01*
X162229172Y-126459397D01*
X162229172Y-126459396D01*
X162229179Y-126459394D01*
X162360289Y-126371789D01*
X162471789Y-126260289D01*
X162559394Y-126129179D01*
X162564510Y-126116829D01*
X162581338Y-126076202D01*
X162619737Y-125983497D01*
X162650500Y-125828842D01*
X162650500Y-125671158D01*
X162650500Y-125671155D01*
X162650499Y-125671153D01*
X162639838Y-125617557D01*
X162619737Y-125516503D01*
X162619735Y-125516498D01*
X162559397Y-125370827D01*
X162559390Y-125370814D01*
X162471789Y-125239711D01*
X162471786Y-125239707D01*
X162360292Y-125128213D01*
X162360288Y-125128210D01*
X162229185Y-125040609D01*
X162229172Y-125040602D01*
X162083501Y-124980264D01*
X162083489Y-124980261D01*
X161928845Y-124949500D01*
X161928842Y-124949500D01*
X161771158Y-124949500D01*
X161771155Y-124949500D01*
X161616510Y-124980261D01*
X161616507Y-124980261D01*
X161500914Y-125028141D01*
X161431444Y-125035609D01*
X161368965Y-125004333D01*
X161350360Y-124982470D01*
X161321789Y-124939711D01*
X161321786Y-124939707D01*
X161210292Y-124828213D01*
X161210288Y-124828210D01*
X161079185Y-124740609D01*
X161079172Y-124740602D01*
X160933501Y-124680264D01*
X160933489Y-124680261D01*
X160778845Y-124649500D01*
X160778842Y-124649500D01*
X160621158Y-124649500D01*
X160621155Y-124649500D01*
X160466510Y-124680261D01*
X160466498Y-124680264D01*
X160320827Y-124740602D01*
X160320814Y-124740609D01*
X160189711Y-124828210D01*
X160189707Y-124828213D01*
X160078213Y-124939707D01*
X160078210Y-124939711D01*
X159990609Y-125070814D01*
X159990602Y-125070827D01*
X159930264Y-125216498D01*
X159930261Y-125216510D01*
X159899500Y-125371153D01*
X159020500Y-125371153D01*
X159020500Y-124926456D01*
X158982052Y-124733170D01*
X158982051Y-124733169D01*
X158982051Y-124733165D01*
X158960139Y-124680264D01*
X158906635Y-124551092D01*
X158906628Y-124551079D01*
X158797139Y-124387218D01*
X158797136Y-124387214D01*
X158657785Y-124247863D01*
X158657781Y-124247860D01*
X158493920Y-124138371D01*
X158493907Y-124138364D01*
X158311839Y-124062950D01*
X158311829Y-124062947D01*
X158118543Y-124024500D01*
X158118541Y-124024500D01*
X157921459Y-124024500D01*
X157921457Y-124024500D01*
X157728170Y-124062947D01*
X157728160Y-124062950D01*
X157546092Y-124138364D01*
X157546079Y-124138371D01*
X157382218Y-124247860D01*
X157382214Y-124247863D01*
X157242863Y-124387214D01*
X157242860Y-124387218D01*
X157133371Y-124551079D01*
X157133364Y-124551092D01*
X157057950Y-124733160D01*
X157057947Y-124733170D01*
X157019500Y-124926456D01*
X157019500Y-124926459D01*
X157019500Y-125923541D01*
X157019500Y-125923543D01*
X157019499Y-125923543D01*
X150380500Y-125923543D01*
X150380500Y-124926456D01*
X150342052Y-124733170D01*
X150342051Y-124733169D01*
X150342051Y-124733165D01*
X150320139Y-124680264D01*
X150266635Y-124551092D01*
X150266628Y-124551079D01*
X150157139Y-124387218D01*
X150157136Y-124387214D01*
X150017785Y-124247863D01*
X150017781Y-124247860D01*
X149853920Y-124138371D01*
X149853907Y-124138364D01*
X149671839Y-124062950D01*
X149671829Y-124062947D01*
X149478543Y-124024500D01*
X149478541Y-124024500D01*
X149281459Y-124024500D01*
X149281457Y-124024500D01*
X149088170Y-124062947D01*
X149088160Y-124062950D01*
X148906092Y-124138364D01*
X148906079Y-124138371D01*
X148742218Y-124247860D01*
X148742214Y-124247863D01*
X148602863Y-124387214D01*
X148602860Y-124387218D01*
X148493371Y-124551079D01*
X148493364Y-124551092D01*
X148417950Y-124733160D01*
X148417947Y-124733170D01*
X148379500Y-124926456D01*
X148379500Y-124926459D01*
X148379500Y-125923541D01*
X148379500Y-125923543D01*
X148379499Y-125923543D01*
X144423040Y-125923543D01*
X144416757Y-125883873D01*
X144416757Y-125883870D01*
X144351095Y-125681782D01*
X144254620Y-125492442D01*
X144129727Y-125320540D01*
X144129723Y-125320535D01*
X143979464Y-125170276D01*
X143979459Y-125170272D01*
X143807557Y-125045379D01*
X143779047Y-125030852D01*
X143618215Y-124948903D01*
X143416124Y-124883241D01*
X143350000Y-124872768D01*
X143350000Y-125766988D01*
X143292993Y-125734075D01*
X143165826Y-125700000D01*
X143034174Y-125700000D01*
X142907007Y-125734075D01*
X142850000Y-125766988D01*
X142850000Y-124872768D01*
X142849999Y-124872768D01*
X142783875Y-124883241D01*
X142581784Y-124948903D01*
X142392442Y-125045379D01*
X142220540Y-125170272D01*
X142220535Y-125170276D01*
X142070276Y-125320535D01*
X142070272Y-125320540D01*
X141945378Y-125492443D01*
X141940762Y-125501502D01*
X141892784Y-125552295D01*
X141824963Y-125569087D01*
X141758829Y-125546546D01*
X141719794Y-125501493D01*
X141715051Y-125492184D01*
X141715049Y-125492181D01*
X141715048Y-125492179D01*
X141590109Y-125320213D01*
X141439786Y-125169890D01*
X141267820Y-125044951D01*
X141078414Y-124948444D01*
X141078413Y-124948443D01*
X141078412Y-124948443D01*
X140876243Y-124882754D01*
X140876241Y-124882753D01*
X140876240Y-124882753D01*
X140714957Y-124857208D01*
X140666287Y-124849500D01*
X140453713Y-124849500D01*
X140405042Y-124857208D01*
X140243760Y-124882753D01*
X140142672Y-124915598D01*
X140109248Y-124926459D01*
X140041585Y-124948444D01*
X139852179Y-125044951D01*
X139680213Y-125169890D01*
X139529890Y-125320213D01*
X139404949Y-125492182D01*
X139400202Y-125501499D01*
X139352227Y-125552293D01*
X139284405Y-125569087D01*
X139218271Y-125546548D01*
X139179234Y-125501495D01*
X139174622Y-125492444D01*
X139049727Y-125320540D01*
X139049723Y-125320535D01*
X138899464Y-125170276D01*
X138899459Y-125170272D01*
X138727557Y-125045379D01*
X138538215Y-124948903D01*
X138336124Y-124883241D01*
X138270000Y-124872768D01*
X138270000Y-125766988D01*
X138212993Y-125734075D01*
X138085826Y-125700000D01*
X137954174Y-125700000D01*
X137827007Y-125734075D01*
X137770000Y-125766988D01*
X137770000Y-124872768D01*
X137769999Y-124872768D01*
X137703875Y-124883241D01*
X137501784Y-124948903D01*
X137312442Y-125045379D01*
X137140541Y-125170271D01*
X137026865Y-125283947D01*
X136965542Y-125317431D01*
X136895850Y-125312447D01*
X136839917Y-125270575D01*
X136823002Y-125239598D01*
X136817978Y-125226129D01*
X136788182Y-125146239D01*
X136773797Y-125107671D01*
X136773793Y-125107664D01*
X136687547Y-124992455D01*
X136687544Y-124992452D01*
X136572335Y-124906206D01*
X136572328Y-124906202D01*
X136437482Y-124855908D01*
X136437483Y-124855908D01*
X136377883Y-124849501D01*
X136377881Y-124849500D01*
X136377873Y-124849500D01*
X136377864Y-124849500D01*
X134582129Y-124849500D01*
X134582123Y-124849501D01*
X134522516Y-124855908D01*
X134387671Y-124906202D01*
X134387664Y-124906206D01*
X134272455Y-124992452D01*
X134272452Y-124992455D01*
X134186206Y-125107664D01*
X134186202Y-125107671D01*
X134135908Y-125242517D01*
X134129501Y-125302116D01*
X134129500Y-125302135D01*
X129692062Y-125302135D01*
X129705591Y-125260496D01*
X129705593Y-125260489D01*
X129716758Y-125226124D01*
X129727231Y-125160000D01*
X128833012Y-125160000D01*
X128865925Y-125102993D01*
X128900000Y-124975826D01*
X128900000Y-124844174D01*
X128865925Y-124717007D01*
X128833012Y-124660000D01*
X129727231Y-124660000D01*
X129716757Y-124593873D01*
X129716757Y-124593870D01*
X129651095Y-124391782D01*
X129554620Y-124202442D01*
X129429727Y-124030540D01*
X129429723Y-124030535D01*
X129279464Y-123880276D01*
X129279459Y-123880272D01*
X129107558Y-123755379D01*
X129097954Y-123750486D01*
X129047157Y-123702512D01*
X129030361Y-123634692D01*
X129052897Y-123568556D01*
X129097954Y-123529514D01*
X129107558Y-123524620D01*
X129279459Y-123399727D01*
X129279464Y-123399723D01*
X129429723Y-123249464D01*
X129429727Y-123249459D01*
X129554620Y-123077557D01*
X129651095Y-122888217D01*
X129716757Y-122686129D01*
X129716757Y-122686126D01*
X129727231Y-122620000D01*
X128833012Y-122620000D01*
X128865925Y-122562993D01*
X128900000Y-122435826D01*
X128900000Y-122304174D01*
X128865925Y-122177007D01*
X128833012Y-122120000D01*
X129727231Y-122120000D01*
X129716757Y-122053873D01*
X129716757Y-122053870D01*
X129664664Y-121893543D01*
X148379499Y-121893543D01*
X148417947Y-122086829D01*
X148417950Y-122086839D01*
X148493364Y-122268907D01*
X148493371Y-122268920D01*
X148602860Y-122432781D01*
X148602863Y-122432785D01*
X148742214Y-122572136D01*
X148742218Y-122572139D01*
X148906079Y-122681628D01*
X148906092Y-122681635D01*
X149088160Y-122757049D01*
X149088165Y-122757051D01*
X149088169Y-122757051D01*
X149088170Y-122757052D01*
X149281456Y-122795500D01*
X149281459Y-122795500D01*
X149478543Y-122795500D01*
X149608582Y-122769632D01*
X149671835Y-122757051D01*
X149843057Y-122686129D01*
X149853907Y-122681635D01*
X149853907Y-122681634D01*
X149853914Y-122681632D01*
X150017782Y-122572139D01*
X150157139Y-122432782D01*
X150266632Y-122268914D01*
X150270540Y-122259478D01*
X150314376Y-122205074D01*
X150380669Y-122183004D01*
X150448369Y-122200279D01*
X150453028Y-122203432D01*
X150456633Y-122205513D01*
X150456635Y-122205515D01*
X150587865Y-122281281D01*
X150734234Y-122320500D01*
X150734236Y-122320500D01*
X150885764Y-122320500D01*
X150885766Y-122320500D01*
X151032135Y-122281281D01*
X151163365Y-122205515D01*
X151270515Y-122098365D01*
X151346281Y-121967135D01*
X151385500Y-121820766D01*
X151385500Y-121669234D01*
X156014500Y-121669234D01*
X156014500Y-121820765D01*
X156053719Y-121967136D01*
X156072330Y-121999370D01*
X156129485Y-122098365D01*
X156236635Y-122205515D01*
X156367865Y-122281281D01*
X156514234Y-122320500D01*
X156514236Y-122320500D01*
X156665764Y-122320500D01*
X156665766Y-122320500D01*
X156812135Y-122281281D01*
X156943365Y-122205515D01*
X156943366Y-122205513D01*
X156950403Y-122201451D01*
X156951749Y-122203783D01*
X157004553Y-122183357D01*
X157073001Y-122197381D01*
X157123001Y-122246185D01*
X157129458Y-122259474D01*
X157133367Y-122268913D01*
X157133371Y-122268920D01*
X157242860Y-122432781D01*
X157242863Y-122432785D01*
X157382214Y-122572136D01*
X157382218Y-122572139D01*
X157546079Y-122681628D01*
X157546092Y-122681635D01*
X157728160Y-122757049D01*
X157728165Y-122757051D01*
X157728169Y-122757051D01*
X157728170Y-122757052D01*
X157921456Y-122795500D01*
X157921459Y-122795500D01*
X158118543Y-122795500D01*
X158248582Y-122769632D01*
X158311835Y-122757051D01*
X158483057Y-122686129D01*
X158493907Y-122681635D01*
X158493907Y-122681634D01*
X158493914Y-122681632D01*
X158657782Y-122572139D01*
X158797139Y-122432782D01*
X158906632Y-122268914D01*
X158982051Y-122086835D01*
X159020500Y-121893541D01*
X159020500Y-120596459D01*
X159020500Y-120596456D01*
X158982052Y-120403170D01*
X158982051Y-120403169D01*
X158982051Y-120403165D01*
X158926235Y-120268412D01*
X158906635Y-120221092D01*
X158906628Y-120221079D01*
X158797139Y-120057218D01*
X158797136Y-120057214D01*
X158657785Y-119917863D01*
X158657781Y-119917860D01*
X158493920Y-119808371D01*
X158493907Y-119808364D01*
X158311839Y-119732950D01*
X158311829Y-119732947D01*
X158118543Y-119694500D01*
X158118541Y-119694500D01*
X157921459Y-119694500D01*
X157921457Y-119694500D01*
X157728170Y-119732947D01*
X157728160Y-119732950D01*
X157546092Y-119808364D01*
X157546079Y-119808371D01*
X157382218Y-119917860D01*
X157382214Y-119917863D01*
X157242863Y-120057214D01*
X157242860Y-120057218D01*
X157133371Y-120221079D01*
X157133364Y-120221092D01*
X157057950Y-120403160D01*
X157057947Y-120403170D01*
X157019500Y-120596456D01*
X157019500Y-121113666D01*
X156999815Y-121180705D01*
X156947011Y-121226460D01*
X156877853Y-121236404D01*
X156833501Y-121221054D01*
X156812137Y-121208719D01*
X156706819Y-121180500D01*
X156665766Y-121169500D01*
X156514234Y-121169500D01*
X156367863Y-121208719D01*
X156236635Y-121284485D01*
X156236632Y-121284487D01*
X156129487Y-121391632D01*
X156129485Y-121391635D01*
X156053719Y-121522863D01*
X156014500Y-121669234D01*
X151385500Y-121669234D01*
X151346281Y-121522865D01*
X151270515Y-121391635D01*
X151163365Y-121284485D01*
X151080087Y-121236404D01*
X151032136Y-121208719D01*
X150926819Y-121180500D01*
X150885766Y-121169500D01*
X150734234Y-121169500D01*
X150587862Y-121208719D01*
X150566499Y-121221054D01*
X150498598Y-121237525D01*
X150432572Y-121214673D01*
X150389382Y-121159751D01*
X150380500Y-121113666D01*
X150380500Y-120596456D01*
X150342052Y-120403170D01*
X150342051Y-120403169D01*
X150342051Y-120403165D01*
X150286235Y-120268412D01*
X150266635Y-120221092D01*
X150266628Y-120221079D01*
X150157139Y-120057218D01*
X150157136Y-120057214D01*
X150017785Y-119917863D01*
X150017781Y-119917860D01*
X149853920Y-119808371D01*
X149853907Y-119808364D01*
X149671839Y-119732950D01*
X149671829Y-119732947D01*
X149478543Y-119694500D01*
X149478541Y-119694500D01*
X149281459Y-119694500D01*
X149281457Y-119694500D01*
X149088170Y-119732947D01*
X149088160Y-119732950D01*
X148906092Y-119808364D01*
X148906079Y-119808371D01*
X148742218Y-119917860D01*
X148742214Y-119917863D01*
X148602863Y-120057214D01*
X148602860Y-120057218D01*
X148493371Y-120221079D01*
X148493364Y-120221092D01*
X148417950Y-120403160D01*
X148417947Y-120403170D01*
X148379500Y-120596456D01*
X148379500Y-120596459D01*
X148379500Y-121893541D01*
X148379500Y-121893543D01*
X148379499Y-121893543D01*
X129664664Y-121893543D01*
X129651095Y-121851782D01*
X129554620Y-121662442D01*
X129429727Y-121490540D01*
X129429723Y-121490535D01*
X129279464Y-121340276D01*
X129279459Y-121340272D01*
X129107555Y-121215377D01*
X129098500Y-121210763D01*
X129047706Y-121162788D01*
X129030912Y-121094966D01*
X129053451Y-121028832D01*
X129098508Y-120989793D01*
X129107816Y-120985051D01*
X129211782Y-120909516D01*
X129279786Y-120860109D01*
X129279788Y-120860106D01*
X129279792Y-120860104D01*
X129430104Y-120709792D01*
X129430106Y-120709788D01*
X129430109Y-120709786D01*
X129555051Y-120537816D01*
X129556962Y-120534067D01*
X129623659Y-120403165D01*
X129651557Y-120348412D01*
X129717246Y-120146243D01*
X129750500Y-119936287D01*
X129750500Y-119723713D01*
X129717246Y-119513757D01*
X129651557Y-119311588D01*
X129555051Y-119122184D01*
X129555049Y-119122181D01*
X129555048Y-119122179D01*
X129430109Y-118950213D01*
X129279786Y-118799890D01*
X129107820Y-118674951D01*
X129107115Y-118674591D01*
X129099054Y-118670485D01*
X129048259Y-118622512D01*
X129031463Y-118554692D01*
X129053999Y-118488556D01*
X129099054Y-118449515D01*
X129107816Y-118445051D01*
X129145749Y-118417491D01*
X129279786Y-118320109D01*
X129279788Y-118320106D01*
X129279792Y-118320104D01*
X129430104Y-118169792D01*
X129430106Y-118169788D01*
X129430109Y-118169786D01*
X129555048Y-117997820D01*
X129555047Y-117997820D01*
X129555051Y-117997816D01*
X129651557Y-117808412D01*
X129717246Y-117606243D01*
X129750500Y-117396287D01*
X129750500Y-117183713D01*
X129717246Y-116973757D01*
X129651557Y-116771588D01*
X129555051Y-116582184D01*
X129555049Y-116582181D01*
X129555048Y-116582179D01*
X129430109Y-116410213D01*
X129279786Y-116259890D01*
X129107820Y-116134951D01*
X129107115Y-116134591D01*
X129099054Y-116130485D01*
X129048259Y-116082512D01*
X129031463Y-116014692D01*
X129053999Y-115948556D01*
X129099054Y-115909515D01*
X129107816Y-115905051D01*
X129156425Y-115869735D01*
X129279786Y-115780109D01*
X129279788Y-115780106D01*
X129279792Y-115780104D01*
X129430104Y-115629792D01*
X129430106Y-115629788D01*
X129430109Y-115629786D01*
X129555048Y-115457820D01*
X129555047Y-115457820D01*
X129555051Y-115457816D01*
X129651557Y-115268412D01*
X129717246Y-115066243D01*
X129750500Y-114856287D01*
X129750500Y-114643713D01*
X129717246Y-114433757D01*
X129651557Y-114231588D01*
X129595288Y-114121153D01*
X140799500Y-114121153D01*
X140799500Y-114278846D01*
X140830261Y-114433489D01*
X140830264Y-114433501D01*
X140890604Y-114579177D01*
X140890605Y-114579179D01*
X140891899Y-114581115D01*
X140892264Y-114582282D01*
X140893476Y-114584549D01*
X140893045Y-114584778D01*
X140912773Y-114647794D01*
X140894285Y-114715173D01*
X140891899Y-114718885D01*
X140890605Y-114720820D01*
X140890604Y-114720822D01*
X140830264Y-114866498D01*
X140830261Y-114866510D01*
X140799500Y-115021153D01*
X140799500Y-115178846D01*
X140830261Y-115333489D01*
X140830264Y-115333501D01*
X140890602Y-115479172D01*
X140890609Y-115479185D01*
X140978210Y-115610288D01*
X140978213Y-115610292D01*
X141089707Y-115721786D01*
X141089711Y-115721789D01*
X141220814Y-115809390D01*
X141220827Y-115809397D01*
X141363652Y-115868556D01*
X141366503Y-115869737D01*
X141521153Y-115900499D01*
X141521156Y-115900500D01*
X141521158Y-115900500D01*
X141678844Y-115900500D01*
X141678845Y-115900499D01*
X141833497Y-115869737D01*
X141979179Y-115809394D01*
X141981110Y-115808103D01*
X141982276Y-115807737D01*
X141984546Y-115806525D01*
X141984776Y-115806955D01*
X142047786Y-115787226D01*
X142115166Y-115805710D01*
X142118850Y-115808077D01*
X142120821Y-115809394D01*
X142120824Y-115809395D01*
X142120827Y-115809397D01*
X142263652Y-115868556D01*
X142266503Y-115869737D01*
X142421153Y-115900499D01*
X142421156Y-115900500D01*
X142421158Y-115900500D01*
X142578844Y-115900500D01*
X142578845Y-115900499D01*
X142733497Y-115869737D01*
X142879179Y-115809394D01*
X143010289Y-115721789D01*
X143121789Y-115610289D01*
X143209394Y-115479179D01*
X143269737Y-115333497D01*
X143292083Y-115221158D01*
X143292084Y-115221153D01*
X144349500Y-115221153D01*
X144349500Y-115378846D01*
X144380261Y-115533489D01*
X144380264Y-115533501D01*
X144440602Y-115679172D01*
X144440609Y-115679185D01*
X144528210Y-115810288D01*
X144528213Y-115810292D01*
X144639707Y-115921786D01*
X144639711Y-115921789D01*
X144770814Y-116009390D01*
X144770827Y-116009397D01*
X144880801Y-116054949D01*
X144916503Y-116069737D01*
X145025646Y-116091447D01*
X145071153Y-116100499D01*
X145071156Y-116100500D01*
X145071158Y-116100500D01*
X145228844Y-116100500D01*
X145228845Y-116100499D01*
X145383497Y-116069737D01*
X145503574Y-116020000D01*
X145529172Y-116009397D01*
X145529172Y-116009396D01*
X145529179Y-116009394D01*
X145568371Y-115983207D01*
X155541606Y-115983207D01*
X155541606Y-116140900D01*
X155572367Y-116295543D01*
X155572370Y-116295555D01*
X155632708Y-116441226D01*
X155632715Y-116441239D01*
X155720316Y-116572342D01*
X155720319Y-116572346D01*
X155831813Y-116683840D01*
X155831817Y-116683843D01*
X155962920Y-116771444D01*
X155962933Y-116771451D01*
X156093800Y-116825657D01*
X156108609Y-116831791D01*
X156263259Y-116862553D01*
X156263262Y-116862554D01*
X156263264Y-116862554D01*
X156420950Y-116862554D01*
X156420951Y-116862553D01*
X156575603Y-116831791D01*
X156721285Y-116771448D01*
X156852395Y-116683843D01*
X156963895Y-116572343D01*
X157051500Y-116441233D01*
X157111843Y-116295551D01*
X157142606Y-116140896D01*
X157142606Y-115983212D01*
X157142606Y-115983209D01*
X157142605Y-115983207D01*
X157135067Y-115945312D01*
X157111843Y-115828557D01*
X157110390Y-115825048D01*
X157051503Y-115682881D01*
X157051496Y-115682868D01*
X156963895Y-115551765D01*
X156963892Y-115551761D01*
X156852398Y-115440267D01*
X156852394Y-115440264D01*
X156721291Y-115352663D01*
X156721278Y-115352656D01*
X156575607Y-115292318D01*
X156575595Y-115292315D01*
X156420951Y-115261554D01*
X156420948Y-115261554D01*
X156263264Y-115261554D01*
X156263261Y-115261554D01*
X156108616Y-115292315D01*
X156108604Y-115292318D01*
X155962933Y-115352656D01*
X155962920Y-115352663D01*
X155831817Y-115440264D01*
X155831813Y-115440267D01*
X155720319Y-115551761D01*
X155720316Y-115551765D01*
X155632715Y-115682868D01*
X155632708Y-115682881D01*
X155572370Y-115828552D01*
X155572367Y-115828564D01*
X155541606Y-115983207D01*
X145568371Y-115983207D01*
X145660289Y-115921789D01*
X145672564Y-115909514D01*
X145692640Y-115889439D01*
X145771786Y-115810292D01*
X145771789Y-115810289D01*
X145859394Y-115679179D01*
X145919737Y-115533497D01*
X145950500Y-115378842D01*
X145950500Y-115221158D01*
X145950500Y-115221155D01*
X145950499Y-115221153D01*
X145943986Y-115188412D01*
X145919737Y-115066503D01*
X145900955Y-115021158D01*
X145859397Y-114920827D01*
X145859390Y-114920814D01*
X145771789Y-114789711D01*
X145771786Y-114789707D01*
X145660292Y-114678213D01*
X145660288Y-114678210D01*
X145529185Y-114590609D01*
X145529172Y-114590602D01*
X145383501Y-114530264D01*
X145383489Y-114530261D01*
X145228845Y-114499500D01*
X145228842Y-114499500D01*
X145071158Y-114499500D01*
X145071155Y-114499500D01*
X144916510Y-114530261D01*
X144916498Y-114530264D01*
X144770827Y-114590602D01*
X144770814Y-114590609D01*
X144639711Y-114678210D01*
X144639707Y-114678213D01*
X144528213Y-114789707D01*
X144528210Y-114789711D01*
X144440609Y-114920814D01*
X144440602Y-114920827D01*
X144380264Y-115066498D01*
X144380261Y-115066510D01*
X144349500Y-115221153D01*
X143292084Y-115221153D01*
X143298107Y-115190875D01*
X143298107Y-115190874D01*
X143300500Y-115178844D01*
X143300500Y-115021155D01*
X143300499Y-115021153D01*
X143280543Y-114920827D01*
X143269737Y-114866503D01*
X143269735Y-114866498D01*
X143209397Y-114720827D01*
X143209394Y-114720822D01*
X143209394Y-114720821D01*
X143208103Y-114718889D01*
X143207737Y-114717723D01*
X143206525Y-114715454D01*
X143206955Y-114715223D01*
X143187226Y-114652214D01*
X143205710Y-114584834D01*
X143208100Y-114581115D01*
X143209394Y-114579179D01*
X143269737Y-114433497D01*
X143300500Y-114278842D01*
X143300500Y-114121158D01*
X143300500Y-114121155D01*
X143299526Y-114116260D01*
X143299526Y-114116258D01*
X143299525Y-114116255D01*
X143295924Y-114098151D01*
X147303673Y-114098151D01*
X147303673Y-114255844D01*
X147334434Y-114410487D01*
X147334437Y-114410499D01*
X147394775Y-114556170D01*
X147394782Y-114556183D01*
X147482383Y-114687286D01*
X147482386Y-114687290D01*
X147593880Y-114798784D01*
X147593884Y-114798787D01*
X147724987Y-114886388D01*
X147725000Y-114886395D01*
X147833050Y-114931150D01*
X147870676Y-114946735D01*
X148025326Y-114977497D01*
X148025329Y-114977498D01*
X148025331Y-114977498D01*
X148183017Y-114977498D01*
X148183018Y-114977497D01*
X148337670Y-114946735D01*
X148483352Y-114886392D01*
X148614462Y-114798787D01*
X148725962Y-114687287D01*
X148811913Y-114558653D01*
X154285528Y-114558653D01*
X154285528Y-114716346D01*
X154316289Y-114870989D01*
X154316292Y-114871001D01*
X154376630Y-115016672D01*
X154376637Y-115016685D01*
X154464238Y-115147788D01*
X154464241Y-115147792D01*
X154575735Y-115259286D01*
X154575739Y-115259289D01*
X154706842Y-115346890D01*
X154706855Y-115346897D01*
X154852526Y-115407235D01*
X154852531Y-115407237D01*
X155007181Y-115437999D01*
X155007184Y-115438000D01*
X155007186Y-115438000D01*
X155164872Y-115438000D01*
X155164873Y-115437999D01*
X155319525Y-115407237D01*
X155465207Y-115346894D01*
X155596317Y-115259289D01*
X155707817Y-115147789D01*
X155795422Y-115016679D01*
X155855765Y-114870997D01*
X155886528Y-114716342D01*
X155886528Y-114558658D01*
X155886528Y-114558655D01*
X155886527Y-114558653D01*
X155861683Y-114433757D01*
X155855765Y-114404003D01*
X155816948Y-114310289D01*
X155795425Y-114258327D01*
X155795418Y-114258314D01*
X155707817Y-114127211D01*
X155707814Y-114127207D01*
X155596320Y-114015713D01*
X155596316Y-114015710D01*
X155465213Y-113928109D01*
X155465200Y-113928102D01*
X155319529Y-113867764D01*
X155319519Y-113867761D01*
X155164873Y-113837000D01*
X155164870Y-113837000D01*
X155007186Y-113837000D01*
X155007183Y-113837000D01*
X154852538Y-113867761D01*
X154852526Y-113867764D01*
X154706855Y-113928102D01*
X154706842Y-113928109D01*
X154575739Y-114015710D01*
X154575735Y-114015713D01*
X154464241Y-114127207D01*
X154464238Y-114127211D01*
X154376637Y-114258314D01*
X154376630Y-114258327D01*
X154316292Y-114403998D01*
X154316289Y-114404010D01*
X154285528Y-114558653D01*
X148811913Y-114558653D01*
X148813567Y-114556177D01*
X148813568Y-114556174D01*
X148813570Y-114556171D01*
X148834718Y-114505114D01*
X148864273Y-114433760D01*
X148873910Y-114410495D01*
X148904673Y-114255840D01*
X148904673Y-114098156D01*
X148904673Y-114098153D01*
X148904672Y-114098151D01*
X148893539Y-114042184D01*
X148873910Y-113943501D01*
X148873908Y-113943496D01*
X148813570Y-113797825D01*
X148813563Y-113797812D01*
X148762341Y-113721153D01*
X157299500Y-113721153D01*
X157299500Y-113878846D01*
X157330261Y-114033489D01*
X157330264Y-114033501D01*
X157390602Y-114179172D01*
X157390609Y-114179185D01*
X157478210Y-114310288D01*
X157478213Y-114310292D01*
X157589707Y-114421786D01*
X157589711Y-114421789D01*
X157720814Y-114509390D01*
X157720827Y-114509397D01*
X157866498Y-114569735D01*
X157866503Y-114569737D01*
X158021153Y-114600499D01*
X158021156Y-114600500D01*
X158021158Y-114600500D01*
X158178844Y-114600500D01*
X158178845Y-114600499D01*
X158333497Y-114569737D01*
X158479179Y-114509394D01*
X158610289Y-114421789D01*
X158721789Y-114310289D01*
X158809394Y-114179179D01*
X158869737Y-114033497D01*
X158900500Y-113878842D01*
X158900500Y-113721158D01*
X158900500Y-113721155D01*
X158900499Y-113721153D01*
X158889669Y-113666709D01*
X158869737Y-113566503D01*
X158865059Y-113555209D01*
X158809397Y-113420827D01*
X158809390Y-113420814D01*
X158721789Y-113289711D01*
X158721786Y-113289707D01*
X158610292Y-113178213D01*
X158610288Y-113178210D01*
X158479185Y-113090609D01*
X158479172Y-113090602D01*
X158333501Y-113030264D01*
X158333489Y-113030261D01*
X158178845Y-112999500D01*
X158178842Y-112999500D01*
X158021158Y-112999500D01*
X158021155Y-112999500D01*
X157866510Y-113030261D01*
X157866498Y-113030264D01*
X157720827Y-113090602D01*
X157720814Y-113090609D01*
X157589711Y-113178210D01*
X157589707Y-113178213D01*
X157478213Y-113289707D01*
X157478210Y-113289711D01*
X157390609Y-113420814D01*
X157390602Y-113420827D01*
X157330264Y-113566498D01*
X157330261Y-113566510D01*
X157299500Y-113721153D01*
X148762341Y-113721153D01*
X148725962Y-113666709D01*
X148725959Y-113666705D01*
X148614465Y-113555211D01*
X148614461Y-113555208D01*
X148483358Y-113467607D01*
X148483345Y-113467600D01*
X148337674Y-113407262D01*
X148337662Y-113407259D01*
X148183018Y-113376498D01*
X148183015Y-113376498D01*
X148025331Y-113376498D01*
X148025328Y-113376498D01*
X147870683Y-113407259D01*
X147870671Y-113407262D01*
X147725000Y-113467600D01*
X147724987Y-113467607D01*
X147593884Y-113555208D01*
X147593880Y-113555211D01*
X147482386Y-113666705D01*
X147482383Y-113666709D01*
X147394782Y-113797812D01*
X147394775Y-113797825D01*
X147334437Y-113943496D01*
X147334434Y-113943508D01*
X147303673Y-114098151D01*
X143295924Y-114098151D01*
X143283061Y-114033489D01*
X143269737Y-113966503D01*
X143229851Y-113870208D01*
X143209397Y-113820827D01*
X143209390Y-113820814D01*
X143121789Y-113689711D01*
X143121786Y-113689707D01*
X143010292Y-113578213D01*
X143010288Y-113578210D01*
X142879185Y-113490609D01*
X142879172Y-113490602D01*
X142733501Y-113430264D01*
X142733489Y-113430261D01*
X142578845Y-113399500D01*
X142578842Y-113399500D01*
X142421158Y-113399500D01*
X142421155Y-113399500D01*
X142266510Y-113430261D01*
X142266498Y-113430264D01*
X142120822Y-113490604D01*
X142120820Y-113490605D01*
X142118885Y-113491899D01*
X142117717Y-113492264D01*
X142115451Y-113493476D01*
X142115221Y-113493045D01*
X142052206Y-113512773D01*
X141984827Y-113494285D01*
X141981115Y-113491899D01*
X141979179Y-113490605D01*
X141979177Y-113490604D01*
X141833501Y-113430264D01*
X141833489Y-113430261D01*
X141678845Y-113399500D01*
X141678842Y-113399500D01*
X141521158Y-113399500D01*
X141521155Y-113399500D01*
X141366510Y-113430261D01*
X141366498Y-113430264D01*
X141220827Y-113490602D01*
X141220814Y-113490609D01*
X141089711Y-113578210D01*
X141089707Y-113578213D01*
X140978213Y-113689707D01*
X140978210Y-113689711D01*
X140890609Y-113820814D01*
X140890602Y-113820827D01*
X140830264Y-113966498D01*
X140830261Y-113966510D01*
X140799500Y-114121153D01*
X129595288Y-114121153D01*
X129555051Y-114042184D01*
X129535819Y-114015713D01*
X129430109Y-113870213D01*
X129279786Y-113719890D01*
X129107820Y-113594951D01*
X129107115Y-113594591D01*
X129099054Y-113590485D01*
X129048259Y-113542512D01*
X129031463Y-113474692D01*
X129053999Y-113408556D01*
X129099054Y-113369515D01*
X129107816Y-113365051D01*
X129145749Y-113337491D01*
X129279786Y-113240109D01*
X129279788Y-113240106D01*
X129279792Y-113240104D01*
X129430104Y-113089792D01*
X129430106Y-113089788D01*
X129430109Y-113089786D01*
X129555048Y-112917820D01*
X129555047Y-112917820D01*
X129555051Y-112917816D01*
X129651557Y-112728412D01*
X129686408Y-112621153D01*
X145349500Y-112621153D01*
X145349500Y-112778846D01*
X145380261Y-112933489D01*
X145380264Y-112933501D01*
X145440602Y-113079172D01*
X145440609Y-113079185D01*
X145528210Y-113210288D01*
X145528213Y-113210292D01*
X145639707Y-113321786D01*
X145639711Y-113321789D01*
X145770814Y-113409390D01*
X145770827Y-113409397D01*
X145916498Y-113469735D01*
X145916503Y-113469737D01*
X146060817Y-113498443D01*
X146071153Y-113500499D01*
X146071156Y-113500500D01*
X146071158Y-113500500D01*
X146228844Y-113500500D01*
X146228845Y-113500499D01*
X146383497Y-113469737D01*
X146501592Y-113420821D01*
X146529172Y-113409397D01*
X146529172Y-113409396D01*
X146529179Y-113409394D01*
X146660289Y-113321789D01*
X146771789Y-113210289D01*
X146859394Y-113079179D01*
X146862410Y-113071899D01*
X146879655Y-113030264D01*
X146919737Y-112933497D01*
X146950500Y-112778842D01*
X146950500Y-112621158D01*
X146950500Y-112621155D01*
X146950499Y-112621153D01*
X146945496Y-112596003D01*
X146919737Y-112466503D01*
X146911345Y-112446243D01*
X146861150Y-112325060D01*
X146861134Y-112325022D01*
X146859394Y-112320821D01*
X146859391Y-112320816D01*
X146859390Y-112320814D01*
X146834561Y-112283655D01*
X152649500Y-112283655D01*
X152649500Y-112441348D01*
X152680261Y-112595991D01*
X152680264Y-112596003D01*
X152740602Y-112741674D01*
X152740609Y-112741687D01*
X152828210Y-112872790D01*
X152828213Y-112872794D01*
X152939707Y-112984288D01*
X152939711Y-112984291D01*
X153070814Y-113071892D01*
X153070827Y-113071899D01*
X153216491Y-113132234D01*
X153216503Y-113132239D01*
X153356589Y-113160104D01*
X153371153Y-113163001D01*
X153371156Y-113163002D01*
X153371158Y-113163002D01*
X153528844Y-113163002D01*
X153528845Y-113163001D01*
X153683497Y-113132239D01*
X153829179Y-113071896D01*
X153960289Y-112984291D01*
X154071789Y-112872791D01*
X154105537Y-112822282D01*
X154159149Y-112777477D01*
X154228473Y-112768768D01*
X154291501Y-112798922D01*
X154311741Y-112822280D01*
X154345488Y-112872785D01*
X154345493Y-112872791D01*
X154456987Y-112984285D01*
X154456991Y-112984288D01*
X154588094Y-113071889D01*
X154588107Y-113071896D01*
X154733778Y-113132234D01*
X154733783Y-113132236D01*
X154792047Y-113143825D01*
X154894412Y-113164188D01*
X154893919Y-113166665D01*
X154948464Y-113188685D01*
X154974634Y-113217043D01*
X155025832Y-113293666D01*
X155025835Y-113293670D01*
X155137329Y-113405164D01*
X155137333Y-113405167D01*
X155268436Y-113492768D01*
X155268449Y-113492775D01*
X155388527Y-113542512D01*
X155414125Y-113553115D01*
X155568775Y-113583877D01*
X155568778Y-113583878D01*
X155568780Y-113583878D01*
X155726466Y-113583878D01*
X155726467Y-113583877D01*
X155881119Y-113553115D01*
X156023148Y-113494285D01*
X156026794Y-113492775D01*
X156026794Y-113492774D01*
X156026801Y-113492772D01*
X156157911Y-113405167D01*
X156269411Y-113293667D01*
X156357016Y-113162557D01*
X156417359Y-113016875D01*
X156448122Y-112862220D01*
X156448122Y-112704536D01*
X156448122Y-112704533D01*
X156448121Y-112704531D01*
X156417359Y-112549881D01*
X156407566Y-112526239D01*
X156357019Y-112404205D01*
X156357012Y-112404192D01*
X156269411Y-112273089D01*
X156269408Y-112273085D01*
X156157914Y-112161591D01*
X156157910Y-112161588D01*
X156079991Y-112109524D01*
X156035186Y-112055912D01*
X156026479Y-111986587D01*
X156056634Y-111923559D01*
X156116077Y-111886840D01*
X156148882Y-111882422D01*
X156228844Y-111882422D01*
X156228845Y-111882421D01*
X156383497Y-111851659D01*
X156529179Y-111791316D01*
X156660289Y-111703711D01*
X156771789Y-111592211D01*
X156859394Y-111461101D01*
X156863786Y-111450499D01*
X156914504Y-111328053D01*
X156919737Y-111315419D01*
X156950500Y-111160764D01*
X156950500Y-111003080D01*
X156950500Y-111003077D01*
X156950499Y-111003075D01*
X156939009Y-110945312D01*
X156919737Y-110848425D01*
X156911904Y-110829514D01*
X156870424Y-110729371D01*
X156867400Y-110701253D01*
X156861261Y-110673651D01*
X156863434Y-110664358D01*
X156862955Y-110659902D01*
X156868602Y-110639128D01*
X156869458Y-110636799D01*
X156919736Y-110515417D01*
X156926393Y-110481944D01*
X156929736Y-110472854D01*
X156945002Y-110452261D01*
X156956884Y-110429545D01*
X156966901Y-110422721D01*
X156971346Y-110416726D01*
X156981146Y-110413018D01*
X156998666Y-110401084D01*
X157046650Y-110381210D01*
X157177760Y-110293605D01*
X157289260Y-110182105D01*
X157376865Y-110050995D01*
X157377928Y-110048430D01*
X157427816Y-109927988D01*
X157437208Y-109905313D01*
X157467971Y-109750658D01*
X157467971Y-109592974D01*
X157467971Y-109592971D01*
X157467970Y-109592969D01*
X157446237Y-109483713D01*
X157437208Y-109438319D01*
X157426758Y-109413091D01*
X157376868Y-109292643D01*
X157376861Y-109292630D01*
X157289260Y-109161527D01*
X157289257Y-109161523D01*
X157177763Y-109050029D01*
X157177759Y-109050026D01*
X157046656Y-108962425D01*
X157046643Y-108962418D01*
X156900972Y-108902080D01*
X156900960Y-108902077D01*
X156746316Y-108871316D01*
X156746313Y-108871316D01*
X156588629Y-108871316D01*
X156588626Y-108871316D01*
X156433981Y-108902077D01*
X156433969Y-108902080D01*
X156288298Y-108962418D01*
X156288285Y-108962425D01*
X156157182Y-109050026D01*
X156157178Y-109050029D01*
X156045684Y-109161523D01*
X156045681Y-109161527D01*
X155958080Y-109292630D01*
X155958073Y-109292643D01*
X155897735Y-109438314D01*
X155897732Y-109438323D01*
X155892967Y-109462282D01*
X155860581Y-109524192D01*
X155818804Y-109552650D01*
X155770820Y-109572526D01*
X155770813Y-109572529D01*
X155639710Y-109660130D01*
X155639706Y-109660133D01*
X155528212Y-109771627D01*
X155528209Y-109771631D01*
X155440608Y-109902734D01*
X155440601Y-109902747D01*
X155380263Y-110048418D01*
X155380260Y-110048430D01*
X155349499Y-110203073D01*
X155349499Y-110360766D01*
X155380260Y-110515409D01*
X155380263Y-110515421D01*
X155429574Y-110634470D01*
X155437043Y-110703940D01*
X155429574Y-110729374D01*
X155380264Y-110848420D01*
X155380261Y-110848432D01*
X155349500Y-111003075D01*
X155349500Y-111160768D01*
X155380261Y-111315411D01*
X155380264Y-111315423D01*
X155441545Y-111463369D01*
X155449014Y-111532838D01*
X155417739Y-111595317D01*
X155357650Y-111630969D01*
X155287824Y-111628475D01*
X155279533Y-111625383D01*
X155229946Y-111604844D01*
X155200777Y-111592762D01*
X155200773Y-111592761D01*
X155200769Y-111592760D01*
X155046125Y-111561999D01*
X155046122Y-111561999D01*
X154888438Y-111561999D01*
X154888435Y-111561999D01*
X154733790Y-111592760D01*
X154733778Y-111592763D01*
X154588107Y-111653101D01*
X154588094Y-111653108D01*
X154456991Y-111740709D01*
X154456987Y-111740712D01*
X154345491Y-111852208D01*
X154311739Y-111902721D01*
X154258126Y-111947525D01*
X154188801Y-111956231D01*
X154125774Y-111926075D01*
X154105535Y-111902718D01*
X154071787Y-111852210D01*
X153960292Y-111740715D01*
X153960288Y-111740712D01*
X153829185Y-111653111D01*
X153829172Y-111653104D01*
X153683501Y-111592766D01*
X153683489Y-111592763D01*
X153528845Y-111562002D01*
X153528842Y-111562002D01*
X153371158Y-111562002D01*
X153371155Y-111562002D01*
X153216510Y-111592763D01*
X153216498Y-111592766D01*
X153070827Y-111653104D01*
X153070814Y-111653111D01*
X152939711Y-111740712D01*
X152939707Y-111740715D01*
X152828213Y-111852209D01*
X152828210Y-111852213D01*
X152740609Y-111983316D01*
X152740602Y-111983329D01*
X152680264Y-112129000D01*
X152680261Y-112129012D01*
X152649500Y-112283655D01*
X146834561Y-112283655D01*
X146771789Y-112189711D01*
X146771786Y-112189707D01*
X146660292Y-112078213D01*
X146660288Y-112078210D01*
X146529185Y-111990609D01*
X146529172Y-111990602D01*
X146383501Y-111930264D01*
X146383489Y-111930261D01*
X146228845Y-111899500D01*
X146228842Y-111899500D01*
X146071158Y-111899500D01*
X146071155Y-111899500D01*
X145916510Y-111930261D01*
X145916498Y-111930264D01*
X145770827Y-111990602D01*
X145770814Y-111990609D01*
X145639711Y-112078210D01*
X145639707Y-112078213D01*
X145528213Y-112189707D01*
X145528210Y-112189711D01*
X145440609Y-112320814D01*
X145440602Y-112320827D01*
X145380264Y-112466498D01*
X145380261Y-112466510D01*
X145349500Y-112621153D01*
X129686408Y-112621153D01*
X129717246Y-112526243D01*
X129750500Y-112316287D01*
X129750500Y-112103713D01*
X129717246Y-111893757D01*
X129651557Y-111691588D01*
X129555051Y-111502184D01*
X129555049Y-111502181D01*
X129555048Y-111502179D01*
X129430109Y-111330213D01*
X129279786Y-111179890D01*
X129107820Y-111054951D01*
X129107115Y-111054591D01*
X129099054Y-111050485D01*
X129048259Y-111002512D01*
X129031463Y-110934692D01*
X129053999Y-110868556D01*
X129099054Y-110829515D01*
X129107816Y-110825051D01*
X129145749Y-110797491D01*
X129279786Y-110700109D01*
X129279788Y-110700106D01*
X129279792Y-110700104D01*
X129408743Y-110571153D01*
X147949500Y-110571153D01*
X147949500Y-110728846D01*
X147980261Y-110883489D01*
X147980264Y-110883501D01*
X148040602Y-111029172D01*
X148040609Y-111029185D01*
X148128210Y-111160288D01*
X148128213Y-111160292D01*
X148239707Y-111271786D01*
X148239711Y-111271789D01*
X148370814Y-111359390D01*
X148370827Y-111359397D01*
X148516498Y-111419735D01*
X148516503Y-111419737D01*
X148671153Y-111450499D01*
X148671156Y-111450500D01*
X148671158Y-111450500D01*
X148828844Y-111450500D01*
X148828845Y-111450499D01*
X148983497Y-111419737D01*
X149129179Y-111359394D01*
X149260289Y-111271789D01*
X149371789Y-111160289D01*
X149459394Y-111029179D01*
X149519737Y-110883497D01*
X149550500Y-110728842D01*
X149550500Y-110571158D01*
X149550500Y-110571155D01*
X149550499Y-110571153D01*
X149544436Y-110540673D01*
X149519737Y-110416503D01*
X149519735Y-110416498D01*
X149459397Y-110270827D01*
X149459390Y-110270814D01*
X149371789Y-110139711D01*
X149371786Y-110139707D01*
X149260292Y-110028213D01*
X149260288Y-110028210D01*
X149129185Y-109940609D01*
X149129172Y-109940602D01*
X148983501Y-109880264D01*
X148983489Y-109880261D01*
X148828845Y-109849500D01*
X148828842Y-109849500D01*
X148671158Y-109849500D01*
X148671155Y-109849500D01*
X148516510Y-109880261D01*
X148516498Y-109880264D01*
X148370827Y-109940602D01*
X148370814Y-109940609D01*
X148239711Y-110028210D01*
X148239707Y-110028213D01*
X148128213Y-110139707D01*
X148128210Y-110139711D01*
X148040609Y-110270814D01*
X148040602Y-110270827D01*
X147980264Y-110416498D01*
X147980261Y-110416510D01*
X147949500Y-110571153D01*
X129408743Y-110571153D01*
X129430104Y-110549792D01*
X129555051Y-110377816D01*
X129651557Y-110188412D01*
X129717246Y-109986243D01*
X129750500Y-109776287D01*
X129750500Y-109563713D01*
X129717246Y-109353757D01*
X129651557Y-109151588D01*
X129555051Y-108962184D01*
X129555049Y-108962181D01*
X129555048Y-108962179D01*
X129430109Y-108790213D01*
X129279786Y-108639890D01*
X129107820Y-108514951D01*
X129103276Y-108512636D01*
X129099054Y-108510485D01*
X129094834Y-108506499D01*
X129089251Y-108504914D01*
X129069723Y-108482783D01*
X129048259Y-108462512D01*
X129046863Y-108456876D01*
X129043023Y-108452524D01*
X129038559Y-108423345D01*
X129031463Y-108394692D01*
X129033335Y-108389197D01*
X129032457Y-108383458D01*
X129037943Y-108371153D01*
X144799500Y-108371153D01*
X144799500Y-108528846D01*
X144830261Y-108683489D01*
X144830264Y-108683501D01*
X144890602Y-108829172D01*
X144890609Y-108829185D01*
X144978210Y-108960288D01*
X144978213Y-108960292D01*
X145089707Y-109071786D01*
X145089711Y-109071789D01*
X145220814Y-109159390D01*
X145220827Y-109159397D01*
X145366498Y-109219735D01*
X145366503Y-109219737D01*
X145488355Y-109243975D01*
X145521153Y-109250499D01*
X145521156Y-109250500D01*
X145521158Y-109250500D01*
X145678844Y-109250500D01*
X145678845Y-109250499D01*
X145833497Y-109219737D01*
X145946166Y-109173067D01*
X145979172Y-109159397D01*
X145979172Y-109159396D01*
X145979179Y-109159394D01*
X146110289Y-109071789D01*
X146221789Y-108960289D01*
X146309394Y-108829179D01*
X146369737Y-108683497D01*
X146372192Y-108671153D01*
X150899500Y-108671153D01*
X150899500Y-108828846D01*
X150930261Y-108983489D01*
X150930264Y-108983501D01*
X150990602Y-109129172D01*
X150990609Y-109129185D01*
X151078210Y-109260288D01*
X151078213Y-109260292D01*
X151119141Y-109301219D01*
X151152627Y-109362542D01*
X151153079Y-109413091D01*
X151149498Y-109431095D01*
X151149498Y-109588782D01*
X151180259Y-109743425D01*
X151180261Y-109743433D01*
X151199759Y-109790505D01*
X151207228Y-109859975D01*
X151188301Y-109906847D01*
X151174175Y-109927988D01*
X151174166Y-109928004D01*
X151113828Y-110073674D01*
X151113825Y-110073686D01*
X151083064Y-110228329D01*
X151083064Y-110386022D01*
X151111949Y-110531237D01*
X151105722Y-110600829D01*
X151093435Y-110624318D01*
X151032597Y-110715368D01*
X151032591Y-110715379D01*
X150972253Y-110861050D01*
X150972250Y-110861062D01*
X150941489Y-111015705D01*
X150941489Y-111173398D01*
X150972250Y-111328041D01*
X150972253Y-111328053D01*
X151032591Y-111473724D01*
X151032598Y-111473737D01*
X151120199Y-111604840D01*
X151120202Y-111604844D01*
X151231696Y-111716338D01*
X151231700Y-111716341D01*
X151362803Y-111803942D01*
X151362816Y-111803949D01*
X151508487Y-111864287D01*
X151508492Y-111864289D01*
X151621863Y-111886840D01*
X151663142Y-111895051D01*
X151663145Y-111895052D01*
X151663147Y-111895052D01*
X151820833Y-111895052D01*
X151820834Y-111895051D01*
X151975486Y-111864289D01*
X152097482Y-111813757D01*
X152121161Y-111803949D01*
X152121161Y-111803948D01*
X152121168Y-111803946D01*
X152252278Y-111716341D01*
X152363778Y-111604841D01*
X152451383Y-111473731D01*
X152456615Y-111461101D01*
X152498741Y-111359397D01*
X152511726Y-111328049D01*
X152542489Y-111173394D01*
X152542489Y-111015710D01*
X152542489Y-111015707D01*
X152513603Y-110870491D01*
X152519830Y-110800899D01*
X152532118Y-110777408D01*
X152550756Y-110749514D01*
X152592958Y-110686355D01*
X152653301Y-110540673D01*
X152684064Y-110386018D01*
X152684064Y-110228334D01*
X152684064Y-110228331D01*
X152684063Y-110228329D01*
X152674868Y-110182104D01*
X152653301Y-110073679D01*
X152633801Y-110026603D01*
X152626333Y-109957137D01*
X152645262Y-109910261D01*
X152659392Y-109889115D01*
X152719735Y-109743433D01*
X152750498Y-109588778D01*
X152750498Y-109431094D01*
X152750498Y-109431091D01*
X152750497Y-109431089D01*
X152735115Y-109353760D01*
X152719735Y-109276439D01*
X152708991Y-109250500D01*
X152659395Y-109130763D01*
X152659387Y-109130749D01*
X152658261Y-109129063D01*
X152657942Y-109128044D01*
X152656519Y-109125382D01*
X152657024Y-109125112D01*
X152637385Y-109062386D01*
X152655871Y-108995006D01*
X152707851Y-108948317D01*
X152718303Y-108943892D01*
X152727523Y-108940477D01*
X152768951Y-108932237D01*
X152914633Y-108871894D01*
X152917007Y-108870307D01*
X152926865Y-108866657D01*
X152953598Y-108864807D01*
X152979828Y-108859336D01*
X152991628Y-108862177D01*
X152996568Y-108861836D01*
X153001535Y-108864563D01*
X153017376Y-108868378D01*
X153101430Y-108903194D01*
X153247438Y-108932237D01*
X153256080Y-108933956D01*
X153256083Y-108933957D01*
X153256085Y-108933957D01*
X153413771Y-108933957D01*
X153413772Y-108933956D01*
X153568424Y-108903194D01*
X153714106Y-108842851D01*
X153845216Y-108755246D01*
X153956716Y-108643746D01*
X154044321Y-108512636D01*
X154071785Y-108446331D01*
X154115624Y-108391930D01*
X154181918Y-108369865D01*
X154249617Y-108387144D01*
X154274026Y-108406105D01*
X154289707Y-108421786D01*
X154289711Y-108421789D01*
X154420814Y-108509390D01*
X154420827Y-108509397D01*
X154566498Y-108569735D01*
X154566503Y-108569737D01*
X154721153Y-108600499D01*
X154721156Y-108600500D01*
X154721158Y-108600500D01*
X154878844Y-108600500D01*
X154878845Y-108600499D01*
X155033497Y-108569737D01*
X155176543Y-108510486D01*
X155179172Y-108509397D01*
X155179172Y-108509396D01*
X155179179Y-108509394D01*
X155310289Y-108421789D01*
X155360925Y-108371153D01*
X159499500Y-108371153D01*
X159499500Y-108528846D01*
X159530261Y-108683489D01*
X159530264Y-108683501D01*
X159590602Y-108829172D01*
X159590609Y-108829185D01*
X159678210Y-108960288D01*
X159678213Y-108960292D01*
X159789707Y-109071786D01*
X159789711Y-109071789D01*
X159920814Y-109159390D01*
X159920827Y-109159397D01*
X160066498Y-109219735D01*
X160066503Y-109219737D01*
X160188355Y-109243975D01*
X160221153Y-109250499D01*
X160221156Y-109250500D01*
X160221158Y-109250500D01*
X160378844Y-109250500D01*
X160378845Y-109250499D01*
X160533497Y-109219737D01*
X160646166Y-109173067D01*
X160679172Y-109159397D01*
X160679172Y-109159396D01*
X160679179Y-109159394D01*
X160810289Y-109071789D01*
X160921789Y-108960289D01*
X161009394Y-108829179D01*
X161069737Y-108683497D01*
X161100500Y-108528842D01*
X161100500Y-108371158D01*
X161100500Y-108371155D01*
X161100499Y-108371153D01*
X161097583Y-108356494D01*
X161069737Y-108216503D01*
X161066842Y-108209514D01*
X161009397Y-108070827D01*
X161009390Y-108070814D01*
X160921789Y-107939711D01*
X160921786Y-107939707D01*
X160810292Y-107828213D01*
X160810288Y-107828210D01*
X160679185Y-107740609D01*
X160679172Y-107740602D01*
X160533501Y-107680264D01*
X160533489Y-107680261D01*
X160378845Y-107649500D01*
X160378842Y-107649500D01*
X160221158Y-107649500D01*
X160221155Y-107649500D01*
X160066510Y-107680261D01*
X160066498Y-107680264D01*
X159920827Y-107740602D01*
X159920814Y-107740609D01*
X159789711Y-107828210D01*
X159789707Y-107828213D01*
X159678213Y-107939707D01*
X159678210Y-107939711D01*
X159590609Y-108070814D01*
X159590602Y-108070827D01*
X159530264Y-108216498D01*
X159530261Y-108216510D01*
X159499500Y-108371153D01*
X155360925Y-108371153D01*
X155421789Y-108310289D01*
X155489124Y-108209516D01*
X155509390Y-108179185D01*
X155509390Y-108179184D01*
X155509394Y-108179179D01*
X155569737Y-108033497D01*
X155600500Y-107878842D01*
X155600500Y-107721158D01*
X155600500Y-107721155D01*
X155600499Y-107721153D01*
X155570117Y-107568414D01*
X155569737Y-107566503D01*
X155553520Y-107527351D01*
X155509397Y-107420827D01*
X155509390Y-107420814D01*
X155421789Y-107289711D01*
X155421786Y-107289707D01*
X155310292Y-107178213D01*
X155310288Y-107178210D01*
X155179185Y-107090609D01*
X155179172Y-107090602D01*
X155033501Y-107030264D01*
X155033489Y-107030261D01*
X154878845Y-106999500D01*
X154878842Y-106999500D01*
X154721158Y-106999500D01*
X154721155Y-106999500D01*
X154566510Y-107030261D01*
X154566498Y-107030264D01*
X154420827Y-107090602D01*
X154420814Y-107090609D01*
X154289711Y-107178210D01*
X154289707Y-107178213D01*
X154178213Y-107289707D01*
X154178210Y-107289711D01*
X154090609Y-107420814D01*
X154090606Y-107420820D01*
X154063142Y-107487124D01*
X154019300Y-107541527D01*
X153953006Y-107563591D01*
X153885307Y-107546311D01*
X153860900Y-107527351D01*
X153845219Y-107511670D01*
X153845215Y-107511667D01*
X153714112Y-107424066D01*
X153714099Y-107424059D01*
X153568428Y-107363721D01*
X153568416Y-107363718D01*
X153413772Y-107332957D01*
X153413769Y-107332957D01*
X153256085Y-107332957D01*
X153256082Y-107332957D01*
X153101437Y-107363718D01*
X153101425Y-107363721D01*
X152950120Y-107426394D01*
X152949288Y-107424385D01*
X152890463Y-107436613D01*
X152853001Y-107427577D01*
X152768952Y-107392763D01*
X152768942Y-107392760D01*
X152614300Y-107362000D01*
X152608236Y-107361403D01*
X152608503Y-107358689D01*
X152552740Y-107342315D01*
X152516677Y-107306891D01*
X152471789Y-107239711D01*
X152471787Y-107239708D01*
X152360292Y-107128213D01*
X152360288Y-107128210D01*
X152229185Y-107040609D01*
X152229172Y-107040602D01*
X152083501Y-106980264D01*
X152083489Y-106980261D01*
X151928845Y-106949500D01*
X151928842Y-106949500D01*
X151771158Y-106949500D01*
X151771155Y-106949500D01*
X151616510Y-106980261D01*
X151616498Y-106980264D01*
X151470827Y-107040602D01*
X151470814Y-107040609D01*
X151339711Y-107128210D01*
X151339707Y-107128213D01*
X151228213Y-107239707D01*
X151228210Y-107239711D01*
X151140609Y-107370814D01*
X151140602Y-107370827D01*
X151080264Y-107516498D01*
X151080261Y-107516510D01*
X151049500Y-107671153D01*
X151049500Y-107828846D01*
X151080261Y-107983489D01*
X151080264Y-107983501D01*
X151122998Y-108086670D01*
X151130467Y-108156139D01*
X151099192Y-108218618D01*
X151096120Y-108221801D01*
X151078212Y-108239708D01*
X151078208Y-108239714D01*
X150990609Y-108370814D01*
X150990602Y-108370827D01*
X150930264Y-108516498D01*
X150930261Y-108516510D01*
X150899500Y-108671153D01*
X146372192Y-108671153D01*
X146378216Y-108640874D01*
X146378216Y-108640873D01*
X146400499Y-108528846D01*
X146400500Y-108528844D01*
X146400500Y-108371155D01*
X146400499Y-108371153D01*
X146397583Y-108356494D01*
X146369737Y-108216503D01*
X146366842Y-108209514D01*
X146309397Y-108070827D01*
X146309390Y-108070814D01*
X146221789Y-107939711D01*
X146221786Y-107939707D01*
X146110292Y-107828213D01*
X146110288Y-107828210D01*
X145979185Y-107740609D01*
X145979172Y-107740602D01*
X145833501Y-107680264D01*
X145833489Y-107680261D01*
X145678845Y-107649500D01*
X145678842Y-107649500D01*
X145521158Y-107649500D01*
X145521155Y-107649500D01*
X145366510Y-107680261D01*
X145366498Y-107680264D01*
X145220827Y-107740602D01*
X145220814Y-107740609D01*
X145089711Y-107828210D01*
X145089707Y-107828213D01*
X144978213Y-107939707D01*
X144978210Y-107939711D01*
X144890609Y-108070814D01*
X144890602Y-108070827D01*
X144830264Y-108216498D01*
X144830261Y-108216510D01*
X144799500Y-108371153D01*
X129037943Y-108371153D01*
X129044478Y-108356494D01*
X129053999Y-108328556D01*
X129059159Y-108323566D01*
X129060909Y-108319644D01*
X129073528Y-108309676D01*
X129087374Y-108296292D01*
X129093029Y-108292585D01*
X129107816Y-108285051D01*
X129145750Y-108257491D01*
X129279785Y-108160109D01*
X129279783Y-108160109D01*
X129279792Y-108160104D01*
X129430104Y-108009792D01*
X129430106Y-108009788D01*
X129430109Y-108009786D01*
X129555048Y-107837820D01*
X129555047Y-107837820D01*
X129555051Y-107837816D01*
X129651557Y-107648412D01*
X129717246Y-107446243D01*
X129750500Y-107236287D01*
X129750500Y-107023713D01*
X129717246Y-106813757D01*
X129651557Y-106611588D01*
X129555051Y-106422184D01*
X129555049Y-106422181D01*
X129555048Y-106422179D01*
X129430109Y-106250213D01*
X129279786Y-106099890D01*
X129107820Y-105974951D01*
X129107115Y-105974591D01*
X129099054Y-105970485D01*
X129095914Y-105967519D01*
X129091734Y-105966438D01*
X129070743Y-105943747D01*
X129048259Y-105922512D01*
X129047220Y-105918317D01*
X129044288Y-105915148D01*
X129038896Y-105884708D01*
X129031463Y-105854692D01*
X129032856Y-105850603D01*
X129032103Y-105846350D01*
X129044024Y-105817826D01*
X129051660Y-105795418D01*
X146075235Y-105795418D01*
X146075235Y-105953111D01*
X146105996Y-106107754D01*
X146105999Y-106107766D01*
X146166337Y-106253437D01*
X146166344Y-106253450D01*
X146253945Y-106384553D01*
X146253948Y-106384557D01*
X146365442Y-106496051D01*
X146365446Y-106496054D01*
X146496549Y-106583655D01*
X146496562Y-106583662D01*
X146642233Y-106644000D01*
X146642238Y-106644002D01*
X146781917Y-106671786D01*
X146796888Y-106674764D01*
X146796891Y-106674765D01*
X146796893Y-106674765D01*
X146954579Y-106674765D01*
X146954580Y-106674764D01*
X147109232Y-106644002D01*
X147211366Y-106601696D01*
X147280835Y-106594228D01*
X147343314Y-106625503D01*
X147346500Y-106628578D01*
X147389707Y-106671786D01*
X147389711Y-106671789D01*
X147520814Y-106759390D01*
X147520827Y-106759397D01*
X147651122Y-106813366D01*
X147666503Y-106819737D01*
X147821153Y-106850499D01*
X147821156Y-106850500D01*
X147821158Y-106850500D01*
X147978844Y-106850500D01*
X147978845Y-106850499D01*
X148133497Y-106819737D01*
X148259133Y-106767696D01*
X148328603Y-106760228D01*
X148391082Y-106791503D01*
X148409687Y-106813366D01*
X148419421Y-106827934D01*
X148419426Y-106827940D01*
X148530920Y-106939434D01*
X148530924Y-106939437D01*
X148662027Y-107027038D01*
X148662040Y-107027045D01*
X148785039Y-107077992D01*
X148807716Y-107087385D01*
X148929779Y-107111665D01*
X148962366Y-107118147D01*
X148962369Y-107118148D01*
X148962371Y-107118148D01*
X149120057Y-107118148D01*
X149190192Y-107104196D01*
X149245727Y-107093150D01*
X149315318Y-107099377D01*
X149338809Y-107111665D01*
X149446549Y-107183655D01*
X149446562Y-107183662D01*
X149592233Y-107244000D01*
X149592238Y-107244002D01*
X149746888Y-107274764D01*
X149746891Y-107274765D01*
X149746893Y-107274765D01*
X149904579Y-107274765D01*
X149904580Y-107274764D01*
X150059232Y-107244002D01*
X150204914Y-107183659D01*
X150336024Y-107096054D01*
X150447524Y-106984554D01*
X150535129Y-106853444D01*
X150536349Y-106850500D01*
X150584703Y-106733760D01*
X150595472Y-106707762D01*
X150626235Y-106553107D01*
X150626235Y-106395423D01*
X150626235Y-106395420D01*
X150626234Y-106395418D01*
X150615644Y-106342179D01*
X150595472Y-106240768D01*
X150595470Y-106240763D01*
X150535132Y-106095092D01*
X150535125Y-106095079D01*
X150447524Y-105963976D01*
X150447521Y-105963972D01*
X150336027Y-105852478D01*
X150336023Y-105852475D01*
X150204920Y-105764874D01*
X150204907Y-105764867D01*
X150059236Y-105704529D01*
X150059224Y-105704526D01*
X149904580Y-105673765D01*
X149904577Y-105673765D01*
X149746893Y-105673765D01*
X149746888Y-105673765D01*
X149621220Y-105698762D01*
X149551628Y-105692535D01*
X149528138Y-105680247D01*
X149420398Y-105608257D01*
X149420385Y-105608250D01*
X149274714Y-105547912D01*
X149274702Y-105547909D01*
X149120058Y-105517148D01*
X149120055Y-105517148D01*
X148962371Y-105517148D01*
X148962368Y-105517148D01*
X148807723Y-105547909D01*
X148807711Y-105547912D01*
X148682078Y-105599951D01*
X148612609Y-105607420D01*
X148550130Y-105576145D01*
X148531522Y-105554278D01*
X148521788Y-105539709D01*
X148410292Y-105428213D01*
X148410288Y-105428210D01*
X148279185Y-105340609D01*
X148279172Y-105340602D01*
X148133501Y-105280264D01*
X148133489Y-105280261D01*
X147978845Y-105249500D01*
X147978842Y-105249500D01*
X147821158Y-105249500D01*
X147821155Y-105249500D01*
X147666510Y-105280261D01*
X147666498Y-105280264D01*
X147564369Y-105322567D01*
X147494899Y-105330036D01*
X147432420Y-105298760D01*
X147429236Y-105295687D01*
X147386027Y-105252478D01*
X147386023Y-105252475D01*
X147254920Y-105164874D01*
X147254907Y-105164867D01*
X147109236Y-105104529D01*
X147109224Y-105104526D01*
X146954580Y-105073765D01*
X146954577Y-105073765D01*
X146796893Y-105073765D01*
X146796890Y-105073765D01*
X146642245Y-105104526D01*
X146642233Y-105104529D01*
X146496562Y-105164867D01*
X146496549Y-105164874D01*
X146365446Y-105252475D01*
X146365442Y-105252478D01*
X146253948Y-105363972D01*
X146253945Y-105363976D01*
X146166344Y-105495079D01*
X146166337Y-105495092D01*
X146105999Y-105640763D01*
X146105996Y-105640775D01*
X146075235Y-105795418D01*
X129051660Y-105795418D01*
X129053999Y-105788556D01*
X129057854Y-105784740D01*
X129059048Y-105781884D01*
X129068319Y-105774382D01*
X129084956Y-105757917D01*
X129091722Y-105753251D01*
X129107816Y-105745051D01*
X129279792Y-105620104D01*
X129430104Y-105469792D01*
X129430106Y-105469788D01*
X129430109Y-105469786D01*
X129555048Y-105297820D01*
X129555047Y-105297820D01*
X129555051Y-105297816D01*
X129651557Y-105108412D01*
X129717246Y-104906243D01*
X129750500Y-104696287D01*
X129750500Y-104483713D01*
X129730368Y-104356603D01*
X129726745Y-104333729D01*
X129724637Y-104320418D01*
X148650235Y-104320418D01*
X148650235Y-104478111D01*
X148680996Y-104632754D01*
X148680999Y-104632766D01*
X148741337Y-104778437D01*
X148741344Y-104778450D01*
X148828945Y-104909553D01*
X148828948Y-104909557D01*
X148940442Y-105021051D01*
X148940446Y-105021054D01*
X149071549Y-105108655D01*
X149071562Y-105108662D01*
X149158900Y-105144838D01*
X149217238Y-105169002D01*
X149371888Y-105199764D01*
X149371891Y-105199765D01*
X149371893Y-105199765D01*
X149529579Y-105199765D01*
X149529580Y-105199764D01*
X149684232Y-105169002D01*
X149829914Y-105108659D01*
X149961024Y-105021054D01*
X150072524Y-104909554D01*
X150160129Y-104778444D01*
X150220472Y-104632762D01*
X150251235Y-104478107D01*
X150251235Y-104356601D01*
X152062779Y-104356601D01*
X152062779Y-104514294D01*
X152093540Y-104668937D01*
X152093543Y-104668949D01*
X152153881Y-104814620D01*
X152153888Y-104814633D01*
X152241489Y-104945736D01*
X152241492Y-104945740D01*
X152352986Y-105057234D01*
X152352990Y-105057237D01*
X152484093Y-105144838D01*
X152484106Y-105144845D01*
X152616694Y-105199764D01*
X152629782Y-105205185D01*
X152784432Y-105235947D01*
X152784435Y-105235948D01*
X152784437Y-105235948D01*
X152942123Y-105235948D01*
X152942124Y-105235947D01*
X153096776Y-105205185D01*
X153242458Y-105144842D01*
X153373568Y-105057237D01*
X153485068Y-104945737D01*
X153572673Y-104814627D01*
X153633016Y-104668945D01*
X153663779Y-104514290D01*
X153663779Y-104356606D01*
X153663779Y-104356603D01*
X153663778Y-104356601D01*
X153633017Y-104201958D01*
X153633016Y-104201951D01*
X153629622Y-104193757D01*
X153572676Y-104056275D01*
X153572669Y-104056262D01*
X153485068Y-103925159D01*
X153485065Y-103925155D01*
X153373571Y-103813661D01*
X153373567Y-103813658D01*
X153242464Y-103726057D01*
X153242451Y-103726050D01*
X153096780Y-103665712D01*
X153096768Y-103665709D01*
X152942124Y-103634948D01*
X152942121Y-103634948D01*
X152784437Y-103634948D01*
X152784434Y-103634948D01*
X152629789Y-103665709D01*
X152629777Y-103665712D01*
X152484106Y-103726050D01*
X152484093Y-103726057D01*
X152352990Y-103813658D01*
X152352986Y-103813661D01*
X152241492Y-103925155D01*
X152241489Y-103925159D01*
X152153888Y-104056262D01*
X152153881Y-104056275D01*
X152093543Y-104201946D01*
X152093540Y-104201958D01*
X152062779Y-104356601D01*
X150251235Y-104356601D01*
X150251235Y-104320423D01*
X150251235Y-104320420D01*
X150251234Y-104320418D01*
X150241952Y-104273757D01*
X150220472Y-104165768D01*
X150181462Y-104071588D01*
X150160132Y-104020092D01*
X150160125Y-104020079D01*
X150072524Y-103888976D01*
X150072521Y-103888972D01*
X149961027Y-103777478D01*
X149961023Y-103777475D01*
X149829920Y-103689874D01*
X149829907Y-103689867D01*
X149684236Y-103629529D01*
X149684224Y-103629526D01*
X149529580Y-103598765D01*
X149529577Y-103598765D01*
X149371893Y-103598765D01*
X149371890Y-103598765D01*
X149217245Y-103629526D01*
X149217233Y-103629529D01*
X149071562Y-103689867D01*
X149071549Y-103689874D01*
X148940446Y-103777475D01*
X148940442Y-103777478D01*
X148828948Y-103888972D01*
X148828945Y-103888976D01*
X148741344Y-104020079D01*
X148741337Y-104020092D01*
X148680999Y-104165763D01*
X148680996Y-104165775D01*
X148650235Y-104320418D01*
X129724637Y-104320418D01*
X129717246Y-104273760D01*
X129717246Y-104273757D01*
X129651557Y-104071588D01*
X129555051Y-103882184D01*
X129555049Y-103882181D01*
X129555048Y-103882179D01*
X129430109Y-103710213D01*
X129279786Y-103559890D01*
X129107820Y-103434951D01*
X129107115Y-103434591D01*
X129099054Y-103430485D01*
X129048259Y-103382512D01*
X129031463Y-103314692D01*
X129053999Y-103248556D01*
X129099054Y-103209515D01*
X129107816Y-103205051D01*
X129145749Y-103177491D01*
X129279786Y-103080109D01*
X129279788Y-103080106D01*
X129279792Y-103080104D01*
X129430104Y-102929792D01*
X129436381Y-102921153D01*
X157199500Y-102921153D01*
X157199500Y-103078846D01*
X157230261Y-103233489D01*
X157230264Y-103233501D01*
X157290602Y-103379172D01*
X157290609Y-103379185D01*
X157378210Y-103510288D01*
X157378213Y-103510292D01*
X157489707Y-103621786D01*
X157489711Y-103621789D01*
X157620814Y-103709390D01*
X157620827Y-103709397D01*
X157766498Y-103769735D01*
X157766503Y-103769737D01*
X157921153Y-103800499D01*
X157921156Y-103800500D01*
X157921158Y-103800500D01*
X158078844Y-103800500D01*
X158078845Y-103800499D01*
X158233497Y-103769737D01*
X158379179Y-103709394D01*
X158510289Y-103621789D01*
X158621789Y-103510289D01*
X158709394Y-103379179D01*
X158719430Y-103354951D01*
X158731706Y-103325312D01*
X158769737Y-103233497D01*
X158800500Y-103078842D01*
X158800500Y-102921158D01*
X158800500Y-102921155D01*
X158800499Y-102921153D01*
X158769738Y-102766510D01*
X158769737Y-102766503D01*
X158769735Y-102766498D01*
X158709397Y-102620827D01*
X158709390Y-102620814D01*
X158621789Y-102489711D01*
X158621786Y-102489707D01*
X158510292Y-102378213D01*
X158510288Y-102378210D01*
X158379185Y-102290609D01*
X158379172Y-102290602D01*
X158233501Y-102230264D01*
X158233489Y-102230261D01*
X158078845Y-102199500D01*
X158078842Y-102199500D01*
X157921158Y-102199500D01*
X157921155Y-102199500D01*
X157766510Y-102230261D01*
X157766498Y-102230264D01*
X157620827Y-102290602D01*
X157620814Y-102290609D01*
X157489711Y-102378210D01*
X157489707Y-102378213D01*
X157378213Y-102489707D01*
X157378210Y-102489711D01*
X157290609Y-102620814D01*
X157290602Y-102620827D01*
X157230264Y-102766498D01*
X157230261Y-102766510D01*
X157199500Y-102921153D01*
X129436381Y-102921153D01*
X129488227Y-102849792D01*
X129493755Y-102842184D01*
X129493757Y-102842181D01*
X129548734Y-102766510D01*
X129555051Y-102757816D01*
X129651557Y-102568412D01*
X129717246Y-102366243D01*
X129750500Y-102156287D01*
X129750500Y-101943713D01*
X129717246Y-101733757D01*
X129651557Y-101531588D01*
X129555051Y-101342184D01*
X129555049Y-101342181D01*
X129555048Y-101342179D01*
X129430109Y-101170213D01*
X129279792Y-101019896D01*
X129279784Y-101019890D01*
X129143883Y-100921153D01*
X147149500Y-100921153D01*
X147149500Y-101078846D01*
X147180261Y-101233489D01*
X147180264Y-101233501D01*
X147240602Y-101379172D01*
X147240609Y-101379185D01*
X147328210Y-101510288D01*
X147328213Y-101510292D01*
X147439707Y-101621786D01*
X147439711Y-101621789D01*
X147570814Y-101709390D01*
X147570827Y-101709397D01*
X147716498Y-101769735D01*
X147716503Y-101769737D01*
X147871153Y-101800499D01*
X147871156Y-101800500D01*
X147871158Y-101800500D01*
X148028844Y-101800500D01*
X148028845Y-101800499D01*
X148183497Y-101769737D01*
X148329179Y-101709394D01*
X148460289Y-101621789D01*
X148571789Y-101510289D01*
X148659394Y-101379179D01*
X148719737Y-101233497D01*
X148750500Y-101078842D01*
X148750500Y-100921158D01*
X148750500Y-100921155D01*
X148750499Y-100921153D01*
X148745287Y-100894949D01*
X148719737Y-100766503D01*
X148686615Y-100686539D01*
X148659397Y-100620827D01*
X148659390Y-100620814D01*
X148571789Y-100489711D01*
X148571786Y-100489707D01*
X148460292Y-100378213D01*
X148460288Y-100378210D01*
X148329185Y-100290609D01*
X148329172Y-100290602D01*
X148183501Y-100230264D01*
X148183489Y-100230261D01*
X148028845Y-100199500D01*
X148028842Y-100199500D01*
X147871158Y-100199500D01*
X147871155Y-100199500D01*
X147716510Y-100230261D01*
X147716498Y-100230264D01*
X147570827Y-100290602D01*
X147570814Y-100290609D01*
X147439711Y-100378210D01*
X147439707Y-100378213D01*
X147328213Y-100489707D01*
X147328210Y-100489711D01*
X147240609Y-100620814D01*
X147240602Y-100620827D01*
X147180264Y-100766498D01*
X147180261Y-100766510D01*
X147149500Y-100921153D01*
X129143883Y-100921153D01*
X129107816Y-100894949D01*
X129091087Y-100886425D01*
X129083784Y-100881264D01*
X129067419Y-100860607D01*
X129048259Y-100842512D01*
X129046064Y-100833652D01*
X129040397Y-100826498D01*
X129037798Y-100800272D01*
X129031463Y-100774692D01*
X129034407Y-100766052D01*
X129033507Y-100756969D01*
X129045498Y-100733502D01*
X129053999Y-100708556D01*
X129061621Y-100701951D01*
X129065300Y-100694752D01*
X129079407Y-100686539D01*
X129099054Y-100669515D01*
X129107816Y-100665051D01*
X129145749Y-100637491D01*
X129279786Y-100540109D01*
X129279788Y-100540106D01*
X129279792Y-100540104D01*
X129430104Y-100389792D01*
X129430106Y-100389788D01*
X129430109Y-100389786D01*
X129555048Y-100217820D01*
X129555047Y-100217820D01*
X129555051Y-100217816D01*
X129651557Y-100028412D01*
X129717246Y-99826243D01*
X129750500Y-99616287D01*
X129750500Y-99403713D01*
X129717246Y-99193757D01*
X129693655Y-99121153D01*
X157641893Y-99121153D01*
X157641893Y-99278846D01*
X157672654Y-99433489D01*
X157672657Y-99433501D01*
X157732995Y-99579172D01*
X157733002Y-99579185D01*
X157820603Y-99710288D01*
X157820606Y-99710292D01*
X157932100Y-99821786D01*
X157932104Y-99821789D01*
X158063207Y-99909390D01*
X158063220Y-99909397D01*
X158157417Y-99948414D01*
X158208896Y-99969737D01*
X158363546Y-100000499D01*
X158363549Y-100000500D01*
X158363551Y-100000500D01*
X158521237Y-100000500D01*
X158521238Y-100000499D01*
X158675890Y-99969737D01*
X158821572Y-99909394D01*
X158952682Y-99821789D01*
X159064182Y-99710289D01*
X159151787Y-99579179D01*
X159212130Y-99433497D01*
X159242893Y-99278842D01*
X159242893Y-99121158D01*
X159242893Y-99121155D01*
X159242892Y-99121153D01*
X159227875Y-99045657D01*
X159212130Y-98966503D01*
X159189384Y-98911588D01*
X159151790Y-98820827D01*
X159151783Y-98820814D01*
X159064182Y-98689711D01*
X159064179Y-98689707D01*
X158952685Y-98578213D01*
X158952681Y-98578210D01*
X158821578Y-98490609D01*
X158821565Y-98490602D01*
X158675894Y-98430264D01*
X158675882Y-98430261D01*
X158521238Y-98399500D01*
X158521235Y-98399500D01*
X158363551Y-98399500D01*
X158363548Y-98399500D01*
X158208903Y-98430261D01*
X158208891Y-98430264D01*
X158063220Y-98490602D01*
X158063207Y-98490609D01*
X157932104Y-98578210D01*
X157932100Y-98578213D01*
X157820606Y-98689707D01*
X157820603Y-98689711D01*
X157733002Y-98820814D01*
X157732995Y-98820827D01*
X157672657Y-98966498D01*
X157672654Y-98966510D01*
X157641893Y-99121153D01*
X129693655Y-99121153D01*
X129651557Y-98991588D01*
X129651555Y-98991585D01*
X129651555Y-98991583D01*
X129555048Y-98802179D01*
X129430109Y-98630213D01*
X129279786Y-98479890D01*
X129107820Y-98354951D01*
X129107115Y-98354591D01*
X129099054Y-98350485D01*
X129048259Y-98302512D01*
X129031463Y-98234692D01*
X129053999Y-98168556D01*
X129099054Y-98129515D01*
X129107816Y-98125051D01*
X129145749Y-98097491D01*
X129279786Y-98000109D01*
X129279788Y-98000106D01*
X129279792Y-98000104D01*
X129430104Y-97849792D01*
X129430106Y-97849788D01*
X129430109Y-97849786D01*
X129550921Y-97683501D01*
X129555051Y-97677816D01*
X129651557Y-97488412D01*
X129689657Y-97371153D01*
X161699500Y-97371153D01*
X161699500Y-97528846D01*
X161730261Y-97683489D01*
X161730264Y-97683501D01*
X161790602Y-97829172D01*
X161790609Y-97829185D01*
X161878210Y-97960288D01*
X161878213Y-97960292D01*
X161989707Y-98071786D01*
X161989711Y-98071789D01*
X162120814Y-98159390D01*
X162120827Y-98159397D01*
X162266498Y-98219735D01*
X162266503Y-98219737D01*
X162421153Y-98250499D01*
X162421156Y-98250500D01*
X162421158Y-98250500D01*
X162578844Y-98250500D01*
X162578845Y-98250499D01*
X162733497Y-98219737D01*
X162879179Y-98159394D01*
X162888490Y-98153172D01*
X162955164Y-98132292D01*
X163004835Y-98141710D01*
X163064734Y-98166522D01*
X163219384Y-98197284D01*
X163219387Y-98197285D01*
X163219389Y-98197285D01*
X163377075Y-98197285D01*
X163377076Y-98197284D01*
X163531728Y-98166522D01*
X163677410Y-98106179D01*
X163808520Y-98018574D01*
X163920020Y-97907074D01*
X164007625Y-97775964D01*
X164067968Y-97630282D01*
X164098731Y-97475627D01*
X164098731Y-97317943D01*
X164098731Y-97317940D01*
X164098730Y-97317938D01*
X164082436Y-97236024D01*
X164067968Y-97163288D01*
X164062940Y-97151150D01*
X164007628Y-97017612D01*
X164007621Y-97017599D01*
X163920020Y-96886496D01*
X163920017Y-96886492D01*
X163808523Y-96774998D01*
X163808519Y-96774995D01*
X163677416Y-96687394D01*
X163677403Y-96687387D01*
X163531732Y-96627049D01*
X163531720Y-96627046D01*
X163377076Y-96596285D01*
X163377073Y-96596285D01*
X163219389Y-96596285D01*
X163219386Y-96596285D01*
X163064741Y-96627046D01*
X163064729Y-96627049D01*
X162919059Y-96687387D01*
X162919043Y-96687396D01*
X162909731Y-96693618D01*
X162843053Y-96714492D01*
X162793394Y-96705073D01*
X162733497Y-96680263D01*
X162733489Y-96680261D01*
X162578845Y-96649500D01*
X162578842Y-96649500D01*
X162421158Y-96649500D01*
X162421155Y-96649500D01*
X162266510Y-96680261D01*
X162266498Y-96680264D01*
X162120827Y-96740602D01*
X162120814Y-96740609D01*
X161989711Y-96828210D01*
X161989707Y-96828213D01*
X161878213Y-96939707D01*
X161878210Y-96939711D01*
X161790609Y-97070814D01*
X161790602Y-97070827D01*
X161730264Y-97216498D01*
X161730261Y-97216510D01*
X161699500Y-97371153D01*
X129689657Y-97371153D01*
X129717246Y-97286243D01*
X129750500Y-97076287D01*
X129750500Y-96863713D01*
X129717246Y-96653757D01*
X129651557Y-96451588D01*
X129555051Y-96262184D01*
X129555049Y-96262181D01*
X129555048Y-96262179D01*
X129430109Y-96090213D01*
X129279786Y-95939890D01*
X129107820Y-95814951D01*
X129107115Y-95814591D01*
X129099054Y-95810485D01*
X129048259Y-95762512D01*
X129031463Y-95694692D01*
X129053999Y-95628556D01*
X129099054Y-95589515D01*
X129107816Y-95585051D01*
X129145749Y-95557491D01*
X129279786Y-95460109D01*
X129279788Y-95460106D01*
X129279792Y-95460104D01*
X129430104Y-95309792D01*
X129430106Y-95309788D01*
X129430109Y-95309786D01*
X129555048Y-95137820D01*
X129555047Y-95137820D01*
X129555051Y-95137816D01*
X129651557Y-94948412D01*
X129717246Y-94746243D01*
X129750500Y-94536287D01*
X129750500Y-94323713D01*
X129717246Y-94113757D01*
X129651557Y-93911588D01*
X129555051Y-93722184D01*
X129555049Y-93722181D01*
X129555048Y-93722179D01*
X129430109Y-93550213D01*
X129279786Y-93399890D01*
X129107820Y-93274951D01*
X129107115Y-93274591D01*
X129099054Y-93270485D01*
X129095300Y-93266938D01*
X129090318Y-93265579D01*
X129070161Y-93243197D01*
X129048259Y-93222512D01*
X129047017Y-93217497D01*
X129043561Y-93213660D01*
X129038704Y-93183932D01*
X129031463Y-93154692D01*
X129033128Y-93149802D01*
X129032296Y-93144704D01*
X129042512Y-93121153D01*
X160399500Y-93121153D01*
X160399500Y-93278846D01*
X160430261Y-93433489D01*
X160430264Y-93433501D01*
X160490602Y-93579172D01*
X160490609Y-93579185D01*
X160578210Y-93710288D01*
X160578213Y-93710292D01*
X160689707Y-93821786D01*
X160689711Y-93821789D01*
X160820814Y-93909390D01*
X160820827Y-93909397D01*
X160956653Y-93965657D01*
X160966503Y-93969737D01*
X161121153Y-94000499D01*
X161121156Y-94000500D01*
X161121158Y-94000500D01*
X161278844Y-94000500D01*
X161278845Y-94000499D01*
X161433497Y-93969737D01*
X161573882Y-93911588D01*
X161579172Y-93909397D01*
X161579172Y-93909396D01*
X161579179Y-93909394D01*
X161710289Y-93821789D01*
X161821789Y-93710289D01*
X161829145Y-93699279D01*
X161846898Y-93672712D01*
X161900510Y-93627906D01*
X161969835Y-93619199D01*
X162032862Y-93649353D01*
X162053102Y-93672712D01*
X162078207Y-93710284D01*
X162078213Y-93710292D01*
X162189707Y-93821786D01*
X162189711Y-93821789D01*
X162320814Y-93909390D01*
X162320827Y-93909397D01*
X162456653Y-93965657D01*
X162466503Y-93969737D01*
X162621153Y-94000499D01*
X162621156Y-94000500D01*
X162621158Y-94000500D01*
X162778844Y-94000500D01*
X162778845Y-94000499D01*
X162933497Y-93969737D01*
X163073882Y-93911588D01*
X163079172Y-93909397D01*
X163079172Y-93909396D01*
X163079179Y-93909394D01*
X163210289Y-93821789D01*
X163321789Y-93710289D01*
X163409394Y-93579179D01*
X163469737Y-93433497D01*
X163500500Y-93278842D01*
X163500500Y-93121158D01*
X163500500Y-93121155D01*
X163500499Y-93121153D01*
X163490661Y-93071693D01*
X163469737Y-92966503D01*
X163450520Y-92920109D01*
X163409397Y-92820827D01*
X163409390Y-92820814D01*
X163321789Y-92689711D01*
X163321786Y-92689707D01*
X163210292Y-92578213D01*
X163210288Y-92578210D01*
X163079185Y-92490609D01*
X163079172Y-92490602D01*
X162933501Y-92430264D01*
X162933489Y-92430261D01*
X162778845Y-92399500D01*
X162778842Y-92399500D01*
X162621158Y-92399500D01*
X162621155Y-92399500D01*
X162466510Y-92430261D01*
X162466498Y-92430264D01*
X162320827Y-92490602D01*
X162320814Y-92490609D01*
X162189711Y-92578210D01*
X162189707Y-92578213D01*
X162078213Y-92689707D01*
X162053102Y-92727289D01*
X161999489Y-92772093D01*
X161930164Y-92780800D01*
X161867137Y-92750645D01*
X161846898Y-92727289D01*
X161821786Y-92689707D01*
X161710292Y-92578213D01*
X161710288Y-92578210D01*
X161579185Y-92490609D01*
X161579172Y-92490602D01*
X161433501Y-92430264D01*
X161433489Y-92430261D01*
X161278845Y-92399500D01*
X161278842Y-92399500D01*
X161121158Y-92399500D01*
X161121155Y-92399500D01*
X160966510Y-92430261D01*
X160966498Y-92430264D01*
X160820827Y-92490602D01*
X160820814Y-92490609D01*
X160689711Y-92578210D01*
X160689707Y-92578213D01*
X160578213Y-92689707D01*
X160578210Y-92689711D01*
X160490609Y-92820814D01*
X160490602Y-92820827D01*
X160430264Y-92966498D01*
X160430261Y-92966510D01*
X160399500Y-93121153D01*
X129042512Y-93121153D01*
X129044283Y-93117069D01*
X129053999Y-93088556D01*
X129058600Y-93084062D01*
X129060100Y-93080605D01*
X129071265Y-93071693D01*
X129086326Y-93056986D01*
X129092464Y-93052872D01*
X129107816Y-93045051D01*
X129151431Y-93013362D01*
X129151443Y-93013355D01*
X129279785Y-92920109D01*
X129279783Y-92920109D01*
X129279792Y-92920104D01*
X129430104Y-92769792D01*
X129430106Y-92769788D01*
X129430109Y-92769786D01*
X129555048Y-92597820D01*
X129555047Y-92597820D01*
X129555051Y-92597816D01*
X129651557Y-92408412D01*
X129717246Y-92206243D01*
X129750500Y-91996287D01*
X129750500Y-91783713D01*
X129717246Y-91573757D01*
X129651557Y-91371588D01*
X129555051Y-91182184D01*
X129555049Y-91182181D01*
X129555048Y-91182179D01*
X129430109Y-91010213D01*
X129279786Y-90859890D01*
X129107820Y-90734951D01*
X129107115Y-90734591D01*
X129099054Y-90730485D01*
X129048259Y-90682512D01*
X129031463Y-90614692D01*
X129053999Y-90548556D01*
X129099054Y-90509515D01*
X129107816Y-90505051D01*
X129145749Y-90477491D01*
X129279786Y-90380109D01*
X129279788Y-90380106D01*
X129279792Y-90380104D01*
X129430104Y-90229792D01*
X129430106Y-90229788D01*
X129430109Y-90229786D01*
X129555048Y-90057820D01*
X129555047Y-90057820D01*
X129555051Y-90057816D01*
X129651557Y-89868412D01*
X129717246Y-89666243D01*
X129750500Y-89456287D01*
X129750500Y-89243713D01*
X129717246Y-89033757D01*
X129651557Y-88831588D01*
X129555051Y-88642184D01*
X129555049Y-88642181D01*
X129555048Y-88642179D01*
X129430109Y-88470213D01*
X129279786Y-88319890D01*
X129107820Y-88194951D01*
X129107115Y-88194591D01*
X129099054Y-88190485D01*
X129048259Y-88142512D01*
X129031463Y-88074692D01*
X129053999Y-88008556D01*
X129099054Y-87969515D01*
X129107816Y-87965051D01*
X129145749Y-87937491D01*
X129279786Y-87840109D01*
X129279788Y-87840106D01*
X129279792Y-87840104D01*
X129430104Y-87689792D01*
X129430106Y-87689788D01*
X129430109Y-87689786D01*
X129555048Y-87517820D01*
X129555047Y-87517820D01*
X129555051Y-87517816D01*
X129651557Y-87328412D01*
X129717246Y-87126243D01*
X129750500Y-86916287D01*
X129750500Y-86703713D01*
X129717246Y-86493757D01*
X129651557Y-86291588D01*
X129555051Y-86102184D01*
X129555049Y-86102181D01*
X129555048Y-86102179D01*
X129430109Y-85930213D01*
X129279786Y-85779890D01*
X129107817Y-85654949D01*
X129098504Y-85650204D01*
X129047707Y-85602230D01*
X129030912Y-85534409D01*
X129053449Y-85468274D01*
X129098507Y-85429232D01*
X129107558Y-85424620D01*
X129279459Y-85299727D01*
X129279464Y-85299723D01*
X129429723Y-85149464D01*
X129429727Y-85149459D01*
X129554620Y-84977557D01*
X129651095Y-84788217D01*
X129716757Y-84586129D01*
X129716757Y-84586126D01*
X129727231Y-84520000D01*
X128833012Y-84520000D01*
X128865925Y-84462993D01*
X128900000Y-84335826D01*
X128900000Y-84204174D01*
X128865925Y-84077007D01*
X128833012Y-84020000D01*
X129727231Y-84020000D01*
X129716757Y-83953873D01*
X129716757Y-83953870D01*
X129667862Y-83803384D01*
X129657389Y-83771153D01*
X135099500Y-83771153D01*
X135099500Y-83928846D01*
X135130261Y-84083489D01*
X135130264Y-84083501D01*
X135190602Y-84229172D01*
X135190609Y-84229185D01*
X135278210Y-84360288D01*
X135278213Y-84360292D01*
X135389707Y-84471786D01*
X135389711Y-84471789D01*
X135520814Y-84559390D01*
X135520827Y-84559397D01*
X135666498Y-84619735D01*
X135666503Y-84619737D01*
X135821153Y-84650499D01*
X135821156Y-84650500D01*
X135821158Y-84650500D01*
X135978844Y-84650500D01*
X135978845Y-84650499D01*
X136133497Y-84619737D01*
X136279179Y-84559394D01*
X136410289Y-84471789D01*
X136521789Y-84360289D01*
X136609394Y-84229179D01*
X136669737Y-84083497D01*
X136700500Y-83928842D01*
X136700500Y-83771158D01*
X136700500Y-83771155D01*
X136700499Y-83771153D01*
X136696646Y-83751782D01*
X136669737Y-83616503D01*
X136668084Y-83612512D01*
X136650953Y-83571153D01*
X148199500Y-83571153D01*
X148199500Y-83728846D01*
X148230261Y-83883489D01*
X148230264Y-83883501D01*
X148290602Y-84029172D01*
X148290609Y-84029185D01*
X148378210Y-84160288D01*
X148378213Y-84160292D01*
X148489707Y-84271786D01*
X148489711Y-84271789D01*
X148620814Y-84359390D01*
X148620827Y-84359397D01*
X148766498Y-84419735D01*
X148766503Y-84419737D01*
X148916302Y-84449534D01*
X148921153Y-84450499D01*
X148921156Y-84450500D01*
X148921158Y-84450500D01*
X149078844Y-84450500D01*
X149078845Y-84450499D01*
X149233497Y-84419737D01*
X149379179Y-84359394D01*
X149510289Y-84271789D01*
X149621789Y-84160289D01*
X149709394Y-84029179D01*
X149769737Y-83883497D01*
X149782138Y-83821153D01*
X152999500Y-83821153D01*
X152999500Y-83978846D01*
X153030261Y-84133489D01*
X153030264Y-84133501D01*
X153090602Y-84279172D01*
X153090609Y-84279185D01*
X153178210Y-84410288D01*
X153178213Y-84410292D01*
X153289707Y-84521786D01*
X153289711Y-84521789D01*
X153420814Y-84609390D01*
X153420827Y-84609397D01*
X153566498Y-84669735D01*
X153566503Y-84669737D01*
X153721153Y-84700499D01*
X153721156Y-84700500D01*
X153721158Y-84700500D01*
X153878844Y-84700500D01*
X153878845Y-84700499D01*
X154033497Y-84669737D01*
X154179179Y-84609394D01*
X154310289Y-84521789D01*
X154421789Y-84410289D01*
X154509394Y-84279179D01*
X154569737Y-84133497D01*
X154600500Y-83978842D01*
X154600500Y-83821158D01*
X154600500Y-83821155D01*
X154600499Y-83821153D01*
X154597102Y-83804075D01*
X154569737Y-83666503D01*
X154569735Y-83666498D01*
X154509397Y-83520827D01*
X154509390Y-83520814D01*
X154421789Y-83389711D01*
X154421786Y-83389707D01*
X154310292Y-83278213D01*
X154310288Y-83278210D01*
X154220429Y-83218168D01*
X154179185Y-83190609D01*
X154179172Y-83190602D01*
X154033501Y-83130264D01*
X154033489Y-83130261D01*
X153987701Y-83121153D01*
X165549500Y-83121153D01*
X165549500Y-83278846D01*
X165580261Y-83433489D01*
X165580264Y-83433501D01*
X165640602Y-83579172D01*
X165640609Y-83579185D01*
X165728210Y-83710288D01*
X165728213Y-83710292D01*
X165839707Y-83821786D01*
X165839711Y-83821789D01*
X165970814Y-83909390D01*
X165970827Y-83909397D01*
X166100221Y-83962993D01*
X166116503Y-83969737D01*
X166253598Y-83997007D01*
X166271153Y-84000499D01*
X166271156Y-84000500D01*
X166271158Y-84000500D01*
X166428844Y-84000500D01*
X166428845Y-84000499D01*
X166583497Y-83969737D01*
X166729179Y-83909394D01*
X166786411Y-83871153D01*
X170249500Y-83871153D01*
X170249500Y-84028846D01*
X170280261Y-84183489D01*
X170280264Y-84183501D01*
X170340602Y-84329172D01*
X170340609Y-84329185D01*
X170428210Y-84460288D01*
X170428213Y-84460292D01*
X170539707Y-84571786D01*
X170539711Y-84571789D01*
X170670814Y-84659390D01*
X170670827Y-84659397D01*
X170770060Y-84700500D01*
X170816503Y-84719737D01*
X170971153Y-84750499D01*
X170971156Y-84750500D01*
X170971158Y-84750500D01*
X171128844Y-84750500D01*
X171128845Y-84750499D01*
X171283497Y-84719737D01*
X171429179Y-84659394D01*
X171560289Y-84571789D01*
X171671789Y-84460289D01*
X171759394Y-84329179D01*
X171819737Y-84183497D01*
X171850500Y-84028842D01*
X171850500Y-83871158D01*
X171850500Y-83871155D01*
X171850499Y-83871153D01*
X171837019Y-83803384D01*
X171819737Y-83716503D01*
X171801213Y-83671782D01*
X171759397Y-83570827D01*
X171759390Y-83570814D01*
X171671789Y-83439711D01*
X171671786Y-83439707D01*
X171560292Y-83328213D01*
X171560288Y-83328210D01*
X171429185Y-83240609D01*
X171429172Y-83240602D01*
X171283501Y-83180264D01*
X171283489Y-83180261D01*
X171128845Y-83149500D01*
X171128842Y-83149500D01*
X170971158Y-83149500D01*
X170971155Y-83149500D01*
X170816510Y-83180261D01*
X170816498Y-83180264D01*
X170670827Y-83240602D01*
X170670814Y-83240609D01*
X170539711Y-83328210D01*
X170539707Y-83328213D01*
X170428213Y-83439707D01*
X170428210Y-83439711D01*
X170340609Y-83570814D01*
X170340602Y-83570827D01*
X170280264Y-83716498D01*
X170280261Y-83716510D01*
X170249500Y-83871153D01*
X166786411Y-83871153D01*
X166860289Y-83821789D01*
X166878694Y-83803384D01*
X166904694Y-83777385D01*
X166971786Y-83710292D01*
X166971789Y-83710289D01*
X167059394Y-83579179D01*
X167062719Y-83571153D01*
X167099463Y-83482442D01*
X167119737Y-83433497D01*
X167150500Y-83278842D01*
X167150500Y-83121158D01*
X167150500Y-83121155D01*
X167150499Y-83121153D01*
X167132012Y-83028213D01*
X167119737Y-82966503D01*
X167109906Y-82942768D01*
X167059397Y-82820827D01*
X167059390Y-82820814D01*
X166971789Y-82689711D01*
X166971786Y-82689707D01*
X166860292Y-82578213D01*
X166860288Y-82578210D01*
X166729185Y-82490609D01*
X166729172Y-82490602D01*
X166583501Y-82430264D01*
X166583489Y-82430261D01*
X166428845Y-82399500D01*
X166428842Y-82399500D01*
X166271158Y-82399500D01*
X166271155Y-82399500D01*
X166116510Y-82430261D01*
X166116498Y-82430264D01*
X165970827Y-82490602D01*
X165970814Y-82490609D01*
X165839711Y-82578210D01*
X165839707Y-82578213D01*
X165728213Y-82689707D01*
X165728210Y-82689711D01*
X165640609Y-82820814D01*
X165640602Y-82820827D01*
X165580264Y-82966498D01*
X165580261Y-82966510D01*
X165549500Y-83121153D01*
X153987701Y-83121153D01*
X153878845Y-83099500D01*
X153878842Y-83099500D01*
X153721158Y-83099500D01*
X153721155Y-83099500D01*
X153566510Y-83130261D01*
X153566498Y-83130264D01*
X153420827Y-83190602D01*
X153420814Y-83190609D01*
X153289711Y-83278210D01*
X153289707Y-83278213D01*
X153178213Y-83389707D01*
X153178210Y-83389711D01*
X153090609Y-83520814D01*
X153090602Y-83520827D01*
X153030264Y-83666498D01*
X153030261Y-83666510D01*
X152999500Y-83821153D01*
X149782138Y-83821153D01*
X149792083Y-83771158D01*
X149800500Y-83728844D01*
X149800500Y-83571155D01*
X149800499Y-83571153D01*
X149780543Y-83470827D01*
X149769737Y-83416503D01*
X149758981Y-83390535D01*
X149709397Y-83270827D01*
X149709390Y-83270814D01*
X149621789Y-83139711D01*
X149621786Y-83139707D01*
X149510292Y-83028213D01*
X149510288Y-83028210D01*
X149379185Y-82940609D01*
X149379172Y-82940602D01*
X149233501Y-82880264D01*
X149233489Y-82880261D01*
X149078845Y-82849500D01*
X149078842Y-82849500D01*
X148921158Y-82849500D01*
X148921155Y-82849500D01*
X148766510Y-82880261D01*
X148766498Y-82880264D01*
X148620827Y-82940602D01*
X148620814Y-82940609D01*
X148489711Y-83028210D01*
X148489707Y-83028213D01*
X148378213Y-83139707D01*
X148378210Y-83139711D01*
X148290609Y-83270814D01*
X148290602Y-83270827D01*
X148230264Y-83416498D01*
X148230261Y-83416510D01*
X148199500Y-83571153D01*
X136650953Y-83571153D01*
X136609397Y-83470827D01*
X136609390Y-83470814D01*
X136521789Y-83339711D01*
X136521786Y-83339707D01*
X136410292Y-83228213D01*
X136410288Y-83228210D01*
X136279185Y-83140609D01*
X136279172Y-83140602D01*
X136133501Y-83080264D01*
X136133489Y-83080261D01*
X135978845Y-83049500D01*
X135978842Y-83049500D01*
X135821158Y-83049500D01*
X135821155Y-83049500D01*
X135666510Y-83080261D01*
X135666498Y-83080264D01*
X135520827Y-83140602D01*
X135520814Y-83140609D01*
X135389711Y-83228210D01*
X135389707Y-83228213D01*
X135278213Y-83339707D01*
X135278210Y-83339711D01*
X135190609Y-83470814D01*
X135190602Y-83470827D01*
X135130264Y-83616498D01*
X135130261Y-83616510D01*
X135099500Y-83771153D01*
X129657389Y-83771153D01*
X129651095Y-83751783D01*
X129554620Y-83562442D01*
X129429727Y-83390540D01*
X129429723Y-83390535D01*
X129279464Y-83240276D01*
X129279459Y-83240272D01*
X129107557Y-83115379D01*
X128918215Y-83018903D01*
X128716124Y-82953241D01*
X128650000Y-82942768D01*
X128650000Y-83836988D01*
X128592993Y-83804075D01*
X128465826Y-83770000D01*
X128334174Y-83770000D01*
X128207007Y-83804075D01*
X128150000Y-83836988D01*
X128150000Y-82942768D01*
X128149999Y-82942768D01*
X128083875Y-82953241D01*
X127881784Y-83018903D01*
X127692442Y-83115379D01*
X127520540Y-83240272D01*
X127520535Y-83240276D01*
X127370276Y-83390535D01*
X127370272Y-83390540D01*
X127245379Y-83562442D01*
X127148904Y-83751782D01*
X127083242Y-83953870D01*
X127083242Y-83953873D01*
X127072769Y-84020000D01*
X127966988Y-84020000D01*
X127934075Y-84077007D01*
X127900000Y-84204174D01*
X127900000Y-84335826D01*
X127934075Y-84462993D01*
X127966988Y-84520000D01*
X127072769Y-84520000D01*
X127083242Y-84586126D01*
X127083242Y-84586129D01*
X127148904Y-84788217D01*
X127245379Y-84977557D01*
X127370272Y-85149459D01*
X127370276Y-85149464D01*
X127520535Y-85299723D01*
X127520540Y-85299727D01*
X127692444Y-85424622D01*
X127701495Y-85429234D01*
X127752292Y-85477208D01*
X127769087Y-85545029D01*
X127746550Y-85611164D01*
X127701499Y-85650202D01*
X127692182Y-85654949D01*
X127520213Y-85779890D01*
X127369890Y-85930213D01*
X127244951Y-86102179D01*
X127148444Y-86291585D01*
X127082753Y-86493760D01*
X127049500Y-86703713D01*
X126400500Y-86703713D01*
X126400500Y-82221153D01*
X131499500Y-82221153D01*
X131499500Y-82378846D01*
X131530261Y-82533489D01*
X131530264Y-82533501D01*
X131590602Y-82679172D01*
X131590609Y-82679185D01*
X131678210Y-82810288D01*
X131678213Y-82810292D01*
X131789707Y-82921786D01*
X131789711Y-82921789D01*
X131920814Y-83009390D01*
X131920827Y-83009397D01*
X132017646Y-83049500D01*
X132066503Y-83069737D01*
X132216131Y-83099500D01*
X132221153Y-83100499D01*
X132221156Y-83100500D01*
X132221158Y-83100500D01*
X132378844Y-83100500D01*
X132378845Y-83100499D01*
X132533497Y-83069737D01*
X132679179Y-83009394D01*
X132810289Y-82921789D01*
X132921789Y-82810289D01*
X133009394Y-82679179D01*
X133069737Y-82533497D01*
X133100500Y-82378842D01*
X133100500Y-82221158D01*
X133100500Y-82221155D01*
X133100499Y-82221153D01*
X133069738Y-82066510D01*
X133069737Y-82066503D01*
X133069735Y-82066498D01*
X133009397Y-81920827D01*
X133009390Y-81920814D01*
X132921789Y-81789711D01*
X132921786Y-81789707D01*
X132810292Y-81678213D01*
X132810288Y-81678210D01*
X132679185Y-81590609D01*
X132679172Y-81590602D01*
X132533501Y-81530264D01*
X132533489Y-81530261D01*
X132378845Y-81499500D01*
X132378842Y-81499500D01*
X132221158Y-81499500D01*
X132221155Y-81499500D01*
X132066510Y-81530261D01*
X132066498Y-81530264D01*
X131920827Y-81590602D01*
X131920814Y-81590609D01*
X131789711Y-81678210D01*
X131789707Y-81678213D01*
X131678213Y-81789707D01*
X131678210Y-81789711D01*
X131590609Y-81920814D01*
X131590602Y-81920827D01*
X131530264Y-82066498D01*
X131530261Y-82066510D01*
X131499500Y-82221153D01*
X126400500Y-82221153D01*
X126400500Y-65071153D01*
X129949500Y-65071153D01*
X129949500Y-65228846D01*
X129980261Y-65383489D01*
X129980264Y-65383501D01*
X130040602Y-65529172D01*
X130040609Y-65529185D01*
X130128210Y-65660288D01*
X130128213Y-65660292D01*
X130239707Y-65771786D01*
X130239711Y-65771789D01*
X130370814Y-65859390D01*
X130370827Y-65859397D01*
X130516498Y-65919735D01*
X130516503Y-65919737D01*
X130671153Y-65950499D01*
X130671156Y-65950500D01*
X130671158Y-65950500D01*
X130828844Y-65950500D01*
X130828845Y-65950499D01*
X130983497Y-65919737D01*
X131129179Y-65859394D01*
X131260289Y-65771789D01*
X131371789Y-65660289D01*
X131459394Y-65529179D01*
X131519737Y-65383497D01*
X131550500Y-65228842D01*
X131550500Y-65071158D01*
X131550500Y-65071155D01*
X131550499Y-65071153D01*
X131524264Y-64939257D01*
X131520662Y-64921153D01*
X147699500Y-64921153D01*
X147699500Y-65078846D01*
X147730261Y-65233489D01*
X147730264Y-65233501D01*
X147790602Y-65379172D01*
X147790609Y-65379185D01*
X147878210Y-65510288D01*
X147878213Y-65510292D01*
X147989707Y-65621786D01*
X147989711Y-65621789D01*
X148120814Y-65709390D01*
X148120827Y-65709397D01*
X148266498Y-65769735D01*
X148266503Y-65769737D01*
X148421153Y-65800499D01*
X148421156Y-65800500D01*
X148421158Y-65800500D01*
X148578844Y-65800500D01*
X148578845Y-65800499D01*
X148733497Y-65769737D01*
X148879179Y-65709394D01*
X149010289Y-65621789D01*
X149121789Y-65510289D01*
X149209394Y-65379179D01*
X149269737Y-65233497D01*
X149300500Y-65078842D01*
X149300500Y-64921158D01*
X149300500Y-64921155D01*
X149300499Y-64921153D01*
X165249500Y-64921153D01*
X165249500Y-65078846D01*
X165280261Y-65233489D01*
X165280264Y-65233501D01*
X165340602Y-65379172D01*
X165340609Y-65379185D01*
X165428210Y-65510288D01*
X165428213Y-65510292D01*
X165539707Y-65621786D01*
X165539711Y-65621789D01*
X165670814Y-65709390D01*
X165670827Y-65709397D01*
X165816498Y-65769735D01*
X165816503Y-65769737D01*
X165971153Y-65800499D01*
X165971156Y-65800500D01*
X165971158Y-65800500D01*
X166128844Y-65800500D01*
X166128845Y-65800499D01*
X166283497Y-65769737D01*
X166429179Y-65709394D01*
X166560289Y-65621789D01*
X166671789Y-65510289D01*
X166759394Y-65379179D01*
X166819737Y-65233497D01*
X166850500Y-65078842D01*
X166850500Y-64921158D01*
X166850500Y-64921155D01*
X166850499Y-64921153D01*
X166820596Y-64770821D01*
X166819737Y-64766503D01*
X166819735Y-64766498D01*
X166759397Y-64620827D01*
X166759390Y-64620814D01*
X166671789Y-64489711D01*
X166671786Y-64489707D01*
X166560292Y-64378213D01*
X166560288Y-64378210D01*
X166429185Y-64290609D01*
X166429172Y-64290602D01*
X166283501Y-64230264D01*
X166283489Y-64230261D01*
X166128845Y-64199500D01*
X166128842Y-64199500D01*
X165971158Y-64199500D01*
X165971155Y-64199500D01*
X165816510Y-64230261D01*
X165816498Y-64230264D01*
X165670827Y-64290602D01*
X165670814Y-64290609D01*
X165539711Y-64378210D01*
X165539707Y-64378213D01*
X165428213Y-64489707D01*
X165428210Y-64489711D01*
X165340609Y-64620814D01*
X165340602Y-64620827D01*
X165280264Y-64766498D01*
X165280261Y-64766510D01*
X165249500Y-64921153D01*
X149300499Y-64921153D01*
X149270596Y-64770821D01*
X149269737Y-64766503D01*
X149269735Y-64766498D01*
X149209397Y-64620827D01*
X149209390Y-64620814D01*
X149121789Y-64489711D01*
X149121786Y-64489707D01*
X149010292Y-64378213D01*
X149010288Y-64378210D01*
X148879185Y-64290609D01*
X148879172Y-64290602D01*
X148733501Y-64230264D01*
X148733489Y-64230261D01*
X148578845Y-64199500D01*
X148578842Y-64199500D01*
X148421158Y-64199500D01*
X148421155Y-64199500D01*
X148266510Y-64230261D01*
X148266498Y-64230264D01*
X148120827Y-64290602D01*
X148120814Y-64290609D01*
X147989711Y-64378210D01*
X147989707Y-64378213D01*
X147878213Y-64489707D01*
X147878210Y-64489711D01*
X147790609Y-64620814D01*
X147790602Y-64620827D01*
X147730264Y-64766498D01*
X147730261Y-64766510D01*
X147699500Y-64921153D01*
X131520662Y-64921153D01*
X131519738Y-64916507D01*
X131519735Y-64916498D01*
X131459397Y-64770827D01*
X131459390Y-64770814D01*
X131371789Y-64639711D01*
X131371786Y-64639707D01*
X131260292Y-64528213D01*
X131260288Y-64528210D01*
X131129185Y-64440609D01*
X131129172Y-64440602D01*
X130983501Y-64380264D01*
X130983489Y-64380261D01*
X130828845Y-64349500D01*
X130828842Y-64349500D01*
X130671158Y-64349500D01*
X130671155Y-64349500D01*
X130516510Y-64380261D01*
X130516498Y-64380264D01*
X130370827Y-64440602D01*
X130370814Y-64440609D01*
X130239711Y-64528210D01*
X130239707Y-64528213D01*
X130128213Y-64639707D01*
X130128210Y-64639711D01*
X130040609Y-64770814D01*
X130040602Y-64770827D01*
X129980264Y-64916498D01*
X129980261Y-64916510D01*
X129949500Y-65071153D01*
X126400500Y-65071153D01*
X126400500Y-55462135D01*
X131052000Y-55462135D01*
X131052000Y-57257870D01*
X131052001Y-57257876D01*
X131058408Y-57317483D01*
X131108702Y-57452328D01*
X131108706Y-57452335D01*
X131194952Y-57567544D01*
X131194955Y-57567547D01*
X131310164Y-57653793D01*
X131310171Y-57653797D01*
X131445017Y-57704091D01*
X131445016Y-57704091D01*
X131451944Y-57704835D01*
X131504627Y-57710500D01*
X133300372Y-57710499D01*
X133359983Y-57704091D01*
X133494831Y-57653796D01*
X133610046Y-57567546D01*
X133696296Y-57452331D01*
X133745502Y-57320401D01*
X133787372Y-57264468D01*
X133852837Y-57240050D01*
X133921110Y-57254901D01*
X133949365Y-57276053D01*
X134063035Y-57389723D01*
X134063040Y-57389727D01*
X134234942Y-57514620D01*
X134424282Y-57611095D01*
X134626371Y-57676757D01*
X134692500Y-57687231D01*
X134692500Y-56793012D01*
X134749507Y-56825925D01*
X134876674Y-56860000D01*
X135008326Y-56860000D01*
X135135493Y-56825925D01*
X135192500Y-56793012D01*
X135192500Y-57687230D01*
X135258626Y-57676757D01*
X135258629Y-57676757D01*
X135460717Y-57611095D01*
X135650057Y-57514620D01*
X135821959Y-57389727D01*
X135821964Y-57389723D01*
X135972223Y-57239464D01*
X135972227Y-57239459D01*
X136097120Y-57067557D01*
X136193595Y-56878217D01*
X136259257Y-56676129D01*
X136259257Y-56676126D01*
X136269731Y-56610000D01*
X135375512Y-56610000D01*
X135408425Y-56552993D01*
X135442500Y-56425826D01*
X135442500Y-56294174D01*
X135408425Y-56167007D01*
X135375512Y-56110000D01*
X136269731Y-56110000D01*
X136259257Y-56043873D01*
X136259257Y-56043870D01*
X136193595Y-55841782D01*
X136097120Y-55652442D01*
X136009393Y-55531694D01*
X136009391Y-55531692D01*
X135972223Y-55480535D01*
X135953823Y-55462135D01*
X148689500Y-55462135D01*
X148689500Y-57257870D01*
X148689501Y-57257876D01*
X148695908Y-57317483D01*
X148746202Y-57452328D01*
X148746206Y-57452335D01*
X148832452Y-57567544D01*
X148832455Y-57567547D01*
X148947664Y-57653793D01*
X148947671Y-57653797D01*
X149082517Y-57704091D01*
X149082516Y-57704091D01*
X149089444Y-57704835D01*
X149142127Y-57710500D01*
X150937872Y-57710499D01*
X150997483Y-57704091D01*
X151132331Y-57653796D01*
X151247546Y-57567546D01*
X151333796Y-57452331D01*
X151383002Y-57320401D01*
X151424872Y-57264468D01*
X151490337Y-57240050D01*
X151558610Y-57254901D01*
X151586865Y-57276053D01*
X151700535Y-57389723D01*
X151700540Y-57389727D01*
X151872442Y-57514620D01*
X152061782Y-57611095D01*
X152263871Y-57676757D01*
X152330000Y-57687231D01*
X152330000Y-56793012D01*
X152387007Y-56825925D01*
X152514174Y-56860000D01*
X152645826Y-56860000D01*
X152772993Y-56825925D01*
X152830000Y-56793012D01*
X152830000Y-57687230D01*
X152896126Y-57676757D01*
X152896129Y-57676757D01*
X153098217Y-57611095D01*
X153287557Y-57514620D01*
X153459459Y-57389727D01*
X153459464Y-57389723D01*
X153609723Y-57239464D01*
X153609727Y-57239459D01*
X153734620Y-57067557D01*
X153831095Y-56878217D01*
X153896757Y-56676129D01*
X153896757Y-56676126D01*
X153907231Y-56610000D01*
X153013012Y-56610000D01*
X153045925Y-56552993D01*
X153080000Y-56425826D01*
X153080000Y-56294174D01*
X153045925Y-56167007D01*
X153013012Y-56110000D01*
X153907231Y-56110000D01*
X153896757Y-56043873D01*
X153896757Y-56043870D01*
X153831095Y-55841782D01*
X153734620Y-55652442D01*
X153646893Y-55531694D01*
X153646891Y-55531692D01*
X153609723Y-55480535D01*
X153591323Y-55462135D01*
X166327000Y-55462135D01*
X166327000Y-57257870D01*
X166327001Y-57257876D01*
X166333408Y-57317483D01*
X166383702Y-57452328D01*
X166383706Y-57452335D01*
X166469952Y-57567544D01*
X166469955Y-57567547D01*
X166585164Y-57653793D01*
X166585171Y-57653797D01*
X166720017Y-57704091D01*
X166720016Y-57704091D01*
X166726944Y-57704835D01*
X166779627Y-57710500D01*
X168575372Y-57710499D01*
X168634983Y-57704091D01*
X168769831Y-57653796D01*
X168885046Y-57567546D01*
X168971296Y-57452331D01*
X169020502Y-57320401D01*
X169062372Y-57264468D01*
X169127837Y-57240050D01*
X169196110Y-57254901D01*
X169224365Y-57276053D01*
X169338035Y-57389723D01*
X169338040Y-57389727D01*
X169509942Y-57514620D01*
X169699282Y-57611095D01*
X169901371Y-57676757D01*
X169967500Y-57687231D01*
X169967500Y-56793012D01*
X170024507Y-56825925D01*
X170151674Y-56860000D01*
X170283326Y-56860000D01*
X170410493Y-56825925D01*
X170467500Y-56793012D01*
X170467500Y-57687230D01*
X170533626Y-57676757D01*
X170533629Y-57676757D01*
X170735717Y-57611095D01*
X170925057Y-57514620D01*
X171096959Y-57389727D01*
X171096964Y-57389723D01*
X171247223Y-57239464D01*
X171247227Y-57239459D01*
X171372120Y-57067557D01*
X171468595Y-56878217D01*
X171534257Y-56676129D01*
X171534257Y-56676126D01*
X171544731Y-56610000D01*
X170650512Y-56610000D01*
X170683425Y-56552993D01*
X170717500Y-56425826D01*
X170717500Y-56294174D01*
X170683425Y-56167007D01*
X170650512Y-56110000D01*
X171544731Y-56110000D01*
X171534257Y-56043873D01*
X171534257Y-56043870D01*
X171468595Y-55841782D01*
X171372120Y-55652442D01*
X171247227Y-55480540D01*
X171247223Y-55480535D01*
X171096964Y-55330276D01*
X171096959Y-55330272D01*
X170925057Y-55205379D01*
X170735715Y-55108903D01*
X170533624Y-55043241D01*
X170467500Y-55032768D01*
X170467500Y-55926988D01*
X170410493Y-55894075D01*
X170283326Y-55860000D01*
X170151674Y-55860000D01*
X170024507Y-55894075D01*
X169967500Y-55926988D01*
X169967500Y-55032768D01*
X169967499Y-55032768D01*
X169901375Y-55043241D01*
X169699284Y-55108903D01*
X169509942Y-55205379D01*
X169338041Y-55330271D01*
X169224365Y-55443947D01*
X169163042Y-55477431D01*
X169093350Y-55472447D01*
X169037417Y-55430575D01*
X169020502Y-55399598D01*
X168971297Y-55267671D01*
X168971293Y-55267664D01*
X168885047Y-55152455D01*
X168885044Y-55152452D01*
X168769835Y-55066206D01*
X168769828Y-55066202D01*
X168634982Y-55015908D01*
X168634983Y-55015908D01*
X168575383Y-55009501D01*
X168575381Y-55009500D01*
X168575373Y-55009500D01*
X168575364Y-55009500D01*
X166779629Y-55009500D01*
X166779623Y-55009501D01*
X166720016Y-55015908D01*
X166585171Y-55066202D01*
X166585164Y-55066206D01*
X166469955Y-55152452D01*
X166469952Y-55152455D01*
X166383706Y-55267664D01*
X166383702Y-55267671D01*
X166333408Y-55402517D01*
X166327001Y-55462116D01*
X166327000Y-55462135D01*
X153591323Y-55462135D01*
X153459464Y-55330276D01*
X153459459Y-55330272D01*
X153287557Y-55205379D01*
X153098215Y-55108903D01*
X152896124Y-55043241D01*
X152830000Y-55032768D01*
X152830000Y-55926988D01*
X152772993Y-55894075D01*
X152645826Y-55860000D01*
X152514174Y-55860000D01*
X152387007Y-55894075D01*
X152330000Y-55926988D01*
X152330000Y-55032768D01*
X152329999Y-55032768D01*
X152263875Y-55043241D01*
X152061784Y-55108903D01*
X151872442Y-55205379D01*
X151700541Y-55330271D01*
X151586865Y-55443947D01*
X151525542Y-55477431D01*
X151455850Y-55472447D01*
X151399917Y-55430575D01*
X151383002Y-55399598D01*
X151333797Y-55267671D01*
X151333793Y-55267664D01*
X151247547Y-55152455D01*
X151247544Y-55152452D01*
X151132335Y-55066206D01*
X151132328Y-55066202D01*
X150997482Y-55015908D01*
X150997483Y-55015908D01*
X150937883Y-55009501D01*
X150937881Y-55009500D01*
X150937873Y-55009500D01*
X150937864Y-55009500D01*
X149142129Y-55009500D01*
X149142123Y-55009501D01*
X149082516Y-55015908D01*
X148947671Y-55066202D01*
X148947664Y-55066206D01*
X148832455Y-55152452D01*
X148832452Y-55152455D01*
X148746206Y-55267664D01*
X148746202Y-55267671D01*
X148695908Y-55402517D01*
X148689501Y-55462116D01*
X148689500Y-55462135D01*
X135953823Y-55462135D01*
X135821964Y-55330276D01*
X135821959Y-55330272D01*
X135650057Y-55205379D01*
X135460715Y-55108903D01*
X135258624Y-55043241D01*
X135192500Y-55032768D01*
X135192500Y-55926988D01*
X135135493Y-55894075D01*
X135008326Y-55860000D01*
X134876674Y-55860000D01*
X134749507Y-55894075D01*
X134692500Y-55926988D01*
X134692500Y-55032768D01*
X134692499Y-55032768D01*
X134626375Y-55043241D01*
X134424284Y-55108903D01*
X134234942Y-55205379D01*
X134063041Y-55330271D01*
X133949365Y-55443947D01*
X133888042Y-55477431D01*
X133818350Y-55472447D01*
X133762417Y-55430575D01*
X133745502Y-55399598D01*
X133696297Y-55267671D01*
X133696293Y-55267664D01*
X133610047Y-55152455D01*
X133610044Y-55152452D01*
X133494835Y-55066206D01*
X133494828Y-55066202D01*
X133359982Y-55015908D01*
X133359983Y-55015908D01*
X133300383Y-55009501D01*
X133300381Y-55009500D01*
X133300373Y-55009500D01*
X133300364Y-55009500D01*
X131504629Y-55009500D01*
X131504623Y-55009501D01*
X131445016Y-55015908D01*
X131310171Y-55066202D01*
X131310164Y-55066206D01*
X131194955Y-55152452D01*
X131194952Y-55152455D01*
X131108706Y-55267664D01*
X131108702Y-55267671D01*
X131058408Y-55402517D01*
X131052001Y-55462116D01*
X131052000Y-55462135D01*
X126400500Y-55462135D01*
X126400500Y-54074500D01*
X126420185Y-54007461D01*
X126472989Y-53961706D01*
X126524500Y-53950500D01*
X179575500Y-53950500D01*
X179642539Y-53970185D01*
G37*
%TD.AperFunction*%
%TD*%
M02*
