%TF.GenerationSoftware,KiCad,Pcbnew,9.0.0*%
%TF.CreationDate,2025-05-17T06:27:11-04:00*%
%TF.ProjectId,phase-interferometer,70686173-652d-4696-9e74-65726665726f,rev?*%
%TF.SameCoordinates,Original*%
%TF.FileFunction,Copper,L4,Bot*%
%TF.FilePolarity,Positive*%
%FSLAX46Y46*%
G04 Gerber Fmt 4.6, Leading zero omitted, Abs format (unit mm)*
G04 Created by KiCad (PCBNEW 9.0.0) date 2025-05-17 06:27:11*
%MOMM*%
%LPD*%
G01*
G04 APERTURE LIST*
%TA.AperFunction,ComponentPad*%
%ADD10R,1.700000X1.700000*%
%TD*%
%TA.AperFunction,ComponentPad*%
%ADD11O,1.700000X1.700000*%
%TD*%
%TA.AperFunction,HeatsinkPad*%
%ADD12O,1.000000X2.100000*%
%TD*%
%TA.AperFunction,HeatsinkPad*%
%ADD13O,1.000000X1.800000*%
%TD*%
%TA.AperFunction,ViaPad*%
%ADD14C,0.600000*%
%TD*%
%TA.AperFunction,Conductor*%
%ADD15C,0.200000*%
%TD*%
G04 APERTURE END LIST*
D10*
%TO.P,AE3,1,A*%
%TO.N,Net-(AE3-A)*%
X167677500Y-56360000D03*
D11*
%TO.P,AE3,2,Shield*%
%TO.N,Earth*%
X170217500Y-56360000D03*
%TD*%
D10*
%TO.P,AE1,1,A*%
%TO.N,Net-(AE1-A)*%
X132402500Y-56360000D03*
D11*
%TO.P,AE1,2,Shield*%
%TO.N,Earth*%
X134942500Y-56360000D03*
%TD*%
D12*
%TO.P,J1,S1,SHIELD*%
%TO.N,Net-(J1-SHIELD)*%
X149380000Y-121245000D03*
D13*
X149380000Y-125425000D03*
D12*
X158020000Y-121245000D03*
D13*
X158020000Y-125425000D03*
%TD*%
D10*
%TO.P,J3,1,Pin_1*%
%TO.N,+3V3*%
X128400000Y-127450000D03*
D11*
%TO.P,J3,2,Pin_2*%
%TO.N,Earth*%
X128400000Y-124910000D03*
%TO.P,J3,3,Pin_3*%
X128400000Y-122370000D03*
%TO.P,J3,4,Pin_4*%
%TO.N,/GPIO29_ADC3*%
X128400000Y-119830000D03*
%TO.P,J3,5,Pin_5*%
%TO.N,/GPIO25*%
X128400000Y-117290000D03*
%TO.P,J3,6,Pin_6*%
%TO.N,/GPIO24*%
X128400000Y-114750000D03*
%TO.P,J3,7,Pin_7*%
%TO.N,/GPIO23*%
X128400000Y-112210000D03*
%TO.P,J3,8,Pin_8*%
%TO.N,/GPIO22*%
X128400000Y-109670000D03*
%TO.P,J3,9,Pin_9*%
%TO.N,/GPIO21*%
X128400000Y-107130000D03*
%TO.P,J3,10,Pin_10*%
%TO.N,/GPIO20*%
X128400000Y-104590000D03*
%TO.P,J3,11,Pin_11*%
%TO.N,/GPIO19*%
X128400000Y-102050000D03*
%TO.P,J3,12,Pin_12*%
%TO.N,/GPIO18*%
X128400000Y-99510000D03*
%TO.P,J3,13,Pin_13*%
%TO.N,/GPIO17*%
X128400000Y-96970000D03*
%TO.P,J3,14,Pin_14*%
%TO.N,/GPIO16*%
X128400000Y-94430000D03*
%TO.P,J3,15,Pin_15*%
%TO.N,/RUN*%
X128400000Y-91890000D03*
%TO.P,J3,16,Pin_16*%
%TO.N,/SWD*%
X128400000Y-89350000D03*
%TO.P,J3,17,Pin_17*%
%TO.N,/SWCLK*%
X128400000Y-86810000D03*
%TO.P,J3,18,Pin_18*%
%TO.N,Earth*%
X128400000Y-84270000D03*
%TD*%
D10*
%TO.P,J2,1,Pin_1*%
%TO.N,+3V3*%
X178150000Y-127370000D03*
D11*
%TO.P,J2,2,Pin_2*%
%TO.N,/GPIO0*%
X178150000Y-124830000D03*
%TO.P,J2,3,Pin_3*%
%TO.N,/GPIO1*%
X178150000Y-122290000D03*
%TO.P,J2,4,Pin_4*%
%TO.N,/GPIO2*%
X178150000Y-119750000D03*
%TO.P,J2,5,Pin_5*%
%TO.N,/GPIO3*%
X178150000Y-117210000D03*
%TO.P,J2,6,Pin_6*%
%TO.N,/SDA*%
X178150000Y-114670000D03*
%TO.P,J2,7,Pin_7*%
%TO.N,/SCL*%
X178150000Y-112130000D03*
%TO.P,J2,8,Pin_8*%
%TO.N,/GPIO6*%
X178150000Y-109590000D03*
%TO.P,J2,9,Pin_9*%
%TO.N,/GPIO7*%
X178150000Y-107050000D03*
%TO.P,J2,10,Pin_10*%
%TO.N,/GPIO8*%
X178150000Y-104510000D03*
%TO.P,J2,11,Pin_11*%
%TO.N,/GPIO9*%
X178150000Y-101970000D03*
%TO.P,J2,12,Pin_12*%
%TO.N,/GPIO10*%
X178150000Y-99430000D03*
%TO.P,J2,13,Pin_13*%
%TO.N,/GPIO11*%
X178150000Y-96890000D03*
%TO.P,J2,14,Pin_14*%
%TO.N,/GPIO12*%
X178150000Y-94350000D03*
%TO.P,J2,15,Pin_15*%
%TO.N,/GPIO13*%
X178150000Y-91810000D03*
%TO.P,J2,16,Pin_16*%
%TO.N,/GPIO14*%
X178150000Y-89270000D03*
%TO.P,J2,17,Pin_17*%
%TO.N,/GPIO15*%
X178150000Y-86730000D03*
%TO.P,J2,18,Pin_18*%
%TO.N,Earth*%
X178150000Y-84190000D03*
%TD*%
D10*
%TO.P,AE2,1,A*%
%TO.N,Net-(AE2-A)*%
X150040000Y-56360000D03*
D11*
%TO.P,AE2,2,Shield*%
%TO.N,Earth*%
X152580000Y-56360000D03*
%TD*%
D10*
%TO.P,J4,1,Pin_1*%
%TO.N,+3V3*%
X135480000Y-126200000D03*
D11*
%TO.P,J4,2,Pin_2*%
%TO.N,Earth*%
X138020000Y-126200000D03*
%TO.P,J4,3,Pin_3*%
%TO.N,+5V*%
X140560000Y-126200000D03*
%TO.P,J4,4,Pin_4*%
%TO.N,Earth*%
X143100000Y-126200000D03*
%TD*%
D14*
%TO.N,Earth*%
X152000000Y-89950000D03*
X148550000Y-90000000D03*
X145850000Y-90850000D03*
X143450000Y-92800000D03*
X142950000Y-97300000D03*
X143100000Y-103300000D03*
X143050000Y-105950000D03*
X135250000Y-88300000D03*
X135250000Y-90700000D03*
X135200000Y-93050000D03*
X135300000Y-95600000D03*
X135350000Y-98050000D03*
X135400000Y-100800000D03*
X135350000Y-103150000D03*
X135450000Y-105750000D03*
X165750000Y-106750000D03*
X162900000Y-106750000D03*
X174250000Y-106750000D03*
X145950000Y-114150000D03*
X176200000Y-63100000D03*
X173250000Y-58750000D03*
X176200000Y-67350000D03*
X173250000Y-69375000D03*
X173250000Y-65125000D03*
X176200000Y-58850000D03*
X176200000Y-69475000D03*
X173250000Y-67250000D03*
X176200000Y-60975000D03*
X173250000Y-63000000D03*
X176200000Y-65225000D03*
X173250000Y-60875000D03*
X145450000Y-80575000D03*
X142500000Y-84725000D03*
X142500000Y-74100000D03*
X142500000Y-80475000D03*
X145450000Y-74200000D03*
X145450000Y-84825000D03*
X142500000Y-76225000D03*
X142500000Y-78350000D03*
X145450000Y-76325000D03*
X145450000Y-78450000D03*
X163200000Y-81025000D03*
X160250000Y-85175000D03*
X160250000Y-74550000D03*
X160250000Y-83050000D03*
X160250000Y-80925000D03*
X163200000Y-74650000D03*
X163200000Y-85275000D03*
X160250000Y-76675000D03*
X160250000Y-78800000D03*
X163200000Y-76775000D03*
X163200000Y-83150000D03*
X163200000Y-78900000D03*
X161550000Y-65825000D03*
X158600000Y-67850000D03*
X158600000Y-61475000D03*
X158600000Y-69975000D03*
X155900000Y-59350000D03*
X158600000Y-63600000D03*
X155900000Y-63600000D03*
X155900000Y-69975000D03*
X161550000Y-61575000D03*
X158600000Y-59350000D03*
X155900000Y-61475000D03*
X161550000Y-59450000D03*
X161550000Y-70075000D03*
X158600000Y-65725000D03*
X161550000Y-67950000D03*
X155900000Y-65725000D03*
X155900000Y-67850000D03*
X161550000Y-63700000D03*
X144150000Y-65475000D03*
X141200000Y-67500000D03*
X141200000Y-61125000D03*
X141200000Y-69625000D03*
X138500000Y-59000000D03*
X141200000Y-63250000D03*
X138500000Y-63250000D03*
X138500000Y-69625000D03*
X144150000Y-61225000D03*
X141200000Y-59000000D03*
X138500000Y-61125000D03*
X144150000Y-59100000D03*
X144150000Y-69725000D03*
X141200000Y-65375000D03*
X144150000Y-67600000D03*
X138500000Y-65375000D03*
X138500000Y-67500000D03*
X144150000Y-63350000D03*
X127350000Y-64650000D03*
X127350000Y-81650000D03*
X127350000Y-62525000D03*
X127350000Y-66775000D03*
X127350000Y-77400000D03*
X127350000Y-58275000D03*
X127350000Y-56150000D03*
X127350000Y-60400000D03*
X127350000Y-71025000D03*
X127350000Y-68900000D03*
X127350000Y-73150000D03*
X127350000Y-79525000D03*
X127350000Y-75275000D03*
X145225000Y-54850000D03*
X128225000Y-54850000D03*
X138850000Y-54850000D03*
X140975000Y-54850000D03*
X147350000Y-54850000D03*
X143100000Y-54850000D03*
X160125000Y-54850000D03*
X177125000Y-54850000D03*
X158000000Y-54850000D03*
X162250000Y-54850000D03*
X172875000Y-54850000D03*
X155875000Y-54850000D03*
X164375000Y-54850000D03*
X175000000Y-54850000D03*
X179000000Y-63425000D03*
X179000000Y-80425000D03*
X179000000Y-61300000D03*
X179000000Y-65550000D03*
X179000000Y-76175000D03*
X179000000Y-57050000D03*
X179000000Y-54925000D03*
X179000000Y-59175000D03*
X179000000Y-69800000D03*
X179000000Y-67675000D03*
X179000000Y-71925000D03*
X179000000Y-78300000D03*
X179000000Y-74050000D03*
X165200000Y-96450000D03*
X166950000Y-93650000D03*
X151250000Y-98400000D03*
X158050000Y-95650000D03*
X151800000Y-94350000D03*
X136700000Y-122350000D03*
X136700000Y-118400000D03*
X150500000Y-120670000D03*
X174950000Y-78350000D03*
X174900000Y-84450000D03*
X172900000Y-81600000D03*
X172800000Y-79985000D03*
X174900000Y-80000000D03*
X172800000Y-84900000D03*
X175200000Y-81200000D03*
X175100000Y-87200000D03*
X175550000Y-83500000D03*
X170300000Y-67850000D03*
X172850000Y-87600000D03*
X166350000Y-59885000D03*
X168700000Y-58000000D03*
X169000000Y-60900000D03*
X168850000Y-59850000D03*
X173500000Y-74900000D03*
X166550000Y-61700000D03*
X167550000Y-67800000D03*
X168890000Y-75510000D03*
X167400000Y-70400000D03*
X170100000Y-64500000D03*
X170900000Y-70650000D03*
X166600000Y-58050000D03*
X167600000Y-65200000D03*
X168900000Y-72950000D03*
X168800000Y-78000000D03*
X158100000Y-89650000D03*
X159300000Y-88450000D03*
X157800000Y-87150000D03*
X155050000Y-85200000D03*
X157600000Y-84400000D03*
X155200000Y-87500000D03*
X158250000Y-83450000D03*
X155600000Y-81550000D03*
X157900000Y-81150000D03*
X155500000Y-79935000D03*
X157600000Y-79950000D03*
X153000000Y-67800000D03*
X157650000Y-78300000D03*
X149300000Y-58000000D03*
X149050000Y-59835000D03*
X151400000Y-57950000D03*
X151700000Y-60850000D03*
X152800000Y-64450000D03*
X150300000Y-65150000D03*
X156200000Y-74850000D03*
X151550000Y-59800000D03*
X149250000Y-61650000D03*
X150250000Y-67750000D03*
X153600000Y-70600000D03*
X151500000Y-77950000D03*
X151600000Y-72900000D03*
X151590000Y-75460000D03*
X150100000Y-70350000D03*
X140150000Y-89750000D03*
X141350000Y-88550000D03*
X139850000Y-87250000D03*
X137600000Y-87650000D03*
X137550000Y-84950000D03*
X139650000Y-84500000D03*
X140300000Y-83550000D03*
X139950000Y-81250000D03*
X137650000Y-81650000D03*
X137550000Y-80035000D03*
X139650000Y-80050000D03*
X139700000Y-78400000D03*
X138250000Y-74950000D03*
X131350000Y-58100000D03*
X133450000Y-58050000D03*
X133600000Y-59900000D03*
X131100000Y-59935000D03*
X133750000Y-60950000D03*
X131300000Y-61750000D03*
X132350000Y-65250000D03*
X134850000Y-64550000D03*
X132300000Y-67850000D03*
X135050000Y-67900000D03*
X132150000Y-70450000D03*
X135650000Y-70700000D03*
X133550000Y-78050000D03*
X133650000Y-73000000D03*
X133640000Y-75560000D03*
X132700000Y-121800000D03*
X145750000Y-123150000D03*
X156150000Y-127250000D03*
X153550000Y-127250000D03*
X151000000Y-127200000D03*
X162600000Y-123350000D03*
X170950000Y-123600000D03*
X166450000Y-124500000D03*
X167600000Y-125750000D03*
X175700000Y-108350000D03*
X162400000Y-108950000D03*
X161650000Y-113500000D03*
X157450000Y-117550000D03*
X145850000Y-118550000D03*
X147450000Y-118550000D03*
X149050000Y-118600000D03*
%TO.N,/SDA*%
X156150000Y-111081922D03*
X163298231Y-97396785D03*
%TO.N,/SCL*%
X156149999Y-110281920D03*
X162500000Y-97450000D03*
%TO.N,/SWCLK*%
X153334927Y-108133457D03*
%TO.N,/SWD*%
X152535454Y-108162500D03*
%TO.N,+1V1*%
X153450000Y-112362502D03*
X154800000Y-107800000D03*
%TO.N,/GPIO29_ADC3*%
X146150000Y-112700000D03*
%TO.N,/GPIO25*%
X151741989Y-111094552D03*
%TO.N,/GPIO24*%
X148750000Y-110650000D03*
%TO.N,/GPIO23*%
X151883564Y-110307176D03*
%TO.N,/GPIO22*%
X145600000Y-108450000D03*
%TO.N,/GPIO21*%
X151700000Y-108750000D03*
%TO.N,/GPIO20*%
X146875735Y-105874265D03*
%TO.N,+3V3*%
X151949998Y-109509936D03*
%TO.N,/GPIO19*%
X147900000Y-106050000D03*
%TO.N,/GPIO18*%
X149041213Y-106317648D03*
%TO.N,/RUN*%
X147950000Y-101000000D03*
%TO.N,/GPIO17*%
X149825735Y-106474265D03*
%TO.N,/GPIO16*%
X151850000Y-107750000D03*
%TO.N,/GPIO15*%
X158000000Y-103000000D03*
%TO.N,+3V3*%
X158442393Y-99200000D03*
X162700000Y-93200000D03*
%TO.N,/MX_LO*%
X161200000Y-93200000D03*
%TO.N,/GPIO7*%
X156667471Y-109671816D03*
%TO.N,/QSPI_SD3*%
X163150000Y-128300000D03*
X155086028Y-114637500D03*
%TO.N,/QSPI_SCLK*%
X154967280Y-112362499D03*
X161850000Y-125750000D03*
%TO.N,/QSPI_SD0*%
X160700000Y-125450000D03*
X155647622Y-112783378D03*
%TO.N,/MX_LO*%
X132300000Y-82300000D03*
X149000000Y-83650000D03*
X166350000Y-83200000D03*
%TO.N,Earth*%
X152000000Y-112350000D03*
X156150000Y-108200000D03*
X156218812Y-112223251D03*
%TO.N,+3V3*%
X166050000Y-65000000D03*
X145150000Y-115300000D03*
X158100000Y-113800000D03*
X171050000Y-83950000D03*
X153800000Y-83900000D03*
X165350000Y-127250000D03*
X156342106Y-116062054D03*
X149450735Y-104399265D03*
X142500000Y-115100000D03*
X130750000Y-65150000D03*
X141600000Y-114200000D03*
X142500000Y-114200000D03*
X148104173Y-114176998D03*
X152863279Y-104435448D03*
X160300000Y-108450000D03*
X135900000Y-83850000D03*
X141600000Y-115100000D03*
X148500000Y-65000000D03*
%TD*%
D15*
%TO.N,/MX_LO*%
X149000000Y-85150000D02*
X149000000Y-83650000D01*
X157100000Y-93250000D02*
X149000000Y-85150000D01*
X160900000Y-93250000D02*
X157100000Y-93250000D01*
X161200000Y-93200000D02*
X160950000Y-93200000D01*
X160950000Y-93200000D02*
X160900000Y-93250000D01*
X166350000Y-88450000D02*
X166350000Y-83200000D01*
X161600000Y-93200000D02*
X166350000Y-88450000D01*
X161200000Y-93200000D02*
X161600000Y-93200000D01*
%TO.N,/SDA*%
X162251057Y-96849000D02*
X162750446Y-96849000D01*
X162750446Y-96849000D02*
X163298231Y-97396785D01*
X155549002Y-103551055D02*
X162251057Y-96849000D01*
X155731981Y-111081922D02*
X155549002Y-110898943D01*
X156150000Y-111081922D02*
X155731981Y-111081922D01*
X155549002Y-110898943D02*
X155549002Y-103551055D01*
%TO.N,/SCL*%
X156066471Y-109133529D02*
X156751000Y-108449000D01*
X156751000Y-108449000D02*
X156751000Y-103199000D01*
X156751000Y-103199000D02*
X162500000Y-97450000D01*
X156066471Y-110198392D02*
X156066471Y-109133529D01*
X156149999Y-110281920D02*
X156066471Y-110198392D01*
%TO.N,/GPIO7*%
X156667471Y-109671816D02*
X175528184Y-109671816D01*
X175528184Y-109671816D02*
X178150000Y-107050000D01*
%TO.N,/SWCLK*%
X135577100Y-86810000D02*
X128400000Y-86810000D01*
X149201000Y-102732487D02*
X149201000Y-100433900D01*
X149201000Y-100433900D02*
X135577100Y-86810000D01*
X153334927Y-106866414D02*
X149201000Y-102732487D01*
X153334927Y-108133457D02*
X153334927Y-106866414D01*
%TO.N,+1V1*%
X154800000Y-107800000D02*
X154050000Y-108550000D01*
X154050000Y-111762502D02*
X153450000Y-112362502D01*
X154050000Y-108550000D02*
X154050000Y-111762502D01*
%TO.N,/SWD*%
X148800000Y-100600000D02*
X137550000Y-89350000D01*
X152500000Y-106598587D02*
X148800000Y-102898587D01*
X148800000Y-102898587D02*
X148800000Y-100600000D01*
X152500000Y-108127046D02*
X152500000Y-106598587D01*
X152535454Y-108162500D02*
X152500000Y-108127046D01*
X137550000Y-89350000D02*
X128400000Y-89350000D01*
%TO.N,/GPIO29_ADC3*%
X135530000Y-112700000D02*
X128400000Y-119830000D01*
X146150000Y-112700000D02*
X135530000Y-112700000D01*
%TO.N,/GPIO24*%
X132650000Y-110500000D02*
X128400000Y-114750000D01*
X148600000Y-110500000D02*
X132650000Y-110500000D01*
X148750000Y-110650000D02*
X148600000Y-110500000D01*
%TO.N,/GPIO23*%
X130960000Y-109650000D02*
X128400000Y-112210000D01*
X151226388Y-109650000D02*
X130960000Y-109650000D01*
X151883564Y-110307176D02*
X151226388Y-109650000D01*
%TO.N,/GPIO25*%
X134340000Y-111350000D02*
X128400000Y-117290000D01*
X151486541Y-111350000D02*
X134340000Y-111350000D01*
X151741989Y-111094552D02*
X151486541Y-111350000D01*
%TO.N,/GPIO22*%
X145550000Y-108500000D02*
X129570000Y-108500000D01*
X129570000Y-108500000D02*
X128400000Y-109670000D01*
X145600000Y-108450000D02*
X145550000Y-108500000D01*
%TO.N,/GPIO21*%
X128430000Y-107100000D02*
X128400000Y-107130000D01*
X151601057Y-108651057D02*
X151601057Y-108401057D01*
X151700000Y-108750000D02*
X151601057Y-108651057D01*
X151601057Y-108401057D02*
X150300000Y-107100000D01*
X150300000Y-107100000D02*
X128430000Y-107100000D01*
%TO.N,/GPIO20*%
X144640000Y-104590000D02*
X128400000Y-104590000D01*
X145924265Y-105874265D02*
X144640000Y-104590000D01*
X146875735Y-105874265D02*
X145924265Y-105874265D01*
%TO.N,/GPIO19*%
X143900000Y-102050000D02*
X128400000Y-102050000D01*
X147900000Y-106050000D02*
X143900000Y-102050000D01*
%TO.N,/GPIO18*%
X142575800Y-99510000D02*
X128400000Y-99510000D01*
X149021595Y-106298030D02*
X149021595Y-105955795D01*
X149041213Y-106317648D02*
X149021595Y-106298030D01*
X149021595Y-105955795D02*
X142575800Y-99510000D01*
%TO.N,/GPIO17*%
X149750000Y-106117100D02*
X140602900Y-96970000D01*
X140602900Y-96970000D02*
X128400000Y-96970000D01*
X149750000Y-106398530D02*
X149750000Y-106117100D01*
X149825735Y-106474265D02*
X149750000Y-106398530D01*
%TO.N,/GPIO16*%
X138630000Y-94430000D02*
X128400000Y-94430000D01*
X151850000Y-107650000D02*
X138630000Y-94430000D01*
X151850000Y-107750000D02*
X151850000Y-107650000D01*
%TO.N,/RUN*%
X138840000Y-91890000D02*
X128400000Y-91890000D01*
X147950000Y-101000000D02*
X138840000Y-91890000D01*
%TO.N,/GPIO15*%
X161880000Y-103000000D02*
X178150000Y-86730000D01*
X158000000Y-103000000D02*
X161880000Y-103000000D01*
%TO.N,/QSPI_SD3*%
X159550000Y-126750000D02*
X161100000Y-128300000D01*
X159550000Y-118369913D02*
X159550000Y-126750000D01*
X155086028Y-114637500D02*
X155817587Y-114637500D01*
X155817587Y-114637500D02*
X159550000Y-118369913D01*
X161100000Y-128300000D02*
X163150000Y-128300000D01*
%TO.N,/QSPI_SCLK*%
X155050000Y-112445219D02*
X154967280Y-112362499D01*
X155050000Y-112531057D02*
X155050000Y-112445219D01*
X155046622Y-112534435D02*
X155050000Y-112531057D01*
X160099000Y-118351813D02*
X155050000Y-113302813D01*
X155050000Y-113302813D02*
X155050000Y-113035699D01*
X160099000Y-125799000D02*
X160099000Y-118351813D01*
X161300000Y-126150000D02*
X160450000Y-126150000D01*
X155046622Y-113032321D02*
X155046622Y-112534435D01*
X160450000Y-126150000D02*
X160099000Y-125799000D01*
X155050000Y-113035699D02*
X155046622Y-113032321D01*
X161700000Y-125750000D02*
X161300000Y-126150000D01*
X161850000Y-125750000D02*
X161700000Y-125750000D01*
%TO.N,/QSPI_SD0*%
X160700000Y-118102874D02*
X160700000Y-125450000D01*
X155647622Y-113050496D02*
X160700000Y-118102874D01*
X155647622Y-112783378D02*
X155647622Y-113050496D01*
%TO.N,/MX_LO*%
X132550000Y-82550000D02*
X132300000Y-82300000D01*
X149000000Y-83650000D02*
X147900000Y-82550000D01*
X147900000Y-82550000D02*
X132550000Y-82550000D01*
%TD*%
%TA.AperFunction,Conductor*%
%TO.N,Earth*%
G36*
X179642539Y-53970185D02*
G01*
X179688294Y-54022989D01*
X179699500Y-54074500D01*
X179699500Y-83807273D01*
X179679815Y-83874312D01*
X179627011Y-83920067D01*
X179557853Y-83930011D01*
X179494297Y-83900986D01*
X179457569Y-83845591D01*
X179401095Y-83671782D01*
X179304620Y-83482442D01*
X179179727Y-83310540D01*
X179179723Y-83310535D01*
X179029464Y-83160276D01*
X179029459Y-83160272D01*
X178857557Y-83035379D01*
X178668215Y-82938903D01*
X178466124Y-82873241D01*
X178400000Y-82862768D01*
X178400000Y-83756988D01*
X178342993Y-83724075D01*
X178215826Y-83690000D01*
X178084174Y-83690000D01*
X177957007Y-83724075D01*
X177900000Y-83756988D01*
X177900000Y-82862768D01*
X177899999Y-82862768D01*
X177833875Y-82873241D01*
X177631784Y-82938903D01*
X177442442Y-83035379D01*
X177270540Y-83160272D01*
X177270535Y-83160276D01*
X177120276Y-83310535D01*
X177120272Y-83310540D01*
X176995379Y-83482442D01*
X176898904Y-83671782D01*
X176833242Y-83873870D01*
X176833242Y-83873873D01*
X176822769Y-83940000D01*
X177716988Y-83940000D01*
X177684075Y-83997007D01*
X177650000Y-84124174D01*
X177650000Y-84255826D01*
X177684075Y-84382993D01*
X177716988Y-84440000D01*
X176822769Y-84440000D01*
X176833242Y-84506126D01*
X176833242Y-84506129D01*
X176898904Y-84708217D01*
X176995379Y-84897557D01*
X177120272Y-85069459D01*
X177120276Y-85069464D01*
X177270535Y-85219723D01*
X177270540Y-85219727D01*
X177442444Y-85344622D01*
X177451495Y-85349234D01*
X177502292Y-85397208D01*
X177519087Y-85465029D01*
X177496550Y-85531164D01*
X177451499Y-85570202D01*
X177442182Y-85574949D01*
X177270213Y-85699890D01*
X177119890Y-85850213D01*
X176994951Y-86022179D01*
X176898444Y-86211585D01*
X176832753Y-86413760D01*
X176799500Y-86623713D01*
X176799500Y-86836286D01*
X176832753Y-87046240D01*
X176832754Y-87046244D01*
X176846491Y-87088523D01*
X176848486Y-87158365D01*
X176816241Y-87214521D01*
X161667584Y-102363181D01*
X161606261Y-102396666D01*
X161579903Y-102399500D01*
X158699096Y-102399500D01*
X158632057Y-102379815D01*
X158586302Y-102327011D01*
X158576358Y-102257853D01*
X158605383Y-102194297D01*
X158611415Y-102187819D01*
X159457055Y-101342179D01*
X162514664Y-98284571D01*
X162575985Y-98251088D01*
X162578152Y-98250637D01*
X162578841Y-98250500D01*
X162578842Y-98250500D01*
X162733497Y-98219737D01*
X162879179Y-98159394D01*
X162888490Y-98153172D01*
X162955164Y-98132292D01*
X163004835Y-98141710D01*
X163064734Y-98166522D01*
X163219384Y-98197284D01*
X163219387Y-98197285D01*
X163219389Y-98197285D01*
X163377075Y-98197285D01*
X163377076Y-98197284D01*
X163531728Y-98166522D01*
X163677410Y-98106179D01*
X163808520Y-98018574D01*
X163920020Y-97907074D01*
X164007625Y-97775964D01*
X164067968Y-97630282D01*
X164098731Y-97475627D01*
X164098731Y-97317943D01*
X164098731Y-97317940D01*
X164098730Y-97317938D01*
X164076512Y-97206243D01*
X164067968Y-97163288D01*
X164062940Y-97151150D01*
X164007628Y-97017612D01*
X164007621Y-97017599D01*
X163920020Y-96886496D01*
X163920017Y-96886492D01*
X163808523Y-96774998D01*
X163808519Y-96774995D01*
X163677416Y-96687394D01*
X163677403Y-96687387D01*
X163531732Y-96627049D01*
X163531722Y-96627046D01*
X163376380Y-96596146D01*
X163359623Y-96587380D01*
X163341145Y-96583361D01*
X163316108Y-96564618D01*
X163314469Y-96563761D01*
X163312891Y-96562210D01*
X163238036Y-96487355D01*
X163238034Y-96487352D01*
X163119163Y-96368481D01*
X163119162Y-96368480D01*
X163032350Y-96318360D01*
X163032350Y-96318359D01*
X163032346Y-96318358D01*
X162982231Y-96289423D01*
X162829503Y-96248499D01*
X162671389Y-96248499D01*
X162663793Y-96248499D01*
X162663777Y-96248500D01*
X162330114Y-96248500D01*
X162172000Y-96248500D01*
X162019272Y-96289423D01*
X162019271Y-96289423D01*
X162019269Y-96289424D01*
X162019266Y-96289425D01*
X161969153Y-96318359D01*
X161969152Y-96318360D01*
X161925746Y-96343420D01*
X161882342Y-96368479D01*
X161882339Y-96368481D01*
X161770535Y-96480286D01*
X159364497Y-98886323D01*
X159303174Y-98919808D01*
X159233482Y-98914824D01*
X159177549Y-98872952D01*
X159162254Y-98846091D01*
X159151790Y-98820827D01*
X159151783Y-98820814D01*
X159064182Y-98689711D01*
X159064179Y-98689707D01*
X158952685Y-98578213D01*
X158952681Y-98578210D01*
X158821578Y-98490609D01*
X158821565Y-98490602D01*
X158675894Y-98430264D01*
X158675882Y-98430261D01*
X158521238Y-98399500D01*
X158521235Y-98399500D01*
X158363551Y-98399500D01*
X158363548Y-98399500D01*
X158208903Y-98430261D01*
X158208891Y-98430264D01*
X158063220Y-98490602D01*
X158063207Y-98490609D01*
X157932104Y-98578210D01*
X157932100Y-98578213D01*
X157820606Y-98689707D01*
X157820603Y-98689711D01*
X157733002Y-98820814D01*
X157732995Y-98820827D01*
X157672657Y-98966498D01*
X157672654Y-98966510D01*
X157641893Y-99121153D01*
X157641893Y-99278846D01*
X157672654Y-99433489D01*
X157672657Y-99433501D01*
X157732995Y-99579172D01*
X157733002Y-99579185D01*
X157820603Y-99710288D01*
X157820606Y-99710292D01*
X157932100Y-99821786D01*
X157932104Y-99821789D01*
X158063207Y-99909390D01*
X158063220Y-99909397D01*
X158088484Y-99919861D01*
X158142889Y-99963700D01*
X158164956Y-100029994D01*
X158147679Y-100097693D01*
X158128716Y-100122104D01*
X155180288Y-103070533D01*
X155068483Y-103182337D01*
X155068479Y-103182342D01*
X155024544Y-103258442D01*
X155024544Y-103258443D01*
X154989425Y-103319269D01*
X154979865Y-103354949D01*
X154948501Y-103471998D01*
X154948501Y-103472000D01*
X154948501Y-103640101D01*
X154948502Y-103640114D01*
X154948502Y-106875500D01*
X154928817Y-106942539D01*
X154876013Y-106988294D01*
X154824502Y-106999500D01*
X154721155Y-106999500D01*
X154566510Y-107030261D01*
X154566498Y-107030264D01*
X154420827Y-107090602D01*
X154420814Y-107090609D01*
X154289711Y-107178210D01*
X154289707Y-107178213D01*
X154178213Y-107289707D01*
X154178210Y-107289711D01*
X154162529Y-107313180D01*
X154108916Y-107357985D01*
X154039591Y-107366692D01*
X153976564Y-107336537D01*
X153939845Y-107277094D01*
X153935427Y-107244289D01*
X153935427Y-106955474D01*
X153935428Y-106955461D01*
X153935428Y-106787358D01*
X153935428Y-106787357D01*
X153894504Y-106634630D01*
X153881199Y-106611585D01*
X153815451Y-106497704D01*
X153815445Y-106497696D01*
X153292698Y-105974949D01*
X152765376Y-105447628D01*
X152731892Y-105386306D01*
X152736876Y-105316614D01*
X152778748Y-105260681D01*
X152844212Y-105236264D01*
X152853058Y-105235948D01*
X152942123Y-105235948D01*
X152942124Y-105235947D01*
X153096776Y-105205185D01*
X153242458Y-105144842D01*
X153373568Y-105057237D01*
X153485068Y-104945737D01*
X153572673Y-104814627D01*
X153633016Y-104668945D01*
X153663779Y-104514290D01*
X153663779Y-104356606D01*
X153663779Y-104356603D01*
X153663778Y-104356601D01*
X153636862Y-104221286D01*
X153633016Y-104201951D01*
X153629622Y-104193757D01*
X153572676Y-104056275D01*
X153572669Y-104056262D01*
X153485068Y-103925159D01*
X153485065Y-103925155D01*
X153373571Y-103813661D01*
X153373567Y-103813658D01*
X153242464Y-103726057D01*
X153242451Y-103726050D01*
X153096780Y-103665712D01*
X153096768Y-103665709D01*
X152942124Y-103634948D01*
X152942121Y-103634948D01*
X152784437Y-103634948D01*
X152784434Y-103634948D01*
X152629789Y-103665709D01*
X152629777Y-103665712D01*
X152484106Y-103726050D01*
X152484093Y-103726057D01*
X152352990Y-103813658D01*
X152352986Y-103813661D01*
X152241492Y-103925155D01*
X152241489Y-103925159D01*
X152153888Y-104056262D01*
X152153881Y-104056275D01*
X152093543Y-104201946D01*
X152093540Y-104201958D01*
X152062779Y-104356601D01*
X152062779Y-104445668D01*
X152043094Y-104512707D01*
X151990290Y-104558462D01*
X151921132Y-104568406D01*
X151857576Y-104539381D01*
X151851098Y-104533349D01*
X149837819Y-102520070D01*
X149804334Y-102458747D01*
X149801500Y-102432389D01*
X149801500Y-100354845D01*
X149801500Y-100354843D01*
X149760577Y-100202116D01*
X149760577Y-100202115D01*
X149760577Y-100202114D01*
X149731639Y-100151995D01*
X149731637Y-100151992D01*
X149681520Y-100065184D01*
X149569716Y-99953380D01*
X149569715Y-99953379D01*
X149565385Y-99949049D01*
X149565374Y-99949039D01*
X136064690Y-86448355D01*
X136064688Y-86448352D01*
X135945817Y-86329481D01*
X135945809Y-86329475D01*
X135818694Y-86256086D01*
X135818688Y-86256083D01*
X135808887Y-86250423D01*
X135747793Y-86234053D01*
X135656157Y-86209499D01*
X135498043Y-86209499D01*
X135490447Y-86209499D01*
X135490431Y-86209500D01*
X129685719Y-86209500D01*
X129618680Y-86189815D01*
X129575235Y-86141795D01*
X129555052Y-86102185D01*
X129555051Y-86102184D01*
X129430109Y-85930213D01*
X129279786Y-85779890D01*
X129107817Y-85654949D01*
X129098504Y-85650204D01*
X129047707Y-85602230D01*
X129030912Y-85534409D01*
X129053449Y-85468274D01*
X129098507Y-85429232D01*
X129107558Y-85424620D01*
X129279459Y-85299727D01*
X129279464Y-85299723D01*
X129429723Y-85149464D01*
X129429727Y-85149459D01*
X129554620Y-84977557D01*
X129651095Y-84788217D01*
X129716757Y-84586129D01*
X129716757Y-84586126D01*
X129727231Y-84520000D01*
X128833012Y-84520000D01*
X128865925Y-84462993D01*
X128900000Y-84335826D01*
X128900000Y-84204174D01*
X128865925Y-84077007D01*
X128833012Y-84020000D01*
X129727231Y-84020000D01*
X129716757Y-83953873D01*
X129716757Y-83953870D01*
X129651095Y-83751782D01*
X129554620Y-83562442D01*
X129429727Y-83390540D01*
X129429723Y-83390535D01*
X129279464Y-83240276D01*
X129279459Y-83240272D01*
X129107557Y-83115379D01*
X128918215Y-83018903D01*
X128716124Y-82953241D01*
X128650000Y-82942768D01*
X128650000Y-83836988D01*
X128592993Y-83804075D01*
X128465826Y-83770000D01*
X128334174Y-83770000D01*
X128207007Y-83804075D01*
X128150000Y-83836988D01*
X128150000Y-82942768D01*
X128149999Y-82942768D01*
X128083875Y-82953241D01*
X127881784Y-83018903D01*
X127692442Y-83115379D01*
X127520540Y-83240272D01*
X127520535Y-83240276D01*
X127370276Y-83390535D01*
X127370272Y-83390540D01*
X127245379Y-83562442D01*
X127148904Y-83751782D01*
X127083242Y-83953870D01*
X127083242Y-83953873D01*
X127072769Y-84020000D01*
X127966988Y-84020000D01*
X127934075Y-84077007D01*
X127900000Y-84204174D01*
X127900000Y-84335826D01*
X127934075Y-84462993D01*
X127966988Y-84520000D01*
X127072769Y-84520000D01*
X127083242Y-84586126D01*
X127083242Y-84586129D01*
X127148904Y-84788217D01*
X127245379Y-84977557D01*
X127370272Y-85149459D01*
X127370276Y-85149464D01*
X127520535Y-85299723D01*
X127520540Y-85299727D01*
X127692444Y-85424622D01*
X127701495Y-85429234D01*
X127752292Y-85477208D01*
X127769087Y-85545029D01*
X127746550Y-85611164D01*
X127701499Y-85650202D01*
X127692182Y-85654949D01*
X127520213Y-85779890D01*
X127369890Y-85930213D01*
X127244951Y-86102179D01*
X127148444Y-86291585D01*
X127082753Y-86493760D01*
X127049500Y-86703713D01*
X127049500Y-86916286D01*
X127076779Y-87088523D01*
X127082754Y-87126243D01*
X127122449Y-87248412D01*
X127148444Y-87328414D01*
X127244951Y-87517820D01*
X127369890Y-87689786D01*
X127520213Y-87840109D01*
X127692182Y-87965050D01*
X127700946Y-87969516D01*
X127751742Y-88017491D01*
X127768536Y-88085312D01*
X127745998Y-88151447D01*
X127700946Y-88190484D01*
X127692182Y-88194949D01*
X127520213Y-88319890D01*
X127369890Y-88470213D01*
X127244951Y-88642179D01*
X127148444Y-88831585D01*
X127082753Y-89033760D01*
X127049500Y-89243713D01*
X127049500Y-89456286D01*
X127070082Y-89586239D01*
X127082754Y-89666243D01*
X127122449Y-89788412D01*
X127148444Y-89868414D01*
X127244951Y-90057820D01*
X127369890Y-90229786D01*
X127520213Y-90380109D01*
X127692182Y-90505050D01*
X127700946Y-90509516D01*
X127751742Y-90557491D01*
X127768536Y-90625312D01*
X127745998Y-90691447D01*
X127700946Y-90730484D01*
X127692182Y-90734949D01*
X127520213Y-90859890D01*
X127369890Y-91010213D01*
X127244951Y-91182179D01*
X127148444Y-91371585D01*
X127082753Y-91573760D01*
X127049500Y-91783713D01*
X127049500Y-91996286D01*
X127070082Y-92126239D01*
X127082754Y-92206243D01*
X127145547Y-92399500D01*
X127148444Y-92408414D01*
X127244951Y-92597820D01*
X127369890Y-92769786D01*
X127520213Y-92920109D01*
X127692182Y-93045050D01*
X127700946Y-93049516D01*
X127751742Y-93097491D01*
X127768536Y-93165312D01*
X127745998Y-93231447D01*
X127700946Y-93270484D01*
X127692182Y-93274949D01*
X127520213Y-93399890D01*
X127369890Y-93550213D01*
X127244951Y-93722179D01*
X127148444Y-93911585D01*
X127082753Y-94113760D01*
X127049500Y-94323713D01*
X127049500Y-94536286D01*
X127070082Y-94666239D01*
X127082754Y-94746243D01*
X127122449Y-94868412D01*
X127148444Y-94948414D01*
X127244951Y-95137820D01*
X127369890Y-95309786D01*
X127520213Y-95460109D01*
X127692182Y-95585050D01*
X127700946Y-95589516D01*
X127751742Y-95637491D01*
X127768536Y-95705312D01*
X127745998Y-95771447D01*
X127700946Y-95810484D01*
X127692182Y-95814949D01*
X127520213Y-95939890D01*
X127369890Y-96090213D01*
X127244951Y-96262179D01*
X127148444Y-96451585D01*
X127082753Y-96653760D01*
X127049500Y-96863713D01*
X127049500Y-97076286D01*
X127070082Y-97206239D01*
X127082754Y-97286243D01*
X127144290Y-97475631D01*
X127148444Y-97488414D01*
X127244951Y-97677820D01*
X127369890Y-97849786D01*
X127520213Y-98000109D01*
X127692182Y-98125050D01*
X127700946Y-98129516D01*
X127751742Y-98177491D01*
X127768536Y-98245312D01*
X127745998Y-98311447D01*
X127700946Y-98350484D01*
X127692182Y-98354949D01*
X127520213Y-98479890D01*
X127369890Y-98630213D01*
X127244951Y-98802179D01*
X127148444Y-98991585D01*
X127148443Y-98991587D01*
X127148443Y-98991588D01*
X127130875Y-99045657D01*
X127082753Y-99193760D01*
X127049500Y-99403713D01*
X127049500Y-99616286D01*
X127082048Y-99821789D01*
X127082754Y-99826243D01*
X127129378Y-99969737D01*
X127148444Y-100028414D01*
X127244951Y-100217820D01*
X127369890Y-100389786D01*
X127520213Y-100540109D01*
X127692182Y-100665050D01*
X127700946Y-100669516D01*
X127751742Y-100717491D01*
X127768536Y-100785312D01*
X127745998Y-100851447D01*
X127700946Y-100890484D01*
X127692182Y-100894949D01*
X127520213Y-101019890D01*
X127369890Y-101170213D01*
X127244951Y-101342179D01*
X127148444Y-101531585D01*
X127082753Y-101733760D01*
X127049500Y-101943713D01*
X127049500Y-102156286D01*
X127070082Y-102286239D01*
X127082754Y-102366243D01*
X127122449Y-102488412D01*
X127148444Y-102568414D01*
X127244951Y-102757820D01*
X127369890Y-102929786D01*
X127520213Y-103080109D01*
X127692182Y-103205050D01*
X127700946Y-103209516D01*
X127751742Y-103257491D01*
X127768536Y-103325312D01*
X127745998Y-103391447D01*
X127700946Y-103430484D01*
X127692182Y-103434949D01*
X127520213Y-103559890D01*
X127369890Y-103710213D01*
X127244951Y-103882179D01*
X127148444Y-104071585D01*
X127082753Y-104273760D01*
X127049500Y-104483713D01*
X127049500Y-104696286D01*
X127070082Y-104826239D01*
X127082754Y-104906243D01*
X127131814Y-105057234D01*
X127148444Y-105108414D01*
X127244951Y-105297820D01*
X127369890Y-105469786D01*
X127520213Y-105620109D01*
X127692182Y-105745050D01*
X127700946Y-105749516D01*
X127751742Y-105797491D01*
X127768536Y-105865312D01*
X127745998Y-105931447D01*
X127700946Y-105970484D01*
X127692182Y-105974949D01*
X127520213Y-106099890D01*
X127369890Y-106250213D01*
X127244951Y-106422179D01*
X127148444Y-106611585D01*
X127082753Y-106813760D01*
X127062357Y-106942539D01*
X127049500Y-107023713D01*
X127049500Y-107236287D01*
X127055963Y-107277094D01*
X127078727Y-107420821D01*
X127082754Y-107446243D01*
X127133323Y-107601879D01*
X127148444Y-107648414D01*
X127244951Y-107837820D01*
X127369890Y-108009786D01*
X127520213Y-108160109D01*
X127692182Y-108285050D01*
X127700946Y-108289516D01*
X127751742Y-108337491D01*
X127768536Y-108405312D01*
X127745998Y-108471447D01*
X127700946Y-108510484D01*
X127692182Y-108514949D01*
X127520213Y-108639890D01*
X127369890Y-108790213D01*
X127244951Y-108962179D01*
X127148444Y-109151585D01*
X127082753Y-109353760D01*
X127063585Y-109474786D01*
X127049500Y-109563713D01*
X127049500Y-109776287D01*
X127053031Y-109798582D01*
X127070082Y-109906239D01*
X127082754Y-109986243D01*
X127122449Y-110108412D01*
X127148444Y-110188414D01*
X127244951Y-110377820D01*
X127369890Y-110549786D01*
X127520213Y-110700109D01*
X127692182Y-110825050D01*
X127700946Y-110829516D01*
X127751742Y-110877491D01*
X127768536Y-110945312D01*
X127745998Y-111011447D01*
X127700946Y-111050484D01*
X127692182Y-111054949D01*
X127520213Y-111179890D01*
X127369890Y-111330213D01*
X127244951Y-111502179D01*
X127148444Y-111691585D01*
X127082753Y-111893760D01*
X127062171Y-112023713D01*
X127049500Y-112103713D01*
X127049500Y-112316287D01*
X127053031Y-112338582D01*
X127070082Y-112446239D01*
X127082754Y-112526243D01*
X127140685Y-112704536D01*
X127148444Y-112728414D01*
X127244951Y-112917820D01*
X127369890Y-113089786D01*
X127520213Y-113240109D01*
X127692182Y-113365050D01*
X127700946Y-113369516D01*
X127751742Y-113417491D01*
X127768536Y-113485312D01*
X127745998Y-113551447D01*
X127700946Y-113590484D01*
X127692182Y-113594949D01*
X127520213Y-113719890D01*
X127369890Y-113870213D01*
X127244951Y-114042179D01*
X127148444Y-114231585D01*
X127082753Y-114433760D01*
X127056344Y-114600500D01*
X127049500Y-114643713D01*
X127049500Y-114856287D01*
X127053031Y-114878582D01*
X127075612Y-115021155D01*
X127082754Y-115066243D01*
X127146282Y-115261762D01*
X127148444Y-115268414D01*
X127244951Y-115457820D01*
X127369890Y-115629786D01*
X127520213Y-115780109D01*
X127692182Y-115905050D01*
X127700946Y-115909516D01*
X127751742Y-115957491D01*
X127768536Y-116025312D01*
X127745998Y-116091447D01*
X127700946Y-116130484D01*
X127692182Y-116134949D01*
X127520213Y-116259890D01*
X127369890Y-116410213D01*
X127244951Y-116582179D01*
X127148444Y-116771585D01*
X127082753Y-116973760D01*
X127049500Y-117183713D01*
X127049500Y-117396286D01*
X127070082Y-117526239D01*
X127082754Y-117606243D01*
X127124318Y-117734164D01*
X127148444Y-117808414D01*
X127244951Y-117997820D01*
X127369890Y-118169786D01*
X127520213Y-118320109D01*
X127692182Y-118445050D01*
X127700946Y-118449516D01*
X127751742Y-118497491D01*
X127768536Y-118565312D01*
X127745998Y-118631447D01*
X127700946Y-118670484D01*
X127692182Y-118674949D01*
X127520213Y-118799890D01*
X127369890Y-118950213D01*
X127244951Y-119122179D01*
X127148444Y-119311585D01*
X127082753Y-119513760D01*
X127049500Y-119723713D01*
X127049500Y-119936286D01*
X127070082Y-120066239D01*
X127082754Y-120146243D01*
X127122449Y-120268412D01*
X127148444Y-120348414D01*
X127244951Y-120537820D01*
X127369890Y-120709786D01*
X127520213Y-120860109D01*
X127692179Y-120985048D01*
X127692181Y-120985049D01*
X127692184Y-120985051D01*
X127701493Y-120989794D01*
X127752290Y-121037766D01*
X127769087Y-121105587D01*
X127746552Y-121171722D01*
X127701502Y-121210762D01*
X127692443Y-121215378D01*
X127520540Y-121340272D01*
X127520535Y-121340276D01*
X127370276Y-121490535D01*
X127370272Y-121490540D01*
X127245379Y-121662442D01*
X127148904Y-121851782D01*
X127083242Y-122053870D01*
X127083242Y-122053873D01*
X127072769Y-122120000D01*
X127966988Y-122120000D01*
X127934075Y-122177007D01*
X127900000Y-122304174D01*
X127900000Y-122435826D01*
X127934075Y-122562993D01*
X127966988Y-122620000D01*
X127072769Y-122620000D01*
X127083242Y-122686126D01*
X127083242Y-122686129D01*
X127148904Y-122888217D01*
X127245379Y-123077557D01*
X127370272Y-123249459D01*
X127370276Y-123249464D01*
X127520535Y-123399723D01*
X127520540Y-123399727D01*
X127692444Y-123524622D01*
X127702048Y-123529516D01*
X127752844Y-123577491D01*
X127769638Y-123645312D01*
X127747100Y-123711447D01*
X127702048Y-123750484D01*
X127692444Y-123755377D01*
X127520540Y-123880272D01*
X127520535Y-123880276D01*
X127370276Y-124030535D01*
X127370272Y-124030540D01*
X127245379Y-124202442D01*
X127148904Y-124391782D01*
X127083242Y-124593870D01*
X127083242Y-124593873D01*
X127072769Y-124660000D01*
X127966988Y-124660000D01*
X127934075Y-124717007D01*
X127900000Y-124844174D01*
X127900000Y-124975826D01*
X127934075Y-125102993D01*
X127966988Y-125160000D01*
X127072769Y-125160000D01*
X127083242Y-125226126D01*
X127083242Y-125226129D01*
X127148904Y-125428217D01*
X127245379Y-125617557D01*
X127370272Y-125789459D01*
X127370276Y-125789464D01*
X127483946Y-125903134D01*
X127517431Y-125964457D01*
X127512447Y-126034149D01*
X127470575Y-126090082D01*
X127439598Y-126106997D01*
X127307671Y-126156202D01*
X127307664Y-126156206D01*
X127192455Y-126242452D01*
X127192452Y-126242455D01*
X127106206Y-126357664D01*
X127106202Y-126357671D01*
X127055908Y-126492517D01*
X127050738Y-126540609D01*
X127049501Y-126552123D01*
X127049500Y-126552135D01*
X127049500Y-128347870D01*
X127049501Y-128347876D01*
X127055908Y-128407483D01*
X127106202Y-128542328D01*
X127106206Y-128542335D01*
X127192452Y-128657544D01*
X127192455Y-128657547D01*
X127307664Y-128743793D01*
X127307671Y-128743797D01*
X127442517Y-128794091D01*
X127442516Y-128794091D01*
X127449444Y-128794835D01*
X127502127Y-128800500D01*
X129297872Y-128800499D01*
X129357483Y-128794091D01*
X129492331Y-128743796D01*
X129607546Y-128657546D01*
X129693796Y-128542331D01*
X129744091Y-128407483D01*
X129750500Y-128347873D01*
X129750499Y-126552128D01*
X129744091Y-126492517D01*
X129742050Y-126487046D01*
X129693797Y-126357671D01*
X129693793Y-126357664D01*
X129607547Y-126242455D01*
X129607544Y-126242452D01*
X129492335Y-126156206D01*
X129492328Y-126156202D01*
X129360401Y-126106997D01*
X129304467Y-126065126D01*
X129280050Y-125999662D01*
X129294902Y-125931389D01*
X129316053Y-125903133D01*
X129429728Y-125789458D01*
X129554620Y-125617557D01*
X129651095Y-125428217D01*
X129692062Y-125302135D01*
X134129500Y-125302135D01*
X134129500Y-127097870D01*
X134129501Y-127097876D01*
X134135908Y-127157483D01*
X134186202Y-127292328D01*
X134186206Y-127292335D01*
X134272452Y-127407544D01*
X134272455Y-127407547D01*
X134387664Y-127493793D01*
X134387671Y-127493797D01*
X134522517Y-127544091D01*
X134522516Y-127544091D01*
X134529444Y-127544835D01*
X134582127Y-127550500D01*
X136377872Y-127550499D01*
X136437483Y-127544091D01*
X136572331Y-127493796D01*
X136687546Y-127407546D01*
X136773796Y-127292331D01*
X136823002Y-127160401D01*
X136864872Y-127104468D01*
X136930337Y-127080050D01*
X136998610Y-127094901D01*
X137026865Y-127116053D01*
X137140535Y-127229723D01*
X137140540Y-127229727D01*
X137312442Y-127354620D01*
X137501782Y-127451095D01*
X137703871Y-127516757D01*
X137770000Y-127527231D01*
X137770000Y-126633012D01*
X137827007Y-126665925D01*
X137954174Y-126700000D01*
X138085826Y-126700000D01*
X138212993Y-126665925D01*
X138270000Y-126633012D01*
X138270000Y-127527230D01*
X138336126Y-127516757D01*
X138336129Y-127516757D01*
X138538217Y-127451095D01*
X138727557Y-127354620D01*
X138899459Y-127229727D01*
X138899464Y-127229723D01*
X139049723Y-127079464D01*
X139049727Y-127079459D01*
X139174620Y-126907558D01*
X139179232Y-126898507D01*
X139227205Y-126847709D01*
X139295025Y-126830912D01*
X139361161Y-126853447D01*
X139400204Y-126898504D01*
X139404949Y-126907817D01*
X139529890Y-127079786D01*
X139680213Y-127230109D01*
X139852179Y-127355048D01*
X139852181Y-127355049D01*
X139852184Y-127355051D01*
X140041588Y-127451557D01*
X140243757Y-127517246D01*
X140453713Y-127550500D01*
X140453714Y-127550500D01*
X140666286Y-127550500D01*
X140666287Y-127550500D01*
X140876243Y-127517246D01*
X141078412Y-127451557D01*
X141267816Y-127355051D01*
X141354138Y-127292335D01*
X141439786Y-127230109D01*
X141439788Y-127230106D01*
X141439792Y-127230104D01*
X141590104Y-127079792D01*
X141590106Y-127079788D01*
X141590109Y-127079786D01*
X141675553Y-126962181D01*
X141715051Y-126907816D01*
X141719793Y-126898508D01*
X141767763Y-126847711D01*
X141835583Y-126830911D01*
X141901719Y-126853445D01*
X141940763Y-126898500D01*
X141945377Y-126907555D01*
X142070272Y-127079459D01*
X142070276Y-127079464D01*
X142220535Y-127229723D01*
X142220540Y-127229727D01*
X142392442Y-127354620D01*
X142581782Y-127451095D01*
X142783871Y-127516757D01*
X142850000Y-127527231D01*
X142850000Y-126633012D01*
X142907007Y-126665925D01*
X143034174Y-126700000D01*
X143165826Y-126700000D01*
X143292993Y-126665925D01*
X143350000Y-126633012D01*
X143350000Y-127527230D01*
X143416126Y-127516757D01*
X143416129Y-127516757D01*
X143618217Y-127451095D01*
X143807557Y-127354620D01*
X143979459Y-127229727D01*
X143979464Y-127229723D01*
X144129723Y-127079464D01*
X144129727Y-127079459D01*
X144254620Y-126907557D01*
X144351095Y-126718217D01*
X144416757Y-126516129D01*
X144416757Y-126516126D01*
X144427231Y-126450000D01*
X143533012Y-126450000D01*
X143565925Y-126392993D01*
X143600000Y-126265826D01*
X143600000Y-126134174D01*
X143565925Y-126007007D01*
X143533012Y-125950000D01*
X144427231Y-125950000D01*
X144423040Y-125923543D01*
X148379499Y-125923543D01*
X148417947Y-126116829D01*
X148417950Y-126116839D01*
X148493364Y-126298907D01*
X148493371Y-126298920D01*
X148602860Y-126462781D01*
X148602863Y-126462785D01*
X148742214Y-126602136D01*
X148742218Y-126602139D01*
X148906079Y-126711628D01*
X148906092Y-126711635D01*
X149088160Y-126787049D01*
X149088165Y-126787051D01*
X149088169Y-126787051D01*
X149088170Y-126787052D01*
X149281456Y-126825500D01*
X149281459Y-126825500D01*
X149478543Y-126825500D01*
X149608582Y-126799632D01*
X149671835Y-126787051D01*
X149853914Y-126711632D01*
X150017782Y-126602139D01*
X150157139Y-126462782D01*
X150266632Y-126298914D01*
X150342051Y-126116835D01*
X150354632Y-126053582D01*
X150380500Y-125923543D01*
X150380500Y-124926456D01*
X150342052Y-124733170D01*
X150342051Y-124733169D01*
X150342051Y-124733165D01*
X150335358Y-124717007D01*
X150266635Y-124551092D01*
X150266628Y-124551079D01*
X150157139Y-124387218D01*
X150157136Y-124387214D01*
X150017785Y-124247863D01*
X150017781Y-124247860D01*
X149853920Y-124138371D01*
X149853907Y-124138364D01*
X149671839Y-124062950D01*
X149671829Y-124062947D01*
X149478543Y-124024500D01*
X149478541Y-124024500D01*
X149281459Y-124024500D01*
X149281457Y-124024500D01*
X149088170Y-124062947D01*
X149088160Y-124062950D01*
X148906092Y-124138364D01*
X148906079Y-124138371D01*
X148742218Y-124247860D01*
X148742214Y-124247863D01*
X148602863Y-124387214D01*
X148602860Y-124387218D01*
X148493371Y-124551079D01*
X148493364Y-124551092D01*
X148417950Y-124733160D01*
X148417947Y-124733170D01*
X148379500Y-124926456D01*
X148379500Y-124926459D01*
X148379500Y-125923541D01*
X148379500Y-125923543D01*
X148379499Y-125923543D01*
X144423040Y-125923543D01*
X144416757Y-125883873D01*
X144416757Y-125883870D01*
X144351095Y-125681782D01*
X144254620Y-125492442D01*
X144129727Y-125320540D01*
X144129723Y-125320535D01*
X143979464Y-125170276D01*
X143979459Y-125170272D01*
X143807557Y-125045379D01*
X143779047Y-125030852D01*
X143618215Y-124948903D01*
X143416124Y-124883241D01*
X143350000Y-124872768D01*
X143350000Y-125766988D01*
X143292993Y-125734075D01*
X143165826Y-125700000D01*
X143034174Y-125700000D01*
X142907007Y-125734075D01*
X142850000Y-125766988D01*
X142850000Y-124872768D01*
X142849999Y-124872768D01*
X142783875Y-124883241D01*
X142581784Y-124948903D01*
X142392442Y-125045379D01*
X142220540Y-125170272D01*
X142220535Y-125170276D01*
X142070276Y-125320535D01*
X142070272Y-125320540D01*
X141945378Y-125492443D01*
X141940762Y-125501502D01*
X141892784Y-125552295D01*
X141824963Y-125569087D01*
X141758829Y-125546546D01*
X141719794Y-125501493D01*
X141715051Y-125492184D01*
X141715049Y-125492181D01*
X141715048Y-125492179D01*
X141590109Y-125320213D01*
X141439786Y-125169890D01*
X141267820Y-125044951D01*
X141078414Y-124948444D01*
X141078413Y-124948443D01*
X141078412Y-124948443D01*
X140876243Y-124882754D01*
X140876241Y-124882753D01*
X140876240Y-124882753D01*
X140714957Y-124857208D01*
X140666287Y-124849500D01*
X140453713Y-124849500D01*
X140405042Y-124857208D01*
X140243760Y-124882753D01*
X140142672Y-124915598D01*
X140109248Y-124926459D01*
X140041585Y-124948444D01*
X139852179Y-125044951D01*
X139680213Y-125169890D01*
X139529890Y-125320213D01*
X139404949Y-125492182D01*
X139400202Y-125501499D01*
X139352227Y-125552293D01*
X139284405Y-125569087D01*
X139218271Y-125546548D01*
X139179234Y-125501495D01*
X139174622Y-125492444D01*
X139049727Y-125320540D01*
X139049723Y-125320535D01*
X138899464Y-125170276D01*
X138899459Y-125170272D01*
X138727557Y-125045379D01*
X138538215Y-124948903D01*
X138336124Y-124883241D01*
X138270000Y-124872768D01*
X138270000Y-125766988D01*
X138212993Y-125734075D01*
X138085826Y-125700000D01*
X137954174Y-125700000D01*
X137827007Y-125734075D01*
X137770000Y-125766988D01*
X137770000Y-124872768D01*
X137769999Y-124872768D01*
X137703875Y-124883241D01*
X137501784Y-124948903D01*
X137312442Y-125045379D01*
X137140541Y-125170271D01*
X137026865Y-125283947D01*
X136965542Y-125317431D01*
X136895850Y-125312447D01*
X136839917Y-125270575D01*
X136823002Y-125239598D01*
X136817978Y-125226129D01*
X136788182Y-125146239D01*
X136773797Y-125107671D01*
X136773793Y-125107664D01*
X136687547Y-124992455D01*
X136687544Y-124992452D01*
X136572335Y-124906206D01*
X136572328Y-124906202D01*
X136437482Y-124855908D01*
X136437483Y-124855908D01*
X136377883Y-124849501D01*
X136377881Y-124849500D01*
X136377873Y-124849500D01*
X136377864Y-124849500D01*
X134582129Y-124849500D01*
X134582123Y-124849501D01*
X134522516Y-124855908D01*
X134387671Y-124906202D01*
X134387664Y-124906206D01*
X134272455Y-124992452D01*
X134272452Y-124992455D01*
X134186206Y-125107664D01*
X134186202Y-125107671D01*
X134135908Y-125242517D01*
X134129501Y-125302116D01*
X134129500Y-125302135D01*
X129692062Y-125302135D01*
X129705591Y-125260496D01*
X129705593Y-125260489D01*
X129716758Y-125226124D01*
X129727231Y-125160000D01*
X128833012Y-125160000D01*
X128865925Y-125102993D01*
X128900000Y-124975826D01*
X128900000Y-124844174D01*
X128865925Y-124717007D01*
X128833012Y-124660000D01*
X129727231Y-124660000D01*
X129716757Y-124593873D01*
X129716757Y-124593870D01*
X129651095Y-124391782D01*
X129554620Y-124202442D01*
X129429727Y-124030540D01*
X129429723Y-124030535D01*
X129279464Y-123880276D01*
X129279459Y-123880272D01*
X129107558Y-123755379D01*
X129097954Y-123750486D01*
X129047157Y-123702512D01*
X129030361Y-123634692D01*
X129052897Y-123568556D01*
X129097954Y-123529514D01*
X129107558Y-123524620D01*
X129279459Y-123399727D01*
X129279464Y-123399723D01*
X129429723Y-123249464D01*
X129429727Y-123249459D01*
X129554620Y-123077557D01*
X129651095Y-122888217D01*
X129716757Y-122686129D01*
X129716757Y-122686126D01*
X129727231Y-122620000D01*
X128833012Y-122620000D01*
X128865925Y-122562993D01*
X128900000Y-122435826D01*
X128900000Y-122304174D01*
X128865925Y-122177007D01*
X128833012Y-122120000D01*
X129727231Y-122120000D01*
X129716757Y-122053873D01*
X129716757Y-122053870D01*
X129664664Y-121893543D01*
X148379499Y-121893543D01*
X148417947Y-122086829D01*
X148417950Y-122086839D01*
X148493364Y-122268907D01*
X148493371Y-122268920D01*
X148602860Y-122432781D01*
X148602863Y-122432785D01*
X148742214Y-122572136D01*
X148742218Y-122572139D01*
X148906079Y-122681628D01*
X148906092Y-122681635D01*
X149088160Y-122757049D01*
X149088165Y-122757051D01*
X149088169Y-122757051D01*
X149088170Y-122757052D01*
X149281456Y-122795500D01*
X149281459Y-122795500D01*
X149478543Y-122795500D01*
X149608582Y-122769632D01*
X149671835Y-122757051D01*
X149843057Y-122686129D01*
X149853907Y-122681635D01*
X149853907Y-122681634D01*
X149853914Y-122681632D01*
X150017782Y-122572139D01*
X150157139Y-122432782D01*
X150266632Y-122268914D01*
X150270540Y-122259478D01*
X150314376Y-122205074D01*
X150380669Y-122183004D01*
X150448369Y-122200279D01*
X150453028Y-122203432D01*
X150456633Y-122205513D01*
X150456635Y-122205515D01*
X150587865Y-122281281D01*
X150734234Y-122320500D01*
X150734236Y-122320500D01*
X150885764Y-122320500D01*
X150885766Y-122320500D01*
X151032135Y-122281281D01*
X151163365Y-122205515D01*
X151270515Y-122098365D01*
X151346281Y-121967135D01*
X151385500Y-121820766D01*
X151385500Y-121669234D01*
X151346281Y-121522865D01*
X151270515Y-121391635D01*
X151163365Y-121284485D01*
X151080087Y-121236404D01*
X151032136Y-121208719D01*
X150926819Y-121180500D01*
X150885766Y-121169500D01*
X150734234Y-121169500D01*
X150587862Y-121208719D01*
X150566499Y-121221054D01*
X150498598Y-121237525D01*
X150432572Y-121214673D01*
X150389382Y-121159751D01*
X150380500Y-121113666D01*
X150380500Y-120596456D01*
X150342052Y-120403170D01*
X150342051Y-120403169D01*
X150342051Y-120403165D01*
X150286235Y-120268412D01*
X150266635Y-120221092D01*
X150266628Y-120221079D01*
X150157139Y-120057218D01*
X150157136Y-120057214D01*
X150017785Y-119917863D01*
X150017781Y-119917860D01*
X149853920Y-119808371D01*
X149853907Y-119808364D01*
X149671839Y-119732950D01*
X149671829Y-119732947D01*
X149478543Y-119694500D01*
X149478541Y-119694500D01*
X149281459Y-119694500D01*
X149281457Y-119694500D01*
X149088170Y-119732947D01*
X149088160Y-119732950D01*
X148906092Y-119808364D01*
X148906079Y-119808371D01*
X148742218Y-119917860D01*
X148742214Y-119917863D01*
X148602863Y-120057214D01*
X148602860Y-120057218D01*
X148493371Y-120221079D01*
X148493364Y-120221092D01*
X148417950Y-120403160D01*
X148417947Y-120403170D01*
X148379500Y-120596456D01*
X148379500Y-120596459D01*
X148379500Y-121893541D01*
X148379500Y-121893543D01*
X148379499Y-121893543D01*
X129664664Y-121893543D01*
X129651095Y-121851782D01*
X129554620Y-121662442D01*
X129429727Y-121490540D01*
X129429723Y-121490535D01*
X129279464Y-121340276D01*
X129279459Y-121340272D01*
X129107555Y-121215377D01*
X129098500Y-121210763D01*
X129047706Y-121162788D01*
X129030912Y-121094966D01*
X129053451Y-121028832D01*
X129098508Y-120989793D01*
X129107816Y-120985051D01*
X129211782Y-120909516D01*
X129279786Y-120860109D01*
X129279788Y-120860106D01*
X129279792Y-120860104D01*
X129430104Y-120709792D01*
X129430106Y-120709788D01*
X129430109Y-120709786D01*
X129555051Y-120537816D01*
X129556962Y-120534067D01*
X129623659Y-120403165D01*
X129651557Y-120348412D01*
X129717246Y-120146243D01*
X129750500Y-119936287D01*
X129750500Y-119723713D01*
X129717246Y-119513757D01*
X129703506Y-119471473D01*
X129701512Y-119401635D01*
X129733755Y-119345478D01*
X135742417Y-113336819D01*
X135803740Y-113303334D01*
X135830098Y-113300500D01*
X141096561Y-113300500D01*
X141163600Y-113320185D01*
X141209355Y-113372989D01*
X141219299Y-113442147D01*
X141190274Y-113505703D01*
X141165452Y-113527602D01*
X141089711Y-113578210D01*
X141089707Y-113578213D01*
X140978213Y-113689707D01*
X140978210Y-113689711D01*
X140890609Y-113820814D01*
X140890602Y-113820827D01*
X140830264Y-113966498D01*
X140830261Y-113966510D01*
X140799500Y-114121153D01*
X140799500Y-114278846D01*
X140830261Y-114433489D01*
X140830264Y-114433501D01*
X140890604Y-114579177D01*
X140890605Y-114579179D01*
X140891899Y-114581115D01*
X140892264Y-114582282D01*
X140893476Y-114584549D01*
X140893045Y-114584778D01*
X140912773Y-114647794D01*
X140894285Y-114715173D01*
X140891899Y-114718885D01*
X140890605Y-114720820D01*
X140890604Y-114720822D01*
X140830264Y-114866498D01*
X140830261Y-114866510D01*
X140799500Y-115021153D01*
X140799500Y-115178846D01*
X140830261Y-115333489D01*
X140830264Y-115333501D01*
X140890602Y-115479172D01*
X140890609Y-115479185D01*
X140978210Y-115610288D01*
X140978213Y-115610292D01*
X141089707Y-115721786D01*
X141089711Y-115721789D01*
X141220814Y-115809390D01*
X141220827Y-115809397D01*
X141363652Y-115868556D01*
X141366503Y-115869737D01*
X141521153Y-115900499D01*
X141521156Y-115900500D01*
X141521158Y-115900500D01*
X141678844Y-115900500D01*
X141678845Y-115900499D01*
X141833497Y-115869737D01*
X141979179Y-115809394D01*
X141981110Y-115808103D01*
X141982276Y-115807737D01*
X141984546Y-115806525D01*
X141984776Y-115806955D01*
X142047786Y-115787226D01*
X142115166Y-115805710D01*
X142118850Y-115808077D01*
X142120821Y-115809394D01*
X142120824Y-115809395D01*
X142120827Y-115809397D01*
X142263652Y-115868556D01*
X142266503Y-115869737D01*
X142421153Y-115900499D01*
X142421156Y-115900500D01*
X142421158Y-115900500D01*
X142578844Y-115900500D01*
X142578845Y-115900499D01*
X142733497Y-115869737D01*
X142879179Y-115809394D01*
X143010289Y-115721789D01*
X143121789Y-115610289D01*
X143209394Y-115479179D01*
X143269737Y-115333497D01*
X143292083Y-115221158D01*
X143292084Y-115221153D01*
X144349500Y-115221153D01*
X144349500Y-115378846D01*
X144380261Y-115533489D01*
X144380264Y-115533501D01*
X144440602Y-115679172D01*
X144440609Y-115679185D01*
X144528210Y-115810288D01*
X144528213Y-115810292D01*
X144639707Y-115921786D01*
X144639711Y-115921789D01*
X144770814Y-116009390D01*
X144770827Y-116009397D01*
X144880801Y-116054949D01*
X144916503Y-116069737D01*
X145025646Y-116091447D01*
X145071153Y-116100499D01*
X145071156Y-116100500D01*
X145071158Y-116100500D01*
X145228844Y-116100500D01*
X145228845Y-116100499D01*
X145383497Y-116069737D01*
X145529179Y-116009394D01*
X145660289Y-115921789D01*
X145771789Y-115810289D01*
X145859394Y-115679179D01*
X145919737Y-115533497D01*
X145950500Y-115378842D01*
X145950500Y-115221158D01*
X145950500Y-115221155D01*
X145950499Y-115221153D01*
X145943986Y-115188412D01*
X145919737Y-115066503D01*
X145900955Y-115021158D01*
X145859397Y-114920827D01*
X145859390Y-114920814D01*
X145771789Y-114789711D01*
X145771786Y-114789707D01*
X145660292Y-114678213D01*
X145660288Y-114678210D01*
X145529185Y-114590609D01*
X145529172Y-114590602D01*
X145383501Y-114530264D01*
X145383489Y-114530261D01*
X145228845Y-114499500D01*
X145228842Y-114499500D01*
X145071158Y-114499500D01*
X145071155Y-114499500D01*
X144916510Y-114530261D01*
X144916498Y-114530264D01*
X144770827Y-114590602D01*
X144770814Y-114590609D01*
X144639711Y-114678210D01*
X144639707Y-114678213D01*
X144528213Y-114789707D01*
X144528210Y-114789711D01*
X144440609Y-114920814D01*
X144440602Y-114920827D01*
X144380264Y-115066498D01*
X144380261Y-115066510D01*
X144349500Y-115221153D01*
X143292084Y-115221153D01*
X143298107Y-115190875D01*
X143298107Y-115190874D01*
X143300500Y-115178844D01*
X143300500Y-115021155D01*
X143300499Y-115021153D01*
X143280543Y-114920827D01*
X143269737Y-114866503D01*
X143269202Y-114865211D01*
X143209397Y-114720827D01*
X143209394Y-114720822D01*
X143209394Y-114720821D01*
X143208103Y-114718889D01*
X143207737Y-114717723D01*
X143206525Y-114715454D01*
X143206955Y-114715223D01*
X143187226Y-114652214D01*
X143205710Y-114584834D01*
X143208100Y-114581115D01*
X143209394Y-114579179D01*
X143269737Y-114433497D01*
X143300500Y-114278842D01*
X143300500Y-114121158D01*
X143300500Y-114121155D01*
X143299526Y-114116260D01*
X143299526Y-114116258D01*
X143299525Y-114116255D01*
X143295924Y-114098151D01*
X147303673Y-114098151D01*
X147303673Y-114255844D01*
X147334434Y-114410487D01*
X147334437Y-114410499D01*
X147394775Y-114556170D01*
X147394782Y-114556183D01*
X147482383Y-114687286D01*
X147482386Y-114687290D01*
X147593880Y-114798784D01*
X147593884Y-114798787D01*
X147724987Y-114886388D01*
X147725000Y-114886395D01*
X147833050Y-114931150D01*
X147870676Y-114946735D01*
X148025326Y-114977497D01*
X148025329Y-114977498D01*
X148025331Y-114977498D01*
X148183017Y-114977498D01*
X148183018Y-114977497D01*
X148337670Y-114946735D01*
X148483352Y-114886392D01*
X148614462Y-114798787D01*
X148725962Y-114687287D01*
X148813567Y-114556177D01*
X148873910Y-114410495D01*
X148904673Y-114255840D01*
X148904673Y-114098156D01*
X148904673Y-114098153D01*
X148904672Y-114098151D01*
X148888274Y-114015713D01*
X148873910Y-113943501D01*
X148847129Y-113878846D01*
X148813570Y-113797825D01*
X148813563Y-113797812D01*
X148725962Y-113666709D01*
X148725959Y-113666705D01*
X148614465Y-113555211D01*
X148614461Y-113555208D01*
X148483358Y-113467607D01*
X148483345Y-113467600D01*
X148337674Y-113407262D01*
X148337662Y-113407259D01*
X148183018Y-113376498D01*
X148183015Y-113376498D01*
X148025331Y-113376498D01*
X148025328Y-113376498D01*
X147870683Y-113407259D01*
X147870671Y-113407262D01*
X147725000Y-113467600D01*
X147724987Y-113467607D01*
X147593884Y-113555208D01*
X147593880Y-113555211D01*
X147482386Y-113666705D01*
X147482383Y-113666709D01*
X147394782Y-113797812D01*
X147394775Y-113797825D01*
X147334437Y-113943496D01*
X147334434Y-113943508D01*
X147303673Y-114098151D01*
X143295924Y-114098151D01*
X143283061Y-114033489D01*
X143269737Y-113966503D01*
X143267946Y-113962179D01*
X143209397Y-113820827D01*
X143209390Y-113820814D01*
X143121789Y-113689711D01*
X143121786Y-113689707D01*
X143010292Y-113578213D01*
X143010288Y-113578210D01*
X142934548Y-113527602D01*
X142889743Y-113473990D01*
X142881036Y-113404665D01*
X142911190Y-113341637D01*
X142970634Y-113304918D01*
X143003439Y-113300500D01*
X145570234Y-113300500D01*
X145637273Y-113320185D01*
X145639125Y-113321398D01*
X145770814Y-113409390D01*
X145770827Y-113409397D01*
X145916498Y-113469735D01*
X145916503Y-113469737D01*
X146021418Y-113490606D01*
X146071153Y-113500499D01*
X146071156Y-113500500D01*
X146071158Y-113500500D01*
X146228844Y-113500500D01*
X146228845Y-113500499D01*
X146383497Y-113469737D01*
X146501592Y-113420821D01*
X146529172Y-113409397D01*
X146529172Y-113409396D01*
X146529179Y-113409394D01*
X146660289Y-113321789D01*
X146771789Y-113210289D01*
X146859394Y-113079179D01*
X146862410Y-113071899D01*
X146879655Y-113030264D01*
X146919737Y-112933497D01*
X146950500Y-112778842D01*
X146950500Y-112621158D01*
X146950500Y-112621155D01*
X146950499Y-112621153D01*
X146945496Y-112596003D01*
X146919737Y-112466503D01*
X146911345Y-112446243D01*
X146859397Y-112320827D01*
X146859390Y-112320814D01*
X146771789Y-112189711D01*
X146771786Y-112189707D01*
X146744260Y-112162181D01*
X146710775Y-112100858D01*
X146715759Y-112031166D01*
X146757631Y-111975233D01*
X146823095Y-111950816D01*
X146831941Y-111950500D01*
X151399872Y-111950500D01*
X151399888Y-111950501D01*
X151407484Y-111950501D01*
X151565595Y-111950501D01*
X151565598Y-111950501D01*
X151718326Y-111909577D01*
X151718328Y-111909575D01*
X151718330Y-111909575D01*
X151725840Y-111906465D01*
X151726667Y-111908462D01*
X151776710Y-111895052D01*
X151820833Y-111895052D01*
X151820834Y-111895051D01*
X151975486Y-111864289D01*
X152097482Y-111813757D01*
X152121161Y-111803949D01*
X152121161Y-111803948D01*
X152121168Y-111803946D01*
X152252278Y-111716341D01*
X152363778Y-111604841D01*
X152451383Y-111473731D01*
X152456615Y-111461101D01*
X152501975Y-111351590D01*
X152511726Y-111328049D01*
X152542489Y-111173394D01*
X152542489Y-111015710D01*
X152542489Y-111015707D01*
X152513603Y-110870491D01*
X152519830Y-110800899D01*
X152532118Y-110777408D01*
X152550756Y-110749514D01*
X152592958Y-110686355D01*
X152653301Y-110540673D01*
X152684064Y-110386018D01*
X152684064Y-110228334D01*
X152684064Y-110228331D01*
X152684063Y-110228329D01*
X152653302Y-110073686D01*
X152653301Y-110073679D01*
X152633801Y-110026603D01*
X152626333Y-109957137D01*
X152645262Y-109910261D01*
X152659392Y-109889115D01*
X152719735Y-109743433D01*
X152750498Y-109588778D01*
X152750498Y-109431094D01*
X152750498Y-109431091D01*
X152750497Y-109431089D01*
X152735115Y-109353759D01*
X152719735Y-109276439D01*
X152693760Y-109213729D01*
X152659395Y-109130763D01*
X152659387Y-109130749D01*
X152658261Y-109129063D01*
X152657942Y-109128044D01*
X152656519Y-109125382D01*
X152657024Y-109125112D01*
X152637385Y-109062386D01*
X152655871Y-108995006D01*
X152707851Y-108948317D01*
X152718303Y-108943892D01*
X152727523Y-108940477D01*
X152768951Y-108932237D01*
X152914633Y-108871894D01*
X152917007Y-108870307D01*
X152926865Y-108866657D01*
X152953598Y-108864807D01*
X152979828Y-108859336D01*
X152991628Y-108862177D01*
X152996568Y-108861836D01*
X153001535Y-108864563D01*
X153017376Y-108868378D01*
X153101430Y-108903194D01*
X153220351Y-108926849D01*
X153256080Y-108933956D01*
X153256083Y-108933957D01*
X153325500Y-108933957D01*
X153392539Y-108953642D01*
X153438294Y-109006446D01*
X153449500Y-109057957D01*
X153449500Y-111444654D01*
X153429815Y-111511693D01*
X153377011Y-111557448D01*
X153349692Y-111566271D01*
X153216508Y-111592763D01*
X153216498Y-111592766D01*
X153070827Y-111653104D01*
X153070814Y-111653111D01*
X152939711Y-111740712D01*
X152939707Y-111740715D01*
X152828213Y-111852209D01*
X152828210Y-111852213D01*
X152740609Y-111983316D01*
X152740602Y-111983329D01*
X152680264Y-112129000D01*
X152680261Y-112129012D01*
X152649500Y-112283655D01*
X152649500Y-112441348D01*
X152680261Y-112595991D01*
X152680264Y-112596003D01*
X152740602Y-112741674D01*
X152740609Y-112741687D01*
X152828210Y-112872790D01*
X152828213Y-112872794D01*
X152939707Y-112984288D01*
X152939711Y-112984291D01*
X153070814Y-113071892D01*
X153070827Y-113071899D01*
X153185591Y-113119435D01*
X153216503Y-113132239D01*
X153356589Y-113160104D01*
X153371153Y-113163001D01*
X153371156Y-113163002D01*
X153371158Y-113163002D01*
X153528844Y-113163002D01*
X153528845Y-113163001D01*
X153683497Y-113132239D01*
X153829179Y-113071896D01*
X153960289Y-112984291D01*
X154071789Y-112872791D01*
X154105537Y-112822282D01*
X154125445Y-112805644D01*
X154142634Y-112786199D01*
X154151823Y-112783599D01*
X154159149Y-112777477D01*
X154184894Y-112774242D01*
X154209865Y-112767178D01*
X154218998Y-112769958D01*
X154228473Y-112768768D01*
X154251882Y-112779967D01*
X154276707Y-112787524D01*
X154285117Y-112795868D01*
X154291501Y-112798922D01*
X154303150Y-112810899D01*
X154307781Y-112816352D01*
X154345491Y-112872788D01*
X154413366Y-112940663D01*
X154416631Y-112944507D01*
X154428860Y-112972000D01*
X154443287Y-112998421D01*
X154444139Y-113006350D01*
X154445027Y-113008346D01*
X154444630Y-113010920D01*
X154446121Y-113024780D01*
X154446121Y-113111377D01*
X154447182Y-113119435D01*
X154446758Y-113119490D01*
X154449500Y-113140312D01*
X154449500Y-113216143D01*
X154449499Y-113216161D01*
X154449499Y-113381867D01*
X154449498Y-113381867D01*
X154449499Y-113381870D01*
X154490423Y-113534598D01*
X154490424Y-113534600D01*
X154490423Y-113534600D01*
X154499027Y-113549501D01*
X154499028Y-113549502D01*
X154569477Y-113671525D01*
X154569481Y-113671530D01*
X154671469Y-113773518D01*
X154704954Y-113834841D01*
X154699970Y-113904533D01*
X154658098Y-113960466D01*
X154652679Y-113964301D01*
X154575739Y-114015710D01*
X154575735Y-114015713D01*
X154464241Y-114127207D01*
X154464238Y-114127211D01*
X154376637Y-114258314D01*
X154376630Y-114258327D01*
X154316292Y-114403998D01*
X154316289Y-114404010D01*
X154285528Y-114558653D01*
X154285528Y-114716346D01*
X154316289Y-114870989D01*
X154316292Y-114871001D01*
X154376630Y-115016672D01*
X154376637Y-115016685D01*
X154464238Y-115147788D01*
X154464241Y-115147792D01*
X154575735Y-115259286D01*
X154575739Y-115259289D01*
X154706842Y-115346890D01*
X154706855Y-115346897D01*
X154794384Y-115383152D01*
X154852531Y-115407237D01*
X155007181Y-115437999D01*
X155007184Y-115438000D01*
X155007186Y-115438000D01*
X155164872Y-115438000D01*
X155164873Y-115437999D01*
X155319525Y-115407237D01*
X155465207Y-115346894D01*
X155508002Y-115318298D01*
X155538300Y-115308811D01*
X155568045Y-115297717D01*
X155571399Y-115298446D01*
X155574675Y-115297421D01*
X155605296Y-115305820D01*
X155636318Y-115312569D01*
X155640030Y-115315348D01*
X155642056Y-115315904D01*
X155664572Y-115333720D01*
X155714004Y-115383152D01*
X155747489Y-115444475D01*
X155742505Y-115514167D01*
X155722183Y-115549489D01*
X155720321Y-115551757D01*
X155632715Y-115682868D01*
X155632708Y-115682881D01*
X155572370Y-115828552D01*
X155572367Y-115828564D01*
X155541606Y-115983207D01*
X155541606Y-116140900D01*
X155572367Y-116295543D01*
X155572370Y-116295555D01*
X155632708Y-116441226D01*
X155632715Y-116441239D01*
X155720316Y-116572342D01*
X155720319Y-116572346D01*
X155831813Y-116683840D01*
X155831817Y-116683843D01*
X155962920Y-116771444D01*
X155962933Y-116771451D01*
X156045078Y-116805476D01*
X156108609Y-116831791D01*
X156246443Y-116859208D01*
X156263259Y-116862553D01*
X156263262Y-116862554D01*
X156263264Y-116862554D01*
X156420950Y-116862554D01*
X156420951Y-116862553D01*
X156575603Y-116831791D01*
X156721285Y-116771448D01*
X156852395Y-116683843D01*
X156852403Y-116683834D01*
X156854655Y-116681988D01*
X156856073Y-116681385D01*
X156857460Y-116680459D01*
X156857635Y-116680721D01*
X156918963Y-116654671D01*
X156987831Y-116666458D01*
X157021007Y-116690155D01*
X158913181Y-118582329D01*
X158946666Y-118643652D01*
X158949500Y-118670010D01*
X158949500Y-119910216D01*
X158929815Y-119977255D01*
X158877011Y-120023010D01*
X158807853Y-120032954D01*
X158744297Y-120003929D01*
X158737819Y-119997897D01*
X158657785Y-119917863D01*
X158657781Y-119917860D01*
X158493920Y-119808371D01*
X158493907Y-119808364D01*
X158311839Y-119732950D01*
X158311829Y-119732947D01*
X158118543Y-119694500D01*
X158118541Y-119694500D01*
X157921459Y-119694500D01*
X157921457Y-119694500D01*
X157728170Y-119732947D01*
X157728160Y-119732950D01*
X157546092Y-119808364D01*
X157546079Y-119808371D01*
X157382218Y-119917860D01*
X157382214Y-119917863D01*
X157242863Y-120057214D01*
X157242860Y-120057218D01*
X157133371Y-120221079D01*
X157133364Y-120221092D01*
X157057950Y-120403160D01*
X157057947Y-120403170D01*
X157019500Y-120596456D01*
X157019500Y-121113666D01*
X156999815Y-121180705D01*
X156947011Y-121226460D01*
X156877853Y-121236404D01*
X156833501Y-121221054D01*
X156812137Y-121208719D01*
X156706819Y-121180500D01*
X156665766Y-121169500D01*
X156514234Y-121169500D01*
X156367863Y-121208719D01*
X156236635Y-121284485D01*
X156236632Y-121284487D01*
X156129487Y-121391632D01*
X156129485Y-121391635D01*
X156053719Y-121522863D01*
X156014500Y-121669234D01*
X156014500Y-121820765D01*
X156053719Y-121967136D01*
X156072330Y-121999370D01*
X156129485Y-122098365D01*
X156236635Y-122205515D01*
X156367865Y-122281281D01*
X156514234Y-122320500D01*
X156514236Y-122320500D01*
X156665764Y-122320500D01*
X156665766Y-122320500D01*
X156812135Y-122281281D01*
X156943365Y-122205515D01*
X156943366Y-122205513D01*
X156950403Y-122201451D01*
X156951749Y-122203783D01*
X157004553Y-122183357D01*
X157073001Y-122197381D01*
X157123001Y-122246185D01*
X157129458Y-122259474D01*
X157133367Y-122268913D01*
X157133371Y-122268920D01*
X157242860Y-122432781D01*
X157242863Y-122432785D01*
X157382214Y-122572136D01*
X157382218Y-122572139D01*
X157546079Y-122681628D01*
X157546092Y-122681635D01*
X157728160Y-122757049D01*
X157728165Y-122757051D01*
X157728169Y-122757051D01*
X157728170Y-122757052D01*
X157921456Y-122795500D01*
X157921459Y-122795500D01*
X158118543Y-122795500D01*
X158248582Y-122769632D01*
X158311835Y-122757051D01*
X158483057Y-122686129D01*
X158493907Y-122681635D01*
X158493907Y-122681634D01*
X158493914Y-122681632D01*
X158657782Y-122572139D01*
X158678771Y-122551150D01*
X158737819Y-122492103D01*
X158799142Y-122458618D01*
X158868834Y-122463602D01*
X158924767Y-122505474D01*
X158949184Y-122570938D01*
X158949500Y-122579784D01*
X158949500Y-124240216D01*
X158929815Y-124307255D01*
X158877011Y-124353010D01*
X158807853Y-124362954D01*
X158744297Y-124333929D01*
X158737819Y-124327897D01*
X158657785Y-124247863D01*
X158657781Y-124247860D01*
X158493920Y-124138371D01*
X158493907Y-124138364D01*
X158311839Y-124062950D01*
X158311829Y-124062947D01*
X158118543Y-124024500D01*
X158118541Y-124024500D01*
X157921459Y-124024500D01*
X157921457Y-124024500D01*
X157728170Y-124062947D01*
X157728160Y-124062950D01*
X157546092Y-124138364D01*
X157546079Y-124138371D01*
X157382218Y-124247860D01*
X157382214Y-124247863D01*
X157242863Y-124387214D01*
X157242860Y-124387218D01*
X157133371Y-124551079D01*
X157133364Y-124551092D01*
X157057950Y-124733160D01*
X157057947Y-124733170D01*
X157019500Y-124926456D01*
X157019500Y-124926459D01*
X157019500Y-125923541D01*
X157019500Y-125923543D01*
X157019499Y-125923543D01*
X157057947Y-126116829D01*
X157057950Y-126116839D01*
X157133364Y-126298907D01*
X157133371Y-126298920D01*
X157242860Y-126462781D01*
X157242863Y-126462785D01*
X157382214Y-126602136D01*
X157382218Y-126602139D01*
X157546079Y-126711628D01*
X157546092Y-126711635D01*
X157728160Y-126787049D01*
X157728165Y-126787051D01*
X157728169Y-126787051D01*
X157728170Y-126787052D01*
X157921456Y-126825500D01*
X157921459Y-126825500D01*
X158118543Y-126825500D01*
X158248582Y-126799632D01*
X158311835Y-126787051D01*
X158493914Y-126711632D01*
X158657782Y-126602139D01*
X158694328Y-126565593D01*
X158737819Y-126522103D01*
X158757255Y-126511490D01*
X158773989Y-126496990D01*
X158787320Y-126495073D01*
X158799142Y-126488618D01*
X158821228Y-126490197D01*
X158843147Y-126487046D01*
X158855398Y-126492641D01*
X158868834Y-126493602D01*
X158886560Y-126506872D01*
X158906703Y-126516071D01*
X158913985Y-126527402D01*
X158924767Y-126535474D01*
X158932504Y-126556219D01*
X158944477Y-126574849D01*
X158947628Y-126596767D01*
X158949184Y-126600938D01*
X158949500Y-126609784D01*
X158949500Y-126663330D01*
X158949499Y-126663348D01*
X158949499Y-126829054D01*
X158949498Y-126829054D01*
X158968108Y-126898507D01*
X158990423Y-126981785D01*
X159010468Y-127016503D01*
X159047156Y-127080050D01*
X159069479Y-127118715D01*
X159188349Y-127237585D01*
X159188355Y-127237590D01*
X160615139Y-128664374D01*
X160615149Y-128664385D01*
X160731285Y-128780521D01*
X160796397Y-128818112D01*
X160844613Y-128868679D01*
X160857837Y-128937286D01*
X160831869Y-129002151D01*
X160774956Y-129042680D01*
X160734398Y-129049500D01*
X126524500Y-129049500D01*
X126457461Y-129029815D01*
X126411706Y-128977011D01*
X126400500Y-128925500D01*
X126400500Y-82221153D01*
X131499500Y-82221153D01*
X131499500Y-82378846D01*
X131530261Y-82533489D01*
X131530264Y-82533501D01*
X131590602Y-82679172D01*
X131590609Y-82679185D01*
X131678210Y-82810288D01*
X131678213Y-82810292D01*
X131789707Y-82921786D01*
X131789711Y-82921789D01*
X131920814Y-83009390D01*
X131920827Y-83009397D01*
X132066498Y-83069735D01*
X132066503Y-83069737D01*
X132216131Y-83099500D01*
X132221153Y-83100499D01*
X132221156Y-83100500D01*
X132221158Y-83100500D01*
X132271637Y-83100500D01*
X132304688Y-83104986D01*
X132315390Y-83107945D01*
X132318216Y-83109577D01*
X132416571Y-83135931D01*
X132470942Y-83150500D01*
X132470943Y-83150500D01*
X135172650Y-83150500D01*
X135239689Y-83170185D01*
X135285444Y-83222989D01*
X135295388Y-83292147D01*
X135275752Y-83343391D01*
X135190609Y-83470814D01*
X135190602Y-83470827D01*
X135130264Y-83616498D01*
X135130261Y-83616510D01*
X135099500Y-83771153D01*
X135099500Y-83928846D01*
X135130261Y-84083489D01*
X135130264Y-84083501D01*
X135190602Y-84229172D01*
X135190609Y-84229185D01*
X135278210Y-84360288D01*
X135278213Y-84360292D01*
X135389707Y-84471786D01*
X135389711Y-84471789D01*
X135520814Y-84559390D01*
X135520827Y-84559397D01*
X135666498Y-84619735D01*
X135666503Y-84619737D01*
X135821153Y-84650499D01*
X135821156Y-84650500D01*
X135821158Y-84650500D01*
X135978844Y-84650500D01*
X135978845Y-84650499D01*
X136133497Y-84619737D01*
X136279179Y-84559394D01*
X136410289Y-84471789D01*
X136521789Y-84360289D01*
X136609394Y-84229179D01*
X136669737Y-84083497D01*
X136700500Y-83928842D01*
X136700500Y-83771158D01*
X136700500Y-83771155D01*
X136700499Y-83771153D01*
X136691514Y-83725983D01*
X136669737Y-83616503D01*
X136669735Y-83616498D01*
X136609397Y-83470827D01*
X136609390Y-83470814D01*
X136524248Y-83343391D01*
X136503370Y-83276714D01*
X136521854Y-83209334D01*
X136573833Y-83162643D01*
X136627350Y-83150500D01*
X147599903Y-83150500D01*
X147666942Y-83170185D01*
X147687584Y-83186819D01*
X148165425Y-83664660D01*
X148198910Y-83725983D01*
X148199361Y-83728149D01*
X148230261Y-83883491D01*
X148230264Y-83883501D01*
X148290602Y-84029172D01*
X148290609Y-84029185D01*
X148378602Y-84160874D01*
X148399480Y-84227551D01*
X148399500Y-84229765D01*
X148399500Y-85063330D01*
X148399499Y-85063348D01*
X148399499Y-85229054D01*
X148399498Y-85229054D01*
X148440424Y-85381789D01*
X148440425Y-85381790D01*
X148458302Y-85412753D01*
X148458303Y-85412754D01*
X148519477Y-85518712D01*
X148519481Y-85518717D01*
X148638349Y-85637585D01*
X148638355Y-85637590D01*
X156615139Y-93614374D01*
X156615149Y-93614385D01*
X156619479Y-93618715D01*
X156619480Y-93618716D01*
X156731284Y-93730520D01*
X156731286Y-93730521D01*
X156731290Y-93730524D01*
X156781610Y-93759576D01*
X156781615Y-93759578D01*
X156868209Y-93809574D01*
X156868210Y-93809575D01*
X156868212Y-93809575D01*
X156868215Y-93809577D01*
X157020943Y-93850501D01*
X157020946Y-93850501D01*
X157186653Y-93850501D01*
X157186669Y-93850500D01*
X160695065Y-93850500D01*
X160762104Y-93870185D01*
X160763909Y-93871366D01*
X160820821Y-93909394D01*
X160820823Y-93909395D01*
X160820827Y-93909397D01*
X160917600Y-93949481D01*
X160966503Y-93969737D01*
X161121153Y-94000499D01*
X161121156Y-94000500D01*
X161121158Y-94000500D01*
X161278844Y-94000500D01*
X161278845Y-94000499D01*
X161433497Y-93969737D01*
X161573882Y-93911588D01*
X161579172Y-93909397D01*
X161579172Y-93909396D01*
X161579179Y-93909394D01*
X161710289Y-93821789D01*
X161727304Y-93804772D01*
X161765238Y-93778869D01*
X161773830Y-93775105D01*
X161831785Y-93759577D01*
X161896551Y-93722184D01*
X161936862Y-93698910D01*
X162004760Y-93682440D01*
X162070787Y-93705293D01*
X162086539Y-93718618D01*
X162189707Y-93821786D01*
X162189711Y-93821789D01*
X162320814Y-93909390D01*
X162320827Y-93909397D01*
X162417600Y-93949481D01*
X162466503Y-93969737D01*
X162621153Y-94000499D01*
X162621156Y-94000500D01*
X162621158Y-94000500D01*
X162778844Y-94000500D01*
X162778845Y-94000499D01*
X162933497Y-93969737D01*
X163073882Y-93911588D01*
X163079172Y-93909397D01*
X163079172Y-93909396D01*
X163079179Y-93909394D01*
X163210289Y-93821789D01*
X163321789Y-93710289D01*
X163409394Y-93579179D01*
X163469737Y-93433497D01*
X163500500Y-93278842D01*
X163500500Y-93121158D01*
X163500500Y-93121155D01*
X163500499Y-93121153D01*
X163491257Y-93074692D01*
X163469737Y-92966503D01*
X163450518Y-92920104D01*
X163409397Y-92820827D01*
X163409390Y-92820814D01*
X163321789Y-92689711D01*
X163321786Y-92689707D01*
X163228337Y-92596258D01*
X163194852Y-92534935D01*
X163199836Y-92465243D01*
X163228335Y-92420898D01*
X166708506Y-88940728D01*
X166708511Y-88940724D01*
X166718714Y-88930520D01*
X166718716Y-88930520D01*
X166830520Y-88818716D01*
X166909577Y-88681784D01*
X166950500Y-88529057D01*
X166950500Y-83871153D01*
X170249500Y-83871153D01*
X170249500Y-84028846D01*
X170280261Y-84183489D01*
X170280264Y-84183501D01*
X170340602Y-84329172D01*
X170340609Y-84329185D01*
X170428210Y-84460288D01*
X170428213Y-84460292D01*
X170539707Y-84571786D01*
X170539711Y-84571789D01*
X170670814Y-84659390D01*
X170670827Y-84659397D01*
X170770060Y-84700500D01*
X170816503Y-84719737D01*
X170971153Y-84750499D01*
X170971156Y-84750500D01*
X170971158Y-84750500D01*
X171128844Y-84750500D01*
X171128845Y-84750499D01*
X171283497Y-84719737D01*
X171429179Y-84659394D01*
X171560289Y-84571789D01*
X171671789Y-84460289D01*
X171759394Y-84329179D01*
X171819737Y-84183497D01*
X171850500Y-84028842D01*
X171850500Y-83871158D01*
X171850500Y-83871155D01*
X171850499Y-83871153D01*
X171837156Y-83804075D01*
X171819737Y-83716503D01*
X171801213Y-83671782D01*
X171759397Y-83570827D01*
X171759390Y-83570814D01*
X171671789Y-83439711D01*
X171671786Y-83439707D01*
X171560292Y-83328213D01*
X171560288Y-83328210D01*
X171429185Y-83240609D01*
X171429172Y-83240602D01*
X171283501Y-83180264D01*
X171283489Y-83180261D01*
X171128845Y-83149500D01*
X171128842Y-83149500D01*
X170971158Y-83149500D01*
X170971155Y-83149500D01*
X170816510Y-83180261D01*
X170816498Y-83180264D01*
X170670827Y-83240602D01*
X170670814Y-83240609D01*
X170539711Y-83328210D01*
X170539707Y-83328213D01*
X170428213Y-83439707D01*
X170428210Y-83439711D01*
X170340609Y-83570814D01*
X170340602Y-83570827D01*
X170280264Y-83716498D01*
X170280261Y-83716510D01*
X170249500Y-83871153D01*
X166950500Y-83871153D01*
X166950500Y-83779765D01*
X166970185Y-83712726D01*
X166971398Y-83710874D01*
X167059390Y-83579185D01*
X167059390Y-83579184D01*
X167059394Y-83579179D01*
X167062719Y-83571153D01*
X167099463Y-83482442D01*
X167119737Y-83433497D01*
X167150500Y-83278842D01*
X167150500Y-83121158D01*
X167150500Y-83121155D01*
X167150499Y-83121153D01*
X167132012Y-83028213D01*
X167119737Y-82966503D01*
X167109906Y-82942768D01*
X167059397Y-82820827D01*
X167059390Y-82820814D01*
X166971789Y-82689711D01*
X166971786Y-82689707D01*
X166860292Y-82578213D01*
X166860288Y-82578210D01*
X166729185Y-82490609D01*
X166729172Y-82490602D01*
X166583501Y-82430264D01*
X166583489Y-82430261D01*
X166428845Y-82399500D01*
X166428842Y-82399500D01*
X166271158Y-82399500D01*
X166271155Y-82399500D01*
X166116510Y-82430261D01*
X166116498Y-82430264D01*
X165970827Y-82490602D01*
X165970814Y-82490609D01*
X165839711Y-82578210D01*
X165839707Y-82578213D01*
X165728213Y-82689707D01*
X165728210Y-82689711D01*
X165640609Y-82820814D01*
X165640602Y-82820827D01*
X165580264Y-82966498D01*
X165580261Y-82966510D01*
X165549500Y-83121153D01*
X165549500Y-83278846D01*
X165580261Y-83433489D01*
X165580264Y-83433501D01*
X165640602Y-83579172D01*
X165640609Y-83579185D01*
X165728602Y-83710874D01*
X165749480Y-83777551D01*
X165749500Y-83779765D01*
X165749500Y-88149902D01*
X165729815Y-88216941D01*
X165713181Y-88237583D01*
X161552805Y-92397958D01*
X161491482Y-92431443D01*
X161439885Y-92429372D01*
X161439472Y-92431451D01*
X161278845Y-92399500D01*
X161278842Y-92399500D01*
X161121158Y-92399500D01*
X161121155Y-92399500D01*
X160966510Y-92430261D01*
X160966498Y-92430264D01*
X160820827Y-92490602D01*
X160820814Y-92490609D01*
X160689711Y-92578210D01*
X160689707Y-92578213D01*
X160654742Y-92613180D01*
X160593420Y-92646666D01*
X160567060Y-92649500D01*
X157400097Y-92649500D01*
X157333058Y-92629815D01*
X157312416Y-92613181D01*
X149636819Y-84937584D01*
X149603334Y-84876261D01*
X149600500Y-84849903D01*
X149600500Y-84229765D01*
X149620185Y-84162726D01*
X149621398Y-84160874D01*
X149709390Y-84029185D01*
X149709390Y-84029184D01*
X149709394Y-84029179D01*
X149769737Y-83883497D01*
X149782138Y-83821153D01*
X152999500Y-83821153D01*
X152999500Y-83978846D01*
X153030261Y-84133489D01*
X153030264Y-84133501D01*
X153090602Y-84279172D01*
X153090609Y-84279185D01*
X153178210Y-84410288D01*
X153178213Y-84410292D01*
X153289707Y-84521786D01*
X153289711Y-84521789D01*
X153420814Y-84609390D01*
X153420827Y-84609397D01*
X153566498Y-84669735D01*
X153566503Y-84669737D01*
X153721153Y-84700499D01*
X153721156Y-84700500D01*
X153721158Y-84700500D01*
X153878844Y-84700500D01*
X153878845Y-84700499D01*
X154033497Y-84669737D01*
X154179179Y-84609394D01*
X154310289Y-84521789D01*
X154421789Y-84410289D01*
X154509394Y-84279179D01*
X154569737Y-84133497D01*
X154600500Y-83978842D01*
X154600500Y-83821158D01*
X154600500Y-83821155D01*
X154600499Y-83821153D01*
X154594476Y-83790874D01*
X154569737Y-83666503D01*
X154568974Y-83664660D01*
X154509397Y-83520827D01*
X154509390Y-83520814D01*
X154421789Y-83389711D01*
X154421786Y-83389707D01*
X154310292Y-83278213D01*
X154310288Y-83278210D01*
X154179185Y-83190609D01*
X154179172Y-83190602D01*
X154033501Y-83130264D01*
X154033489Y-83130261D01*
X153878845Y-83099500D01*
X153878842Y-83099500D01*
X153721158Y-83099500D01*
X153721155Y-83099500D01*
X153566510Y-83130261D01*
X153566498Y-83130264D01*
X153420827Y-83190602D01*
X153420814Y-83190609D01*
X153289711Y-83278210D01*
X153289707Y-83278213D01*
X153178213Y-83389707D01*
X153178210Y-83389711D01*
X153090609Y-83520814D01*
X153090602Y-83520827D01*
X153030264Y-83666498D01*
X153030261Y-83666510D01*
X152999500Y-83821153D01*
X149782138Y-83821153D01*
X149792083Y-83771158D01*
X149800500Y-83728844D01*
X149800500Y-83571155D01*
X149800499Y-83571153D01*
X149780543Y-83470827D01*
X149769737Y-83416503D01*
X149758981Y-83390535D01*
X149709397Y-83270827D01*
X149709390Y-83270814D01*
X149621789Y-83139711D01*
X149621786Y-83139707D01*
X149510292Y-83028213D01*
X149510288Y-83028210D01*
X149379185Y-82940609D01*
X149379172Y-82940602D01*
X149233501Y-82880264D01*
X149233491Y-82880261D01*
X149078149Y-82849361D01*
X149016238Y-82816976D01*
X149014660Y-82815425D01*
X148387590Y-82188355D01*
X148387588Y-82188352D01*
X148268717Y-82069481D01*
X148268716Y-82069480D01*
X148181904Y-82019360D01*
X148181904Y-82019359D01*
X148181900Y-82019358D01*
X148131785Y-81990423D01*
X147979057Y-81949499D01*
X147820943Y-81949499D01*
X147813347Y-81949499D01*
X147813331Y-81949500D01*
X133094836Y-81949500D01*
X133027797Y-81929815D01*
X132991734Y-81894391D01*
X132921789Y-81789710D01*
X132810292Y-81678213D01*
X132810288Y-81678210D01*
X132679185Y-81590609D01*
X132679172Y-81590602D01*
X132533501Y-81530264D01*
X132533489Y-81530261D01*
X132378845Y-81499500D01*
X132378842Y-81499500D01*
X132221158Y-81499500D01*
X132221155Y-81499500D01*
X132066510Y-81530261D01*
X132066498Y-81530264D01*
X131920827Y-81590602D01*
X131920814Y-81590609D01*
X131789711Y-81678210D01*
X131789707Y-81678213D01*
X131678213Y-81789707D01*
X131678210Y-81789711D01*
X131590609Y-81920814D01*
X131590602Y-81920827D01*
X131530264Y-82066498D01*
X131530261Y-82066510D01*
X131499500Y-82221153D01*
X126400500Y-82221153D01*
X126400500Y-65071153D01*
X129949500Y-65071153D01*
X129949500Y-65228846D01*
X129980261Y-65383489D01*
X129980264Y-65383501D01*
X130040602Y-65529172D01*
X130040609Y-65529185D01*
X130128210Y-65660288D01*
X130128213Y-65660292D01*
X130239707Y-65771786D01*
X130239711Y-65771789D01*
X130370814Y-65859390D01*
X130370827Y-65859397D01*
X130516498Y-65919735D01*
X130516503Y-65919737D01*
X130671153Y-65950499D01*
X130671156Y-65950500D01*
X130671158Y-65950500D01*
X130828844Y-65950500D01*
X130828845Y-65950499D01*
X130983497Y-65919737D01*
X131129179Y-65859394D01*
X131260289Y-65771789D01*
X131371789Y-65660289D01*
X131459394Y-65529179D01*
X131519737Y-65383497D01*
X131550500Y-65228842D01*
X131550500Y-65071158D01*
X131550500Y-65071155D01*
X131550499Y-65071153D01*
X131524264Y-64939257D01*
X131520662Y-64921153D01*
X147699500Y-64921153D01*
X147699500Y-65078846D01*
X147730261Y-65233489D01*
X147730264Y-65233501D01*
X147790602Y-65379172D01*
X147790609Y-65379185D01*
X147878210Y-65510288D01*
X147878213Y-65510292D01*
X147989707Y-65621786D01*
X147989711Y-65621789D01*
X148120814Y-65709390D01*
X148120827Y-65709397D01*
X148266498Y-65769735D01*
X148266503Y-65769737D01*
X148421153Y-65800499D01*
X148421156Y-65800500D01*
X148421158Y-65800500D01*
X148578844Y-65800500D01*
X148578845Y-65800499D01*
X148733497Y-65769737D01*
X148879179Y-65709394D01*
X149010289Y-65621789D01*
X149121789Y-65510289D01*
X149209394Y-65379179D01*
X149269737Y-65233497D01*
X149300500Y-65078842D01*
X149300500Y-64921158D01*
X149300500Y-64921155D01*
X149300499Y-64921153D01*
X165249500Y-64921153D01*
X165249500Y-65078846D01*
X165280261Y-65233489D01*
X165280264Y-65233501D01*
X165340602Y-65379172D01*
X165340609Y-65379185D01*
X165428210Y-65510288D01*
X165428213Y-65510292D01*
X165539707Y-65621786D01*
X165539711Y-65621789D01*
X165670814Y-65709390D01*
X165670827Y-65709397D01*
X165816498Y-65769735D01*
X165816503Y-65769737D01*
X165971153Y-65800499D01*
X165971156Y-65800500D01*
X165971158Y-65800500D01*
X166128844Y-65800500D01*
X166128845Y-65800499D01*
X166283497Y-65769737D01*
X166429179Y-65709394D01*
X166560289Y-65621789D01*
X166671789Y-65510289D01*
X166759394Y-65379179D01*
X166819737Y-65233497D01*
X166850500Y-65078842D01*
X166850500Y-64921158D01*
X166850500Y-64921155D01*
X166850499Y-64921153D01*
X166820596Y-64770821D01*
X166819737Y-64766503D01*
X166819735Y-64766498D01*
X166759397Y-64620827D01*
X166759390Y-64620814D01*
X166671789Y-64489711D01*
X166671786Y-64489707D01*
X166560292Y-64378213D01*
X166560288Y-64378210D01*
X166429185Y-64290609D01*
X166429172Y-64290602D01*
X166283501Y-64230264D01*
X166283489Y-64230261D01*
X166128845Y-64199500D01*
X166128842Y-64199500D01*
X165971158Y-64199500D01*
X165971155Y-64199500D01*
X165816510Y-64230261D01*
X165816498Y-64230264D01*
X165670827Y-64290602D01*
X165670814Y-64290609D01*
X165539711Y-64378210D01*
X165539707Y-64378213D01*
X165428213Y-64489707D01*
X165428210Y-64489711D01*
X165340609Y-64620814D01*
X165340602Y-64620827D01*
X165280264Y-64766498D01*
X165280261Y-64766510D01*
X165249500Y-64921153D01*
X149300499Y-64921153D01*
X149270596Y-64770821D01*
X149269737Y-64766503D01*
X149269735Y-64766498D01*
X149209397Y-64620827D01*
X149209390Y-64620814D01*
X149121789Y-64489711D01*
X149121786Y-64489707D01*
X149010292Y-64378213D01*
X149010288Y-64378210D01*
X148879185Y-64290609D01*
X148879172Y-64290602D01*
X148733501Y-64230264D01*
X148733489Y-64230261D01*
X148578845Y-64199500D01*
X148578842Y-64199500D01*
X148421158Y-64199500D01*
X148421155Y-64199500D01*
X148266510Y-64230261D01*
X148266498Y-64230264D01*
X148120827Y-64290602D01*
X148120814Y-64290609D01*
X147989711Y-64378210D01*
X147989707Y-64378213D01*
X147878213Y-64489707D01*
X147878210Y-64489711D01*
X147790609Y-64620814D01*
X147790602Y-64620827D01*
X147730264Y-64766498D01*
X147730261Y-64766510D01*
X147699500Y-64921153D01*
X131520662Y-64921153D01*
X131519738Y-64916507D01*
X131519735Y-64916498D01*
X131459397Y-64770827D01*
X131459390Y-64770814D01*
X131371789Y-64639711D01*
X131371786Y-64639707D01*
X131260292Y-64528213D01*
X131260288Y-64528210D01*
X131129185Y-64440609D01*
X131129172Y-64440602D01*
X130983501Y-64380264D01*
X130983489Y-64380261D01*
X130828845Y-64349500D01*
X130828842Y-64349500D01*
X130671158Y-64349500D01*
X130671155Y-64349500D01*
X130516510Y-64380261D01*
X130516498Y-64380264D01*
X130370827Y-64440602D01*
X130370814Y-64440609D01*
X130239711Y-64528210D01*
X130239707Y-64528213D01*
X130128213Y-64639707D01*
X130128210Y-64639711D01*
X130040609Y-64770814D01*
X130040602Y-64770827D01*
X129980264Y-64916498D01*
X129980261Y-64916510D01*
X129949500Y-65071153D01*
X126400500Y-65071153D01*
X126400500Y-55462135D01*
X131052000Y-55462135D01*
X131052000Y-57257870D01*
X131052001Y-57257876D01*
X131058408Y-57317483D01*
X131108702Y-57452328D01*
X131108706Y-57452335D01*
X131194952Y-57567544D01*
X131194955Y-57567547D01*
X131310164Y-57653793D01*
X131310171Y-57653797D01*
X131445017Y-57704091D01*
X131445016Y-57704091D01*
X131451944Y-57704835D01*
X131504627Y-57710500D01*
X133300372Y-57710499D01*
X133359983Y-57704091D01*
X133494831Y-57653796D01*
X133610046Y-57567546D01*
X133696296Y-57452331D01*
X133745502Y-57320401D01*
X133787372Y-57264468D01*
X133852837Y-57240050D01*
X133921110Y-57254901D01*
X133949365Y-57276053D01*
X134063035Y-57389723D01*
X134063040Y-57389727D01*
X134234942Y-57514620D01*
X134424282Y-57611095D01*
X134626371Y-57676757D01*
X134692500Y-57687231D01*
X134692500Y-56793012D01*
X134749507Y-56825925D01*
X134876674Y-56860000D01*
X135008326Y-56860000D01*
X135135493Y-56825925D01*
X135192500Y-56793012D01*
X135192500Y-57687230D01*
X135258626Y-57676757D01*
X135258629Y-57676757D01*
X135460717Y-57611095D01*
X135650057Y-57514620D01*
X135821959Y-57389727D01*
X135821964Y-57389723D01*
X135972223Y-57239464D01*
X135972227Y-57239459D01*
X136097120Y-57067557D01*
X136193595Y-56878217D01*
X136259257Y-56676129D01*
X136259257Y-56676126D01*
X136269731Y-56610000D01*
X135375512Y-56610000D01*
X135408425Y-56552993D01*
X135442500Y-56425826D01*
X135442500Y-56294174D01*
X135408425Y-56167007D01*
X135375512Y-56110000D01*
X136269731Y-56110000D01*
X136259257Y-56043873D01*
X136259257Y-56043870D01*
X136193595Y-55841782D01*
X136097120Y-55652442D01*
X136009393Y-55531694D01*
X136009391Y-55531692D01*
X135972223Y-55480535D01*
X135953823Y-55462135D01*
X148689500Y-55462135D01*
X148689500Y-57257870D01*
X148689501Y-57257876D01*
X148695908Y-57317483D01*
X148746202Y-57452328D01*
X148746206Y-57452335D01*
X148832452Y-57567544D01*
X148832455Y-57567547D01*
X148947664Y-57653793D01*
X148947671Y-57653797D01*
X149082517Y-57704091D01*
X149082516Y-57704091D01*
X149089444Y-57704835D01*
X149142127Y-57710500D01*
X150937872Y-57710499D01*
X150997483Y-57704091D01*
X151132331Y-57653796D01*
X151247546Y-57567546D01*
X151333796Y-57452331D01*
X151383002Y-57320401D01*
X151424872Y-57264468D01*
X151490337Y-57240050D01*
X151558610Y-57254901D01*
X151586865Y-57276053D01*
X151700535Y-57389723D01*
X151700540Y-57389727D01*
X151872442Y-57514620D01*
X152061782Y-57611095D01*
X152263871Y-57676757D01*
X152330000Y-57687231D01*
X152330000Y-56793012D01*
X152387007Y-56825925D01*
X152514174Y-56860000D01*
X152645826Y-56860000D01*
X152772993Y-56825925D01*
X152830000Y-56793012D01*
X152830000Y-57687230D01*
X152896126Y-57676757D01*
X152896129Y-57676757D01*
X153098217Y-57611095D01*
X153287557Y-57514620D01*
X153459459Y-57389727D01*
X153459464Y-57389723D01*
X153609723Y-57239464D01*
X153609727Y-57239459D01*
X153734620Y-57067557D01*
X153831095Y-56878217D01*
X153896757Y-56676129D01*
X153896757Y-56676126D01*
X153907231Y-56610000D01*
X153013012Y-56610000D01*
X153045925Y-56552993D01*
X153080000Y-56425826D01*
X153080000Y-56294174D01*
X153045925Y-56167007D01*
X153013012Y-56110000D01*
X153907231Y-56110000D01*
X153896757Y-56043873D01*
X153896757Y-56043870D01*
X153831095Y-55841782D01*
X153734620Y-55652442D01*
X153646893Y-55531694D01*
X153646891Y-55531692D01*
X153609723Y-55480535D01*
X153591323Y-55462135D01*
X166327000Y-55462135D01*
X166327000Y-57257870D01*
X166327001Y-57257876D01*
X166333408Y-57317483D01*
X166383702Y-57452328D01*
X166383706Y-57452335D01*
X166469952Y-57567544D01*
X166469955Y-57567547D01*
X166585164Y-57653793D01*
X166585171Y-57653797D01*
X166720017Y-57704091D01*
X166720016Y-57704091D01*
X166726944Y-57704835D01*
X166779627Y-57710500D01*
X168575372Y-57710499D01*
X168634983Y-57704091D01*
X168769831Y-57653796D01*
X168885046Y-57567546D01*
X168971296Y-57452331D01*
X169020502Y-57320401D01*
X169062372Y-57264468D01*
X169127837Y-57240050D01*
X169196110Y-57254901D01*
X169224365Y-57276053D01*
X169338035Y-57389723D01*
X169338040Y-57389727D01*
X169509942Y-57514620D01*
X169699282Y-57611095D01*
X169901371Y-57676757D01*
X169967500Y-57687231D01*
X169967500Y-56793012D01*
X170024507Y-56825925D01*
X170151674Y-56860000D01*
X170283326Y-56860000D01*
X170410493Y-56825925D01*
X170467500Y-56793012D01*
X170467500Y-57687230D01*
X170533626Y-57676757D01*
X170533629Y-57676757D01*
X170735717Y-57611095D01*
X170925057Y-57514620D01*
X171096959Y-57389727D01*
X171096964Y-57389723D01*
X171247223Y-57239464D01*
X171247227Y-57239459D01*
X171372120Y-57067557D01*
X171468595Y-56878217D01*
X171534257Y-56676129D01*
X171534257Y-56676126D01*
X171544731Y-56610000D01*
X170650512Y-56610000D01*
X170683425Y-56552993D01*
X170717500Y-56425826D01*
X170717500Y-56294174D01*
X170683425Y-56167007D01*
X170650512Y-56110000D01*
X171544731Y-56110000D01*
X171534257Y-56043873D01*
X171534257Y-56043870D01*
X171468595Y-55841782D01*
X171372120Y-55652442D01*
X171247227Y-55480540D01*
X171247223Y-55480535D01*
X171096964Y-55330276D01*
X171096959Y-55330272D01*
X170925057Y-55205379D01*
X170735715Y-55108903D01*
X170533624Y-55043241D01*
X170467500Y-55032768D01*
X170467500Y-55926988D01*
X170410493Y-55894075D01*
X170283326Y-55860000D01*
X170151674Y-55860000D01*
X170024507Y-55894075D01*
X169967500Y-55926988D01*
X169967500Y-55032768D01*
X169967499Y-55032768D01*
X169901375Y-55043241D01*
X169699284Y-55108903D01*
X169509942Y-55205379D01*
X169338041Y-55330271D01*
X169224365Y-55443947D01*
X169163042Y-55477431D01*
X169093350Y-55472447D01*
X169037417Y-55430575D01*
X169020502Y-55399598D01*
X168971297Y-55267671D01*
X168971293Y-55267664D01*
X168885047Y-55152455D01*
X168885044Y-55152452D01*
X168769835Y-55066206D01*
X168769828Y-55066202D01*
X168634982Y-55015908D01*
X168634983Y-55015908D01*
X168575383Y-55009501D01*
X168575381Y-55009500D01*
X168575373Y-55009500D01*
X168575364Y-55009500D01*
X166779629Y-55009500D01*
X166779623Y-55009501D01*
X166720016Y-55015908D01*
X166585171Y-55066202D01*
X166585164Y-55066206D01*
X166469955Y-55152452D01*
X166469952Y-55152455D01*
X166383706Y-55267664D01*
X166383702Y-55267671D01*
X166333408Y-55402517D01*
X166327001Y-55462116D01*
X166327000Y-55462135D01*
X153591323Y-55462135D01*
X153459464Y-55330276D01*
X153459459Y-55330272D01*
X153287557Y-55205379D01*
X153098215Y-55108903D01*
X152896124Y-55043241D01*
X152830000Y-55032768D01*
X152830000Y-55926988D01*
X152772993Y-55894075D01*
X152645826Y-55860000D01*
X152514174Y-55860000D01*
X152387007Y-55894075D01*
X152330000Y-55926988D01*
X152330000Y-55032768D01*
X152329999Y-55032768D01*
X152263875Y-55043241D01*
X152061784Y-55108903D01*
X151872442Y-55205379D01*
X151700541Y-55330271D01*
X151586865Y-55443947D01*
X151525542Y-55477431D01*
X151455850Y-55472447D01*
X151399917Y-55430575D01*
X151383002Y-55399598D01*
X151333797Y-55267671D01*
X151333793Y-55267664D01*
X151247547Y-55152455D01*
X151247544Y-55152452D01*
X151132335Y-55066206D01*
X151132328Y-55066202D01*
X150997482Y-55015908D01*
X150997483Y-55015908D01*
X150937883Y-55009501D01*
X150937881Y-55009500D01*
X150937873Y-55009500D01*
X150937864Y-55009500D01*
X149142129Y-55009500D01*
X149142123Y-55009501D01*
X149082516Y-55015908D01*
X148947671Y-55066202D01*
X148947664Y-55066206D01*
X148832455Y-55152452D01*
X148832452Y-55152455D01*
X148746206Y-55267664D01*
X148746202Y-55267671D01*
X148695908Y-55402517D01*
X148689501Y-55462116D01*
X148689500Y-55462135D01*
X135953823Y-55462135D01*
X135821964Y-55330276D01*
X135821959Y-55330272D01*
X135650057Y-55205379D01*
X135460715Y-55108903D01*
X135258624Y-55043241D01*
X135192500Y-55032768D01*
X135192500Y-55926988D01*
X135135493Y-55894075D01*
X135008326Y-55860000D01*
X134876674Y-55860000D01*
X134749507Y-55894075D01*
X134692500Y-55926988D01*
X134692500Y-55032768D01*
X134692499Y-55032768D01*
X134626375Y-55043241D01*
X134424284Y-55108903D01*
X134234942Y-55205379D01*
X134063041Y-55330271D01*
X133949365Y-55443947D01*
X133888042Y-55477431D01*
X133818350Y-55472447D01*
X133762417Y-55430575D01*
X133745502Y-55399598D01*
X133696297Y-55267671D01*
X133696293Y-55267664D01*
X133610047Y-55152455D01*
X133610044Y-55152452D01*
X133494835Y-55066206D01*
X133494828Y-55066202D01*
X133359982Y-55015908D01*
X133359983Y-55015908D01*
X133300383Y-55009501D01*
X133300381Y-55009500D01*
X133300373Y-55009500D01*
X133300364Y-55009500D01*
X131504629Y-55009500D01*
X131504623Y-55009501D01*
X131445016Y-55015908D01*
X131310171Y-55066202D01*
X131310164Y-55066206D01*
X131194955Y-55152452D01*
X131194952Y-55152455D01*
X131108706Y-55267664D01*
X131108702Y-55267671D01*
X131058408Y-55402517D01*
X131052001Y-55462116D01*
X131052000Y-55462135D01*
X126400500Y-55462135D01*
X126400500Y-54074500D01*
X126420185Y-54007461D01*
X126472989Y-53961706D01*
X126524500Y-53950500D01*
X179575500Y-53950500D01*
X179642539Y-53970185D01*
G37*
%TD.AperFunction*%
%TA.AperFunction,Conductor*%
G36*
X176718834Y-109432914D02*
G01*
X176774767Y-109474786D01*
X176799184Y-109540250D01*
X176799500Y-109549096D01*
X176799500Y-109696286D01*
X176821005Y-109832067D01*
X176832754Y-109906243D01*
X176887158Y-110073682D01*
X176898444Y-110108414D01*
X176994951Y-110297820D01*
X177119890Y-110469786D01*
X177270213Y-110620109D01*
X177442182Y-110745050D01*
X177450946Y-110749516D01*
X177501742Y-110797491D01*
X177518536Y-110865312D01*
X177495998Y-110931447D01*
X177450946Y-110970484D01*
X177442182Y-110974949D01*
X177270213Y-111099890D01*
X177119890Y-111250213D01*
X176994951Y-111422179D01*
X176898444Y-111611585D01*
X176898443Y-111611587D01*
X176898443Y-111611588D01*
X176888724Y-111641499D01*
X176832753Y-111813760D01*
X176799500Y-112023713D01*
X176799500Y-112236286D01*
X176831978Y-112441348D01*
X176832754Y-112446243D01*
X176890117Y-112622788D01*
X176898444Y-112648414D01*
X176994951Y-112837820D01*
X177119890Y-113009786D01*
X177270213Y-113160109D01*
X177442182Y-113285050D01*
X177450946Y-113289516D01*
X177501742Y-113337491D01*
X177518536Y-113405312D01*
X177495998Y-113471447D01*
X177450946Y-113510484D01*
X177442182Y-113514949D01*
X177270213Y-113639890D01*
X177119890Y-113790213D01*
X176994951Y-113962179D01*
X176898444Y-114151585D01*
X176832753Y-114353760D01*
X176820082Y-114433762D01*
X176799500Y-114563713D01*
X176799500Y-114776287D01*
X176801626Y-114789707D01*
X176831368Y-114977497D01*
X176832754Y-114986243D01*
X176895334Y-115178844D01*
X176898444Y-115188414D01*
X176994951Y-115377820D01*
X177119890Y-115549786D01*
X177270213Y-115700109D01*
X177442182Y-115825050D01*
X177450946Y-115829516D01*
X177501742Y-115877491D01*
X177518536Y-115945312D01*
X177495998Y-116011447D01*
X177450946Y-116050484D01*
X177442182Y-116054949D01*
X177270213Y-116179890D01*
X177119890Y-116330213D01*
X176994951Y-116502179D01*
X176898444Y-116691585D01*
X176832753Y-116893760D01*
X176820082Y-116973762D01*
X176799500Y-117103713D01*
X176799500Y-117316287D01*
X176832754Y-117526243D01*
X176862575Y-117618023D01*
X176898444Y-117728414D01*
X176994951Y-117917820D01*
X177119890Y-118089786D01*
X177270213Y-118240109D01*
X177442182Y-118365050D01*
X177450946Y-118369516D01*
X177501742Y-118417491D01*
X177518536Y-118485312D01*
X177495998Y-118551447D01*
X177450946Y-118590484D01*
X177442182Y-118594949D01*
X177270213Y-118719890D01*
X177119890Y-118870213D01*
X176994951Y-119042179D01*
X176898444Y-119231585D01*
X176832753Y-119433760D01*
X176799500Y-119643713D01*
X176799500Y-119856286D01*
X176831324Y-120057218D01*
X176832754Y-120066243D01*
X176858746Y-120146239D01*
X176898444Y-120268414D01*
X176994951Y-120457820D01*
X177119890Y-120629786D01*
X177270213Y-120780109D01*
X177442182Y-120905050D01*
X177450946Y-120909516D01*
X177501742Y-120957491D01*
X177518536Y-121025312D01*
X177495998Y-121091447D01*
X177450946Y-121130484D01*
X177442182Y-121134949D01*
X177270213Y-121259890D01*
X177119890Y-121410213D01*
X176994951Y-121582179D01*
X176898444Y-121771585D01*
X176832753Y-121973760D01*
X176809591Y-122120000D01*
X176799500Y-122183713D01*
X176799500Y-122396287D01*
X176832754Y-122606243D01*
X176885994Y-122770099D01*
X176898444Y-122808414D01*
X176994951Y-122997820D01*
X177119890Y-123169786D01*
X177270213Y-123320109D01*
X177442182Y-123445050D01*
X177450946Y-123449516D01*
X177501742Y-123497491D01*
X177518536Y-123565312D01*
X177495998Y-123631447D01*
X177450946Y-123670484D01*
X177442182Y-123674949D01*
X177270213Y-123799890D01*
X177119890Y-123950213D01*
X176994951Y-124122179D01*
X176898444Y-124311585D01*
X176832753Y-124513760D01*
X176818620Y-124602993D01*
X176799500Y-124723713D01*
X176799500Y-124936287D01*
X176801498Y-124948903D01*
X176826644Y-125107671D01*
X176832754Y-125146243D01*
X176889385Y-125320535D01*
X176898444Y-125348414D01*
X176994951Y-125537820D01*
X177119890Y-125709786D01*
X177233430Y-125823326D01*
X177266915Y-125884649D01*
X177261931Y-125954341D01*
X177220059Y-126010274D01*
X177189083Y-126027189D01*
X177057669Y-126076203D01*
X177057664Y-126076206D01*
X176942455Y-126162452D01*
X176942452Y-126162455D01*
X176856206Y-126277664D01*
X176856202Y-126277671D01*
X176805908Y-126412517D01*
X176799501Y-126472116D01*
X176799500Y-126472135D01*
X176799500Y-128267870D01*
X176799501Y-128267876D01*
X176805908Y-128327483D01*
X176856202Y-128462328D01*
X176856206Y-128462335D01*
X176942452Y-128577544D01*
X176942455Y-128577547D01*
X177057664Y-128663793D01*
X177057671Y-128663797D01*
X177192517Y-128714091D01*
X177192516Y-128714091D01*
X177199444Y-128714835D01*
X177252127Y-128720500D01*
X179047872Y-128720499D01*
X179107483Y-128714091D01*
X179242331Y-128663796D01*
X179357546Y-128577546D01*
X179443796Y-128462331D01*
X179459318Y-128420715D01*
X179501189Y-128364781D01*
X179566653Y-128340364D01*
X179634926Y-128355215D01*
X179684332Y-128404620D01*
X179699500Y-128464048D01*
X179699500Y-128925500D01*
X179679815Y-128992539D01*
X179627011Y-129038294D01*
X179575500Y-129049500D01*
X163831941Y-129049500D01*
X163764902Y-129029815D01*
X163719147Y-128977011D01*
X163709203Y-128907853D01*
X163738228Y-128844297D01*
X163744260Y-128837819D01*
X163771786Y-128810292D01*
X163771789Y-128810289D01*
X163859394Y-128679179D01*
X163919737Y-128533497D01*
X163950500Y-128378842D01*
X163950500Y-128221158D01*
X163950500Y-128221155D01*
X163950499Y-128221153D01*
X163919738Y-128066510D01*
X163919737Y-128066503D01*
X163919735Y-128066498D01*
X163859397Y-127920827D01*
X163859390Y-127920814D01*
X163771789Y-127789711D01*
X163771786Y-127789707D01*
X163660292Y-127678213D01*
X163660288Y-127678210D01*
X163529185Y-127590609D01*
X163529172Y-127590602D01*
X163383501Y-127530264D01*
X163383489Y-127530261D01*
X163228845Y-127499500D01*
X163228842Y-127499500D01*
X163071158Y-127499500D01*
X163071155Y-127499500D01*
X162916510Y-127530261D01*
X162916498Y-127530264D01*
X162770827Y-127590602D01*
X162770814Y-127590609D01*
X162639125Y-127678602D01*
X162572447Y-127699480D01*
X162570234Y-127699500D01*
X161400097Y-127699500D01*
X161333058Y-127679815D01*
X161312416Y-127663181D01*
X160820388Y-127171153D01*
X164549500Y-127171153D01*
X164549500Y-127328846D01*
X164580261Y-127483489D01*
X164580264Y-127483501D01*
X164640602Y-127629172D01*
X164640609Y-127629185D01*
X164728210Y-127760288D01*
X164728213Y-127760292D01*
X164839707Y-127871786D01*
X164839711Y-127871789D01*
X164970814Y-127959390D01*
X164970827Y-127959397D01*
X165116498Y-128019735D01*
X165116503Y-128019737D01*
X165271153Y-128050499D01*
X165271156Y-128050500D01*
X165271158Y-128050500D01*
X165428844Y-128050500D01*
X165428845Y-128050499D01*
X165583497Y-128019737D01*
X165729179Y-127959394D01*
X165860289Y-127871789D01*
X165971789Y-127760289D01*
X166059394Y-127629179D01*
X166119737Y-127483497D01*
X166150500Y-127328842D01*
X166150500Y-127171158D01*
X166150500Y-127171155D01*
X166150499Y-127171153D01*
X166147780Y-127157483D01*
X166119737Y-127016503D01*
X166119735Y-127016498D01*
X166059397Y-126870827D01*
X166059390Y-126870814D01*
X165971789Y-126739711D01*
X165971786Y-126739707D01*
X165860292Y-126628213D01*
X165860288Y-126628210D01*
X165729185Y-126540609D01*
X165729172Y-126540602D01*
X165583501Y-126480264D01*
X165583489Y-126480261D01*
X165428845Y-126449500D01*
X165428842Y-126449500D01*
X165271158Y-126449500D01*
X165271155Y-126449500D01*
X165116510Y-126480261D01*
X165116498Y-126480264D01*
X164970827Y-126540602D01*
X164970814Y-126540609D01*
X164839711Y-126628210D01*
X164839707Y-126628213D01*
X164728213Y-126739707D01*
X164728210Y-126739711D01*
X164640609Y-126870814D01*
X164640602Y-126870827D01*
X164580264Y-127016498D01*
X164580261Y-127016510D01*
X164549500Y-127171153D01*
X160820388Y-127171153D01*
X160611416Y-126962181D01*
X160577931Y-126900858D01*
X160582915Y-126831166D01*
X160624787Y-126775233D01*
X160690251Y-126750816D01*
X160699097Y-126750500D01*
X161213331Y-126750500D01*
X161213347Y-126750501D01*
X161220943Y-126750501D01*
X161379054Y-126750501D01*
X161379057Y-126750501D01*
X161531785Y-126709577D01*
X161581904Y-126680639D01*
X161668716Y-126630520D01*
X161719310Y-126579924D01*
X161727194Y-126574195D01*
X161751289Y-126565593D01*
X161773740Y-126553334D01*
X161790752Y-126551504D01*
X161792996Y-126550704D01*
X161794642Y-126551086D01*
X161800098Y-126550500D01*
X161928844Y-126550500D01*
X161928845Y-126550499D01*
X162083497Y-126519737D01*
X162198465Y-126472116D01*
X162229172Y-126459397D01*
X162229172Y-126459396D01*
X162229179Y-126459394D01*
X162360289Y-126371789D01*
X162471789Y-126260289D01*
X162559394Y-126129179D01*
X162564510Y-126116829D01*
X162601639Y-126027189D01*
X162619737Y-125983497D01*
X162650500Y-125828842D01*
X162650500Y-125671158D01*
X162650500Y-125671155D01*
X162650499Y-125671153D01*
X162639838Y-125617557D01*
X162619737Y-125516503D01*
X162619735Y-125516498D01*
X162559397Y-125370827D01*
X162559390Y-125370814D01*
X162471789Y-125239711D01*
X162471786Y-125239707D01*
X162360292Y-125128213D01*
X162360288Y-125128210D01*
X162229185Y-125040609D01*
X162229172Y-125040602D01*
X162083501Y-124980264D01*
X162083489Y-124980261D01*
X161928845Y-124949500D01*
X161928842Y-124949500D01*
X161771158Y-124949500D01*
X161771155Y-124949500D01*
X161616510Y-124980261D01*
X161616507Y-124980261D01*
X161500914Y-125028141D01*
X161469334Y-125031535D01*
X161438008Y-125036612D01*
X161434860Y-125035241D01*
X161431444Y-125035609D01*
X161403045Y-125021393D01*
X161373945Y-125008726D01*
X161370843Y-125005273D01*
X161368965Y-125004333D01*
X161350360Y-124982469D01*
X161321398Y-124939124D01*
X161300520Y-124872447D01*
X161300500Y-124870234D01*
X161300500Y-118023819D01*
X161300500Y-118023817D01*
X161259577Y-117871090D01*
X161259573Y-117871083D01*
X161180524Y-117734164D01*
X161180521Y-117734160D01*
X161180520Y-117734158D01*
X161068716Y-117622354D01*
X161068715Y-117622353D01*
X161064385Y-117618023D01*
X161064374Y-117618013D01*
X158232797Y-114786436D01*
X158199312Y-114725113D01*
X158204296Y-114655421D01*
X158246168Y-114599488D01*
X158296286Y-114577138D01*
X158333497Y-114569737D01*
X158479179Y-114509394D01*
X158610289Y-114421789D01*
X158721789Y-114310289D01*
X158809394Y-114179179D01*
X158869737Y-114033497D01*
X158900500Y-113878842D01*
X158900500Y-113721158D01*
X158900500Y-113721155D01*
X158900499Y-113721153D01*
X158889669Y-113666709D01*
X158869737Y-113566503D01*
X158865059Y-113555209D01*
X158809397Y-113420827D01*
X158809390Y-113420814D01*
X158721789Y-113289711D01*
X158721786Y-113289707D01*
X158610292Y-113178213D01*
X158610288Y-113178210D01*
X158479185Y-113090609D01*
X158479172Y-113090602D01*
X158333501Y-113030264D01*
X158333489Y-113030261D01*
X158178845Y-112999500D01*
X158178842Y-112999500D01*
X158021158Y-112999500D01*
X158021155Y-112999500D01*
X157866510Y-113030261D01*
X157866498Y-113030264D01*
X157720827Y-113090602D01*
X157720814Y-113090609D01*
X157589711Y-113178210D01*
X157589707Y-113178213D01*
X157478213Y-113289707D01*
X157478210Y-113289711D01*
X157390609Y-113420814D01*
X157390602Y-113420827D01*
X157330264Y-113566498D01*
X157330261Y-113566508D01*
X157322861Y-113603713D01*
X157290476Y-113665624D01*
X157229760Y-113700198D01*
X157159991Y-113696458D01*
X157113563Y-113667202D01*
X156471837Y-113025476D01*
X156438352Y-112964153D01*
X156437901Y-112913602D01*
X156448122Y-112862221D01*
X156448122Y-112704533D01*
X156448121Y-112704531D01*
X156417359Y-112549881D01*
X156407566Y-112526239D01*
X156357019Y-112404205D01*
X156357012Y-112404192D01*
X156269411Y-112273089D01*
X156269408Y-112273085D01*
X156157914Y-112161591D01*
X156157910Y-112161588D01*
X156079991Y-112109524D01*
X156035186Y-112055912D01*
X156026479Y-111986587D01*
X156056634Y-111923559D01*
X156116077Y-111886840D01*
X156148882Y-111882422D01*
X156228844Y-111882422D01*
X156228845Y-111882421D01*
X156383497Y-111851659D01*
X156529179Y-111791316D01*
X156660289Y-111703711D01*
X156771789Y-111592211D01*
X156859394Y-111461101D01*
X156919737Y-111315419D01*
X156950500Y-111160764D01*
X156950500Y-111003080D01*
X156950500Y-111003077D01*
X156950499Y-111003075D01*
X156939009Y-110945312D01*
X156919737Y-110848425D01*
X156911905Y-110829516D01*
X156870424Y-110729371D01*
X156867400Y-110701253D01*
X156861261Y-110673651D01*
X156863434Y-110664358D01*
X156862955Y-110659902D01*
X156868602Y-110639128D01*
X156869458Y-110636799D01*
X156919736Y-110515417D01*
X156926393Y-110481944D01*
X156929736Y-110472854D01*
X156945002Y-110452261D01*
X156956884Y-110429545D01*
X156966901Y-110422721D01*
X156971346Y-110416726D01*
X156981146Y-110413018D01*
X156998666Y-110401084D01*
X157046650Y-110381210D01*
X157084513Y-110355911D01*
X157178347Y-110293214D01*
X157245024Y-110272336D01*
X157247237Y-110272316D01*
X175441515Y-110272316D01*
X175441531Y-110272317D01*
X175449127Y-110272317D01*
X175607238Y-110272317D01*
X175607241Y-110272317D01*
X175759969Y-110231393D01*
X175810088Y-110202455D01*
X175896900Y-110152336D01*
X176008704Y-110040532D01*
X176008704Y-110040530D01*
X176018912Y-110030323D01*
X176018913Y-110030320D01*
X176587820Y-109461414D01*
X176649142Y-109427930D01*
X176718834Y-109432914D01*
G37*
%TD.AperFunction*%
%TA.AperFunction,Conductor*%
G36*
X128650000Y-124476988D02*
G01*
X128592993Y-124444075D01*
X128465826Y-124410000D01*
X128334174Y-124410000D01*
X128207007Y-124444075D01*
X128150000Y-124476988D01*
X128150000Y-122803012D01*
X128207007Y-122835925D01*
X128334174Y-122870000D01*
X128465826Y-122870000D01*
X128592993Y-122835925D01*
X128650000Y-122803012D01*
X128650000Y-124476988D01*
G37*
%TD.AperFunction*%
%TA.AperFunction,Conductor*%
G36*
X176718834Y-89112914D02*
G01*
X176774767Y-89154786D01*
X176799184Y-89220250D01*
X176799500Y-89229096D01*
X176799500Y-89376287D01*
X176832754Y-89586243D01*
X176858746Y-89666239D01*
X176898444Y-89788414D01*
X176994951Y-89977820D01*
X177119890Y-90149786D01*
X177270213Y-90300109D01*
X177442182Y-90425050D01*
X177450946Y-90429516D01*
X177501742Y-90477491D01*
X177518536Y-90545312D01*
X177495998Y-90611447D01*
X177450946Y-90650484D01*
X177442182Y-90654949D01*
X177270213Y-90779890D01*
X177119890Y-90930213D01*
X176994951Y-91102179D01*
X176898444Y-91291585D01*
X176832753Y-91493760D01*
X176799500Y-91703713D01*
X176799500Y-91916287D01*
X176832754Y-92126243D01*
X176858746Y-92206239D01*
X176898444Y-92328414D01*
X176994951Y-92517820D01*
X177119890Y-92689786D01*
X177270213Y-92840109D01*
X177442182Y-92965050D01*
X177450946Y-92969516D01*
X177501742Y-93017491D01*
X177518536Y-93085312D01*
X177495998Y-93151447D01*
X177450946Y-93190484D01*
X177442182Y-93194949D01*
X177270213Y-93319890D01*
X177119890Y-93470213D01*
X176994951Y-93642179D01*
X176898444Y-93831585D01*
X176832753Y-94033760D01*
X176799500Y-94243713D01*
X176799500Y-94456287D01*
X176832754Y-94666243D01*
X176858746Y-94746239D01*
X176898444Y-94868414D01*
X176994951Y-95057820D01*
X177119890Y-95229786D01*
X177270213Y-95380109D01*
X177442182Y-95505050D01*
X177450946Y-95509516D01*
X177501742Y-95557491D01*
X177518536Y-95625312D01*
X177495998Y-95691447D01*
X177450946Y-95730484D01*
X177442182Y-95734949D01*
X177270213Y-95859890D01*
X177119890Y-96010213D01*
X176994951Y-96182179D01*
X176898444Y-96371585D01*
X176832753Y-96573760D01*
X176799500Y-96783713D01*
X176799500Y-96996286D01*
X176825951Y-97163295D01*
X176832754Y-97206243D01*
X176858746Y-97286239D01*
X176898444Y-97408414D01*
X176994951Y-97597820D01*
X177119890Y-97769786D01*
X177270213Y-97920109D01*
X177442182Y-98045050D01*
X177450946Y-98049516D01*
X177501742Y-98097491D01*
X177518536Y-98165312D01*
X177495998Y-98231447D01*
X177450946Y-98270484D01*
X177442182Y-98274949D01*
X177270213Y-98399890D01*
X177119890Y-98550213D01*
X176994951Y-98722179D01*
X176898444Y-98911585D01*
X176832753Y-99113760D01*
X176806607Y-99278842D01*
X176799500Y-99323713D01*
X176799500Y-99536287D01*
X176832754Y-99746243D01*
X176889166Y-99919861D01*
X176898444Y-99948414D01*
X176994951Y-100137820D01*
X177119890Y-100309786D01*
X177270213Y-100460109D01*
X177442182Y-100585050D01*
X177450946Y-100589516D01*
X177501742Y-100637491D01*
X177518536Y-100705312D01*
X177495998Y-100771447D01*
X177450946Y-100810484D01*
X177442182Y-100814949D01*
X177270213Y-100939890D01*
X177119890Y-101090213D01*
X176994951Y-101262179D01*
X176898444Y-101451585D01*
X176832753Y-101653760D01*
X176815434Y-101763108D01*
X176799500Y-101863713D01*
X176799500Y-102076287D01*
X176832754Y-102286243D01*
X176888804Y-102458747D01*
X176898444Y-102488414D01*
X176994951Y-102677820D01*
X177119890Y-102849786D01*
X177270213Y-103000109D01*
X177442182Y-103125050D01*
X177450946Y-103129516D01*
X177501742Y-103177491D01*
X177518536Y-103245312D01*
X177495998Y-103311447D01*
X177450946Y-103350484D01*
X177442182Y-103354949D01*
X177270213Y-103479890D01*
X177119890Y-103630213D01*
X176994951Y-103802179D01*
X176898444Y-103991585D01*
X176832753Y-104193760D01*
X176806961Y-104356606D01*
X176799500Y-104403713D01*
X176799500Y-104616287D01*
X176832754Y-104826243D01*
X176858746Y-104906239D01*
X176898444Y-105028414D01*
X176994951Y-105217820D01*
X177119890Y-105389786D01*
X177270213Y-105540109D01*
X177442182Y-105665050D01*
X177450946Y-105669516D01*
X177501742Y-105717491D01*
X177518536Y-105785312D01*
X177495998Y-105851447D01*
X177450946Y-105890484D01*
X177442182Y-105894949D01*
X177270213Y-106019890D01*
X177119890Y-106170213D01*
X176994951Y-106342179D01*
X176898444Y-106531585D01*
X176832753Y-106733760D01*
X176814767Y-106847322D01*
X176799500Y-106943713D01*
X176799500Y-107156287D01*
X176802973Y-107178213D01*
X176832754Y-107366244D01*
X176832754Y-107366247D01*
X176846491Y-107408523D01*
X176848486Y-107478364D01*
X176816241Y-107534522D01*
X175315768Y-109034997D01*
X175254445Y-109068482D01*
X175228087Y-109071316D01*
X161079591Y-109071316D01*
X161012552Y-109051631D01*
X160966797Y-108998827D01*
X160956853Y-108929669D01*
X160976489Y-108878425D01*
X160989244Y-108859336D01*
X161009394Y-108829179D01*
X161069737Y-108683497D01*
X161100500Y-108528842D01*
X161100500Y-108371158D01*
X161100500Y-108371155D01*
X161100499Y-108371153D01*
X161100258Y-108369943D01*
X161069737Y-108216503D01*
X161066842Y-108209514D01*
X161009397Y-108070827D01*
X161009390Y-108070814D01*
X160921789Y-107939711D01*
X160921786Y-107939707D01*
X160810292Y-107828213D01*
X160810288Y-107828210D01*
X160679185Y-107740609D01*
X160679172Y-107740602D01*
X160533501Y-107680264D01*
X160533489Y-107680261D01*
X160378845Y-107649500D01*
X160378842Y-107649500D01*
X160221158Y-107649500D01*
X160221155Y-107649500D01*
X160066510Y-107680261D01*
X160066498Y-107680264D01*
X159920827Y-107740602D01*
X159920814Y-107740609D01*
X159789711Y-107828210D01*
X159789707Y-107828213D01*
X159678213Y-107939707D01*
X159678210Y-107939711D01*
X159590609Y-108070814D01*
X159590602Y-108070827D01*
X159530264Y-108216498D01*
X159530261Y-108216510D01*
X159499500Y-108371153D01*
X159499500Y-108528846D01*
X159530261Y-108683489D01*
X159530264Y-108683501D01*
X159590602Y-108829172D01*
X159590609Y-108829184D01*
X159623511Y-108878425D01*
X159644389Y-108945102D01*
X159625905Y-109012482D01*
X159573926Y-109059173D01*
X159520409Y-109071316D01*
X157277282Y-109071316D01*
X157210243Y-109051631D01*
X157164488Y-108998827D01*
X157154544Y-108929669D01*
X157176002Y-108875774D01*
X157182112Y-108867123D01*
X157231520Y-108817716D01*
X157293589Y-108710208D01*
X157310577Y-108680785D01*
X157351500Y-108528058D01*
X157351500Y-108369943D01*
X157351500Y-103761427D01*
X157371185Y-103694388D01*
X157423989Y-103648633D01*
X157493147Y-103638689D01*
X157544390Y-103658324D01*
X157620821Y-103709394D01*
X157620823Y-103709395D01*
X157620827Y-103709397D01*
X157766498Y-103769735D01*
X157766503Y-103769737D01*
X157912571Y-103798792D01*
X157921153Y-103800499D01*
X157921156Y-103800500D01*
X157921158Y-103800500D01*
X158078844Y-103800500D01*
X158078845Y-103800499D01*
X158233497Y-103769737D01*
X158379179Y-103709394D01*
X158444554Y-103665712D01*
X158510875Y-103621398D01*
X158577553Y-103600520D01*
X158579766Y-103600500D01*
X161793331Y-103600500D01*
X161793347Y-103600501D01*
X161800943Y-103600501D01*
X161959054Y-103600501D01*
X161959057Y-103600501D01*
X162111785Y-103559577D01*
X162161904Y-103530639D01*
X162248716Y-103480520D01*
X162360520Y-103368716D01*
X162360520Y-103368714D01*
X162370728Y-103358507D01*
X162370729Y-103358504D01*
X176587821Y-89141413D01*
X176649142Y-89107930D01*
X176718834Y-89112914D01*
G37*
%TD.AperFunction*%
%TA.AperFunction,Conductor*%
G36*
X144406942Y-105210185D02*
G01*
X144427584Y-105226819D01*
X145443743Y-106242978D01*
X145443745Y-106242981D01*
X145463995Y-106263231D01*
X145488584Y-106287821D01*
X145522068Y-106349144D01*
X145519218Y-106388974D01*
X145517083Y-106418834D01*
X145517082Y-106418835D01*
X145517082Y-106418836D01*
X145509727Y-106428660D01*
X145475211Y-106474767D01*
X145475210Y-106474767D01*
X145475209Y-106474769D01*
X145438027Y-106488636D01*
X145409747Y-106499184D01*
X145409745Y-106499183D01*
X145409745Y-106499184D01*
X145400901Y-106499500D01*
X129670432Y-106499500D01*
X129603393Y-106479815D01*
X129559946Y-106431792D01*
X129555051Y-106422184D01*
X129430104Y-106250208D01*
X129279792Y-106099896D01*
X129279786Y-106099890D01*
X129107820Y-105974951D01*
X129107115Y-105974591D01*
X129099054Y-105970485D01*
X129048259Y-105922512D01*
X129031463Y-105854692D01*
X129053999Y-105788556D01*
X129099054Y-105749515D01*
X129107816Y-105745051D01*
X129145749Y-105717491D01*
X129279786Y-105620109D01*
X129279788Y-105620106D01*
X129279792Y-105620104D01*
X129430104Y-105469792D01*
X129430106Y-105469788D01*
X129430109Y-105469786D01*
X129490760Y-105386306D01*
X129555051Y-105297816D01*
X129567306Y-105273765D01*
X129575235Y-105258205D01*
X129623209Y-105207409D01*
X129685719Y-105190500D01*
X144339903Y-105190500D01*
X144406942Y-105210185D01*
G37*
%TD.AperFunction*%
%TA.AperFunction,Conductor*%
G36*
X143666942Y-102670185D02*
G01*
X143687584Y-102686819D01*
X144778583Y-103777818D01*
X144789194Y-103797251D01*
X144803696Y-103813987D01*
X144805613Y-103827319D01*
X144812068Y-103839141D01*
X144810488Y-103861227D01*
X144813640Y-103883145D01*
X144808044Y-103895397D01*
X144807084Y-103908833D01*
X144793814Y-103926558D01*
X144784616Y-103946701D01*
X144773283Y-103953984D01*
X144765212Y-103964766D01*
X144744467Y-103972503D01*
X144725838Y-103984476D01*
X144703917Y-103987627D01*
X144699748Y-103989183D01*
X144690903Y-103989498D01*
X144690903Y-103989499D01*
X144560943Y-103989499D01*
X144560939Y-103989499D01*
X144553332Y-103989500D01*
X129685719Y-103989500D01*
X129618680Y-103969815D01*
X129575235Y-103921795D01*
X129555052Y-103882185D01*
X129555051Y-103882184D01*
X129430109Y-103710213D01*
X129279786Y-103559890D01*
X129107820Y-103434951D01*
X129107115Y-103434591D01*
X129099054Y-103430485D01*
X129048259Y-103382512D01*
X129031463Y-103314692D01*
X129053999Y-103248556D01*
X129099054Y-103209515D01*
X129107816Y-103205051D01*
X129129789Y-103189086D01*
X129279786Y-103080109D01*
X129279788Y-103080106D01*
X129279792Y-103080104D01*
X129430104Y-102929792D01*
X129430106Y-102929788D01*
X129430109Y-102929786D01*
X129515742Y-102811920D01*
X129555051Y-102757816D01*
X129555349Y-102757230D01*
X129575235Y-102718205D01*
X129623209Y-102667409D01*
X129685719Y-102650500D01*
X143599903Y-102650500D01*
X143666942Y-102670185D01*
G37*
%TD.AperFunction*%
%TA.AperFunction,Conductor*%
G36*
X138606942Y-92510185D02*
G01*
X138627584Y-92526819D01*
X147115425Y-101014660D01*
X147148910Y-101075983D01*
X147149361Y-101078149D01*
X147180261Y-101233491D01*
X147180264Y-101233501D01*
X147240602Y-101379172D01*
X147240609Y-101379185D01*
X147328210Y-101510288D01*
X147328213Y-101510292D01*
X147439707Y-101621786D01*
X147439711Y-101621789D01*
X147570814Y-101709390D01*
X147570827Y-101709397D01*
X147700499Y-101763108D01*
X147716503Y-101769737D01*
X147848691Y-101796031D01*
X147871153Y-101800499D01*
X147871156Y-101800500D01*
X147871158Y-101800500D01*
X148028842Y-101800500D01*
X148051308Y-101796031D01*
X148120898Y-101802257D01*
X148176076Y-101845119D01*
X148199322Y-101911008D01*
X148199500Y-101917648D01*
X148199500Y-102819526D01*
X148199499Y-102819530D01*
X148199499Y-102849786D01*
X148199499Y-102850905D01*
X148179813Y-102917944D01*
X148127008Y-102963698D01*
X148089336Y-102969112D01*
X148057852Y-102973640D01*
X148057849Y-102973638D01*
X148057849Y-102973639D01*
X148036078Y-102963696D01*
X147994296Y-102944615D01*
X147987818Y-102938583D01*
X139117590Y-94068355D01*
X139117588Y-94068352D01*
X138998717Y-93949481D01*
X138998709Y-93949475D01*
X138871594Y-93876086D01*
X138871588Y-93876083D01*
X138861787Y-93870423D01*
X138787436Y-93850501D01*
X138709057Y-93829499D01*
X138550943Y-93829499D01*
X138543347Y-93829499D01*
X138543331Y-93829500D01*
X129685719Y-93829500D01*
X129618680Y-93809815D01*
X129575235Y-93761795D01*
X129555052Y-93722184D01*
X129555050Y-93722182D01*
X129430109Y-93550213D01*
X129279786Y-93399890D01*
X129107820Y-93274951D01*
X129107115Y-93274591D01*
X129099054Y-93270485D01*
X129048259Y-93222512D01*
X129031463Y-93154692D01*
X129053999Y-93088556D01*
X129099054Y-93049515D01*
X129107816Y-93045051D01*
X129145749Y-93017491D01*
X129279786Y-92920109D01*
X129279788Y-92920106D01*
X129279792Y-92920104D01*
X129430104Y-92769792D01*
X129430106Y-92769788D01*
X129430109Y-92769786D01*
X129488661Y-92689193D01*
X129555051Y-92597816D01*
X129555845Y-92596258D01*
X129575235Y-92558205D01*
X129623209Y-92507409D01*
X129685719Y-92490500D01*
X138539903Y-92490500D01*
X138606942Y-92510185D01*
G37*
%TD.AperFunction*%
%TA.AperFunction,Conductor*%
G36*
X142342742Y-100130185D02*
G01*
X142363384Y-100146819D01*
X143454384Y-101237819D01*
X143487869Y-101299142D01*
X143482885Y-101368834D01*
X143441013Y-101424767D01*
X143375549Y-101449184D01*
X143366703Y-101449500D01*
X129685719Y-101449500D01*
X129618680Y-101429815D01*
X129575235Y-101381795D01*
X129555052Y-101342185D01*
X129555051Y-101342184D01*
X129430109Y-101170213D01*
X129279786Y-101019890D01*
X129107820Y-100894951D01*
X129107115Y-100894591D01*
X129099054Y-100890485D01*
X129048259Y-100842512D01*
X129031463Y-100774692D01*
X129053999Y-100708556D01*
X129099054Y-100669515D01*
X129107816Y-100665051D01*
X129145749Y-100637491D01*
X129279786Y-100540109D01*
X129279788Y-100540106D01*
X129279792Y-100540104D01*
X129430104Y-100389792D01*
X129430106Y-100389788D01*
X129430109Y-100389786D01*
X129488661Y-100309193D01*
X129555051Y-100217816D01*
X129563051Y-100202116D01*
X129575235Y-100178205D01*
X129623209Y-100127409D01*
X129685719Y-100110500D01*
X142275703Y-100110500D01*
X142342742Y-100130185D01*
G37*
%TD.AperFunction*%
%TA.AperFunction,Conductor*%
G36*
X140369842Y-97590185D02*
G01*
X140390484Y-97606819D01*
X141481484Y-98697819D01*
X141514969Y-98759142D01*
X141509985Y-98828834D01*
X141468113Y-98884767D01*
X141402649Y-98909184D01*
X141393803Y-98909500D01*
X129685719Y-98909500D01*
X129618680Y-98889815D01*
X129575235Y-98841795D01*
X129555052Y-98802185D01*
X129555051Y-98802184D01*
X129430109Y-98630213D01*
X129279786Y-98479890D01*
X129107820Y-98354951D01*
X129107115Y-98354591D01*
X129099054Y-98350485D01*
X129048259Y-98302512D01*
X129031463Y-98234692D01*
X129053999Y-98168556D01*
X129099054Y-98129515D01*
X129107816Y-98125051D01*
X129145749Y-98097491D01*
X129279786Y-98000109D01*
X129279788Y-98000106D01*
X129279792Y-98000104D01*
X129430104Y-97849792D01*
X129430106Y-97849788D01*
X129430109Y-97849786D01*
X129488661Y-97769193D01*
X129555051Y-97677816D01*
X129555349Y-97677230D01*
X129575235Y-97638205D01*
X129623209Y-97587409D01*
X129685719Y-97570500D01*
X140302803Y-97570500D01*
X140369842Y-97590185D01*
G37*
%TD.AperFunction*%
%TA.AperFunction,Conductor*%
G36*
X138396942Y-95050185D02*
G01*
X138417584Y-95066819D01*
X139508584Y-96157819D01*
X139542069Y-96219142D01*
X139537085Y-96288834D01*
X139495213Y-96344767D01*
X139429749Y-96369184D01*
X139420903Y-96369500D01*
X129685719Y-96369500D01*
X129618680Y-96349815D01*
X129575235Y-96301795D01*
X129555052Y-96262185D01*
X129555051Y-96262184D01*
X129430109Y-96090213D01*
X129279786Y-95939890D01*
X129107820Y-95814951D01*
X129107115Y-95814591D01*
X129099054Y-95810485D01*
X129048259Y-95762512D01*
X129031463Y-95694692D01*
X129053999Y-95628556D01*
X129099054Y-95589515D01*
X129107816Y-95585051D01*
X129145749Y-95557491D01*
X129279786Y-95460109D01*
X129279788Y-95460106D01*
X129279792Y-95460104D01*
X129430104Y-95309792D01*
X129430106Y-95309788D01*
X129430109Y-95309786D01*
X129488661Y-95229193D01*
X129555051Y-95137816D01*
X129555349Y-95137230D01*
X129575235Y-95098205D01*
X129623209Y-95047409D01*
X129685719Y-95030500D01*
X138329903Y-95030500D01*
X138396942Y-95050185D01*
G37*
%TD.AperFunction*%
%TA.AperFunction,Conductor*%
G36*
X137316942Y-89970185D02*
G01*
X137337584Y-89986819D01*
X138428584Y-91077819D01*
X138462069Y-91139142D01*
X138457085Y-91208834D01*
X138415213Y-91264767D01*
X138349749Y-91289184D01*
X138340903Y-91289500D01*
X129685719Y-91289500D01*
X129618680Y-91269815D01*
X129575235Y-91221795D01*
X129555052Y-91182185D01*
X129555051Y-91182184D01*
X129430109Y-91010213D01*
X129279786Y-90859890D01*
X129107820Y-90734951D01*
X129107115Y-90734591D01*
X129099054Y-90730485D01*
X129048259Y-90682512D01*
X129031463Y-90614692D01*
X129053999Y-90548556D01*
X129099054Y-90509515D01*
X129107816Y-90505051D01*
X129145749Y-90477491D01*
X129279786Y-90380109D01*
X129279788Y-90380106D01*
X129279792Y-90380104D01*
X129430104Y-90229792D01*
X129430106Y-90229788D01*
X129430109Y-90229786D01*
X129488661Y-90149193D01*
X129555051Y-90057816D01*
X129555349Y-90057230D01*
X129575235Y-90018205D01*
X129623209Y-89967409D01*
X129685719Y-89950500D01*
X137249903Y-89950500D01*
X137316942Y-89970185D01*
G37*
%TD.AperFunction*%
%TA.AperFunction,Conductor*%
G36*
X135344042Y-87430185D02*
G01*
X135364684Y-87446819D01*
X136455684Y-88537819D01*
X136489169Y-88599142D01*
X136484185Y-88668834D01*
X136442313Y-88724767D01*
X136376849Y-88749184D01*
X136368003Y-88749500D01*
X129685719Y-88749500D01*
X129618680Y-88729815D01*
X129575235Y-88681795D01*
X129555052Y-88642185D01*
X129555051Y-88642184D01*
X129430109Y-88470213D01*
X129279786Y-88319890D01*
X129107820Y-88194951D01*
X129107115Y-88194591D01*
X129099054Y-88190485D01*
X129048259Y-88142512D01*
X129031463Y-88074692D01*
X129053999Y-88008556D01*
X129099054Y-87969515D01*
X129107816Y-87965051D01*
X129129789Y-87949086D01*
X129279786Y-87840109D01*
X129279788Y-87840106D01*
X129279792Y-87840104D01*
X129430104Y-87689792D01*
X129430106Y-87689788D01*
X129430109Y-87689786D01*
X129488661Y-87609193D01*
X129555051Y-87517816D01*
X129555349Y-87517230D01*
X129575235Y-87478205D01*
X129623209Y-87427409D01*
X129685719Y-87410500D01*
X135277003Y-87410500D01*
X135344042Y-87430185D01*
G37*
%TD.AperFunction*%
%TD*%
M02*
