%TF.GenerationSoftware,KiCad,Pcbnew,9.0.0*%
%TF.CreationDate,2025-05-17T06:27:11-04:00*%
%TF.ProjectId,phase-interferometer,70686173-652d-4696-9e74-65726665726f,rev?*%
%TF.SameCoordinates,Original*%
%TF.FileFunction,Legend,Top*%
%TF.FilePolarity,Positive*%
%FSLAX46Y46*%
G04 Gerber Fmt 4.6, Leading zero omitted, Abs format (unit mm)*
G04 Created by KiCad (PCBNEW 9.0.0) date 2025-05-17 06:27:11*
%MOMM*%
%LPD*%
G01*
G04 APERTURE LIST*
%ADD10C,0.150000*%
%ADD11C,0.120000*%
G04 APERTURE END LIST*
D10*
X158529580Y-99021690D02*
X158577200Y-99069309D01*
X158577200Y-99069309D02*
X158624819Y-99212166D01*
X158624819Y-99212166D02*
X158624819Y-99307404D01*
X158624819Y-99307404D02*
X158577200Y-99450261D01*
X158577200Y-99450261D02*
X158481961Y-99545499D01*
X158481961Y-99545499D02*
X158386723Y-99593118D01*
X158386723Y-99593118D02*
X158196247Y-99640737D01*
X158196247Y-99640737D02*
X158053390Y-99640737D01*
X158053390Y-99640737D02*
X157862914Y-99593118D01*
X157862914Y-99593118D02*
X157767676Y-99545499D01*
X157767676Y-99545499D02*
X157672438Y-99450261D01*
X157672438Y-99450261D02*
X157624819Y-99307404D01*
X157624819Y-99307404D02*
X157624819Y-99212166D01*
X157624819Y-99212166D02*
X157672438Y-99069309D01*
X157672438Y-99069309D02*
X157720057Y-99021690D01*
X157958152Y-98164547D02*
X158624819Y-98164547D01*
X157577200Y-98402642D02*
X158291485Y-98640737D01*
X158291485Y-98640737D02*
X158291485Y-98021690D01*
X158624819Y-97116928D02*
X158624819Y-97688356D01*
X158624819Y-97402642D02*
X157624819Y-97402642D01*
X157624819Y-97402642D02*
X157767676Y-97497880D01*
X157767676Y-97497880D02*
X157862914Y-97593118D01*
X157862914Y-97593118D02*
X157910533Y-97688356D01*
X165076604Y-57526666D02*
X165076604Y-57050476D01*
X165362319Y-57621904D02*
X164362319Y-57288571D01*
X164362319Y-57288571D02*
X165362319Y-56955238D01*
X164838509Y-56621904D02*
X164838509Y-56288571D01*
X165362319Y-56145714D02*
X165362319Y-56621904D01*
X165362319Y-56621904D02*
X164362319Y-56621904D01*
X164362319Y-56621904D02*
X164362319Y-56145714D01*
X164362319Y-55812380D02*
X164362319Y-55193333D01*
X164362319Y-55193333D02*
X164743271Y-55526666D01*
X164743271Y-55526666D02*
X164743271Y-55383809D01*
X164743271Y-55383809D02*
X164790890Y-55288571D01*
X164790890Y-55288571D02*
X164838509Y-55240952D01*
X164838509Y-55240952D02*
X164933747Y-55193333D01*
X164933747Y-55193333D02*
X165171842Y-55193333D01*
X165171842Y-55193333D02*
X165267080Y-55240952D01*
X165267080Y-55240952D02*
X165314700Y-55288571D01*
X165314700Y-55288571D02*
X165362319Y-55383809D01*
X165362319Y-55383809D02*
X165362319Y-55669523D01*
X165362319Y-55669523D02*
X165314700Y-55764761D01*
X165314700Y-55764761D02*
X165267080Y-55812380D01*
X129801604Y-57526666D02*
X129801604Y-57050476D01*
X130087319Y-57621904D02*
X129087319Y-57288571D01*
X129087319Y-57288571D02*
X130087319Y-56955238D01*
X129563509Y-56621904D02*
X129563509Y-56288571D01*
X130087319Y-56145714D02*
X130087319Y-56621904D01*
X130087319Y-56621904D02*
X129087319Y-56621904D01*
X129087319Y-56621904D02*
X129087319Y-56145714D01*
X130087319Y-55193333D02*
X130087319Y-55764761D01*
X130087319Y-55479047D02*
X129087319Y-55479047D01*
X129087319Y-55479047D02*
X129230176Y-55574285D01*
X129230176Y-55574285D02*
X129325414Y-55669523D01*
X129325414Y-55669523D02*
X129373033Y-55764761D01*
X147439104Y-57526666D02*
X147439104Y-57050476D01*
X147724819Y-57621904D02*
X146724819Y-57288571D01*
X146724819Y-57288571D02*
X147724819Y-56955238D01*
X147201009Y-56621904D02*
X147201009Y-56288571D01*
X147724819Y-56145714D02*
X147724819Y-56621904D01*
X147724819Y-56621904D02*
X146724819Y-56621904D01*
X146724819Y-56621904D02*
X146724819Y-56145714D01*
X146820057Y-55764761D02*
X146772438Y-55717142D01*
X146772438Y-55717142D02*
X146724819Y-55621904D01*
X146724819Y-55621904D02*
X146724819Y-55383809D01*
X146724819Y-55383809D02*
X146772438Y-55288571D01*
X146772438Y-55288571D02*
X146820057Y-55240952D01*
X146820057Y-55240952D02*
X146915295Y-55193333D01*
X146915295Y-55193333D02*
X147010533Y-55193333D01*
X147010533Y-55193333D02*
X147153390Y-55240952D01*
X147153390Y-55240952D02*
X147724819Y-55812380D01*
X147724819Y-55812380D02*
X147724819Y-55193333D01*
D11*
%TO.C,Y4*%
X158900000Y-103478833D02*
X162900000Y-103478833D01*
X158900000Y-100178833D02*
X158900000Y-103478833D01*
%TO.C,Y1*%
X160765000Y-98891333D02*
X160435000Y-99131333D01*
X160435000Y-98651333D01*
X160765000Y-98891333D01*
G36*
X160765000Y-98891333D02*
G01*
X160435000Y-99131333D01*
X160435000Y-98651333D01*
X160765000Y-98891333D01*
G37*
X163810000Y-96678833D02*
X163810000Y-98178833D01*
X163810000Y-96678833D02*
X163810000Y-95178833D01*
X160590000Y-96678833D02*
X160590000Y-98178833D01*
X160590000Y-96678833D02*
X160590000Y-95178833D01*
%TO.C,C41*%
X160110000Y-98519413D02*
X160110000Y-98238253D01*
X159090000Y-98519413D02*
X159090000Y-98238253D01*
%TO.C,AE3*%
X166347500Y-55030000D02*
X167677500Y-55030000D01*
X166347500Y-56360000D02*
X166347500Y-55030000D01*
X168947500Y-55030000D02*
X171547500Y-55030000D01*
X168947500Y-57690000D02*
X168947500Y-55030000D01*
X168947500Y-57690000D02*
X171547500Y-57690000D01*
X171547500Y-57690000D02*
X171547500Y-55030000D01*
%TO.C,C3*%
X165380580Y-63450000D02*
X165099420Y-63450000D01*
X165380580Y-64470000D02*
X165099420Y-64470000D01*
%TO.C,Y3*%
X153050000Y-99550000D02*
X153050000Y-102850000D01*
X153050000Y-102850000D02*
X157050000Y-102850000D01*
%TO.C,AE1*%
X131072500Y-55030000D02*
X132402500Y-55030000D01*
X131072500Y-56360000D02*
X131072500Y-55030000D01*
X133672500Y-55030000D02*
X136272500Y-55030000D01*
X133672500Y-57690000D02*
X133672500Y-55030000D01*
X133672500Y-57690000D02*
X136272500Y-57690000D01*
X136272500Y-57690000D02*
X136272500Y-55030000D01*
%TO.C,U5*%
X148469000Y-71396000D02*
X148469000Y-71750000D01*
X148469000Y-79170000D02*
X148469000Y-79524000D01*
X148469000Y-79524000D02*
X154311000Y-79524000D01*
X154311000Y-71396000D02*
X148469000Y-71396000D01*
X154311000Y-71396000D02*
X154311000Y-71750000D01*
X154311000Y-79524000D02*
X154311000Y-79170000D01*
X155000000Y-79426000D02*
X154520000Y-79426000D01*
X154760000Y-79090000D01*
X155000000Y-79426000D01*
G36*
X155000000Y-79426000D02*
G01*
X154520000Y-79426000D01*
X154760000Y-79090000D01*
X155000000Y-79426000D01*
G37*
%TO.C,C27*%
X160440580Y-108690000D02*
X160159420Y-108690000D01*
X160440580Y-109710000D02*
X160159420Y-109710000D01*
%TO.C,R5*%
X155867500Y-86422258D02*
X155867500Y-85947742D01*
X156912500Y-86422258D02*
X156912500Y-85947742D01*
%TO.C,C14*%
X159840580Y-114010000D02*
X159559420Y-114010000D01*
X159840580Y-112990000D02*
X159559420Y-112990000D01*
%TO.C,C18*%
X155930000Y-76794420D02*
X155930000Y-77075580D01*
X156950000Y-76794420D02*
X156950000Y-77075580D01*
%TO.C,C16*%
X130640000Y-81640580D02*
X130640000Y-81359420D01*
X131660000Y-81640580D02*
X131660000Y-81359420D01*
%TO.C,C22*%
X157024420Y-88000000D02*
X157305580Y-88000000D01*
X157024420Y-89020000D02*
X157305580Y-89020000D01*
%TO.C,R9*%
X174377742Y-81837500D02*
X174852258Y-81837500D01*
X174377742Y-82882500D02*
X174852258Y-82882500D01*
%TO.C,C40*%
X142990000Y-120040580D02*
X142990000Y-119759420D01*
X144010000Y-120040580D02*
X144010000Y-119759420D01*
%TO.C,U6*%
X167080000Y-63820000D02*
X167080000Y-62410000D01*
X169400000Y-63810000D02*
X169400000Y-62410000D01*
X167130000Y-64190000D02*
X166800000Y-64430000D01*
X166800000Y-63950000D01*
X167130000Y-64190000D01*
G36*
X167130000Y-64190000D02*
G01*
X166800000Y-64430000D01*
X166800000Y-63950000D01*
X167130000Y-64190000D01*
G37*
%TO.C,C17*%
X148440000Y-81600580D02*
X148440000Y-81319420D01*
X149460000Y-81600580D02*
X149460000Y-81319420D01*
%TO.C,U4*%
X149580000Y-63820000D02*
X149580000Y-62410000D01*
X151900000Y-63810000D02*
X151900000Y-62410000D01*
X149630000Y-64190000D02*
X149300000Y-64430000D01*
X149300000Y-63950000D01*
X149630000Y-64190000D01*
G36*
X149630000Y-64190000D02*
G01*
X149300000Y-64430000D01*
X149300000Y-63950000D01*
X149630000Y-64190000D01*
G37*
%TO.C,C9*%
X168380000Y-66244420D02*
X168380000Y-66525580D01*
X169400000Y-66244420D02*
X169400000Y-66525580D01*
%TO.C,R7*%
X173177258Y-83387500D02*
X172702742Y-83387500D01*
X173177258Y-84432500D02*
X172702742Y-84432500D01*
%TO.C,C8*%
X150830000Y-66244420D02*
X150830000Y-66525580D01*
X151850000Y-66244420D02*
X151850000Y-66525580D01*
%TO.C,J1*%
X149030000Y-124250000D02*
X149030000Y-122550000D01*
X158370000Y-124250000D02*
X158370000Y-122550000D01*
%TO.C,R11*%
X151641988Y-116131440D02*
X151641988Y-116605956D01*
X152686988Y-116131440D02*
X152686988Y-116605956D01*
%TO.C,R10*%
X153241988Y-116605956D02*
X153241988Y-116131440D01*
X154286988Y-116605956D02*
X154286988Y-116131440D01*
%TO.C,C33*%
X149673908Y-115108698D02*
X149955068Y-115108698D01*
X149673908Y-116128698D02*
X149955068Y-116128698D01*
%TO.C,C38*%
X151490000Y-101009420D02*
X151490000Y-101290580D01*
X152510000Y-101009420D02*
X152510000Y-101290580D01*
%TO.C,C36*%
X165890000Y-126640580D02*
X165890000Y-126359420D01*
X166910000Y-126640580D02*
X166910000Y-126359420D01*
%TO.C,C10*%
X133180000Y-69394420D02*
X133180000Y-69675580D01*
X134200000Y-69394420D02*
X134200000Y-69675580D01*
%TO.C,J3*%
X127070000Y-126180000D02*
X127070000Y-82940000D01*
X127070000Y-128780000D02*
X127070000Y-127450000D01*
X128400000Y-128780000D02*
X127070000Y-128780000D01*
X129730000Y-82940000D02*
X127070000Y-82940000D01*
X129730000Y-126180000D02*
X127070000Y-126180000D01*
X129730000Y-126180000D02*
X129730000Y-82940000D01*
%TO.C,C12*%
X168380000Y-69394420D02*
X168380000Y-69675580D01*
X169400000Y-69394420D02*
X169400000Y-69675580D01*
%TO.C,C11*%
X150830000Y-69394420D02*
X150830000Y-69675580D01*
X151850000Y-69394420D02*
X151850000Y-69675580D01*
%TO.C,R3*%
X138117500Y-86422258D02*
X138117500Y-85947742D01*
X139162500Y-86422258D02*
X139162500Y-85947742D01*
%TO.C,C21*%
X155930000Y-79869420D02*
X155930000Y-80150580D01*
X156950000Y-79869420D02*
X156950000Y-80150580D01*
%TO.C,C37*%
X155009420Y-98090000D02*
X155290580Y-98090000D01*
X155009420Y-99110000D02*
X155290580Y-99110000D01*
%TO.C,C34*%
X151590000Y-104309420D02*
X151590000Y-104590580D01*
X152610000Y-104309420D02*
X152610000Y-104590580D01*
%TO.C,C28*%
X153119652Y-104309420D02*
X153119652Y-104590580D01*
X154139652Y-104309420D02*
X154139652Y-104590580D01*
%TO.C,U3*%
X131830000Y-63820000D02*
X131830000Y-62410000D01*
X134150000Y-63810000D02*
X134150000Y-62410000D01*
X131880000Y-64190000D02*
X131550000Y-64430000D01*
X131550000Y-63950000D01*
X131880000Y-64190000D01*
G36*
X131880000Y-64190000D02*
G01*
X131550000Y-64430000D01*
X131550000Y-63950000D01*
X131880000Y-64190000D01*
G37*
%TO.C,C20*%
X139224420Y-88000000D02*
X139505580Y-88000000D01*
X139224420Y-89020000D02*
X139505580Y-89020000D01*
%TO.C,R12*%
X151687258Y-118227500D02*
X151212742Y-118227500D01*
X151687258Y-119272500D02*
X151212742Y-119272500D01*
%TO.C,SW1*%
X162200000Y-107350000D02*
X162200000Y-113750000D01*
X162200000Y-113750000D02*
X163400000Y-113750000D01*
X163400000Y-107350000D02*
X162200000Y-107350000D01*
X165000000Y-113750000D02*
X166200000Y-113750000D01*
X166200000Y-107350000D02*
X165000000Y-107350000D01*
X166200000Y-113750000D02*
X166200000Y-107350000D01*
%TO.C,U9*%
X135590000Y-115440000D02*
X136850000Y-115440000D01*
X135590000Y-119200000D02*
X135590000Y-115440000D01*
X142410000Y-115440000D02*
X141150000Y-115440000D01*
X142410000Y-119200000D02*
X142410000Y-115440000D01*
X135690000Y-120480000D02*
X135360000Y-120720000D01*
X135360000Y-120240000D01*
X135690000Y-120480000D01*
G36*
X135690000Y-120480000D02*
G01*
X135360000Y-120720000D01*
X135360000Y-120240000D01*
X135690000Y-120480000D01*
G37*
%TO.C,C26*%
X174474420Y-88000000D02*
X174755580Y-88000000D01*
X174474420Y-89020000D02*
X174755580Y-89020000D01*
%TO.C,R15*%
X149562742Y-104677500D02*
X150037258Y-104677500D01*
X149562742Y-105722500D02*
X150037258Y-105722500D01*
%TO.C,C32*%
X154804488Y-116509278D02*
X154804488Y-116228118D01*
X155824488Y-116509278D02*
X155824488Y-116228118D01*
%TO.C,C15*%
X138180000Y-76794420D02*
X138180000Y-77075580D01*
X139200000Y-76794420D02*
X139200000Y-77075580D01*
%TO.C,C1*%
X130105580Y-63450000D02*
X129824420Y-63450000D01*
X130105580Y-64470000D02*
X129824420Y-64470000D01*
%TO.C,U7*%
X165979000Y-71386000D02*
X165979000Y-71740000D01*
X165979000Y-79160000D02*
X165979000Y-79514000D01*
X165979000Y-79514000D02*
X171821000Y-79514000D01*
X171821000Y-71386000D02*
X165979000Y-71386000D01*
X171821000Y-71386000D02*
X171821000Y-71740000D01*
X171821000Y-79514000D02*
X171821000Y-79160000D01*
X172510000Y-79416000D02*
X172030000Y-79416000D01*
X172270000Y-79080000D01*
X172510000Y-79416000D01*
G36*
X172510000Y-79416000D02*
G01*
X172030000Y-79416000D01*
X172270000Y-79080000D01*
X172510000Y-79416000D01*
G37*
%TO.C,R13*%
X156362742Y-118227500D02*
X156837258Y-118227500D01*
X156362742Y-119272500D02*
X156837258Y-119272500D01*
%TO.C,R2*%
X137977258Y-83337500D02*
X137502742Y-83337500D01*
X137977258Y-84382500D02*
X137502742Y-84382500D01*
%TO.C,J2*%
X176820000Y-126100000D02*
X176820000Y-82860000D01*
X176820000Y-128700000D02*
X176820000Y-127370000D01*
X178150000Y-128700000D02*
X176820000Y-128700000D01*
X179480000Y-82860000D02*
X176820000Y-82860000D01*
X179480000Y-126100000D02*
X176820000Y-126100000D01*
X179480000Y-126100000D02*
X179480000Y-82860000D01*
%TO.C,AE2*%
X148710000Y-55030000D02*
X150040000Y-55030000D01*
X148710000Y-56360000D02*
X148710000Y-55030000D01*
X151310000Y-55030000D02*
X153910000Y-55030000D01*
X151310000Y-57690000D02*
X151310000Y-55030000D01*
X151310000Y-57690000D02*
X153910000Y-57690000D01*
X153910000Y-57690000D02*
X153910000Y-55030000D01*
%TO.C,C29*%
X148209420Y-108740000D02*
X148490580Y-108740000D01*
X148209420Y-109760000D02*
X148490580Y-109760000D01*
%TO.C,U1*%
X150440000Y-106652500D02*
X150440000Y-107302500D01*
X150440000Y-113872500D02*
X150440000Y-113222500D01*
X151090000Y-106652500D02*
X150440000Y-106652500D01*
X151090000Y-113872500D02*
X150440000Y-113872500D01*
X157010000Y-106652500D02*
X157660000Y-106652500D01*
X157010000Y-113872500D02*
X157360000Y-113872500D01*
X157660000Y-106652500D02*
X157660000Y-107302500D01*
X157660000Y-113222500D02*
X157660000Y-113632500D01*
X157900000Y-114202500D02*
X157420000Y-114202500D01*
X157660000Y-113872500D01*
X157900000Y-114202500D01*
G36*
X157900000Y-114202500D02*
G01*
X157420000Y-114202500D01*
X157660000Y-113872500D01*
X157900000Y-114202500D01*
G37*
%TO.C,C30*%
X148009420Y-112890000D02*
X148290580Y-112890000D01*
X148009420Y-113910000D02*
X148290580Y-113910000D01*
%TO.C,C5*%
X149580000Y-59794420D02*
X149580000Y-60075580D01*
X150600000Y-59794420D02*
X150600000Y-60075580D01*
%TO.C,U2*%
X130719000Y-71496000D02*
X130719000Y-71850000D01*
X130719000Y-79270000D02*
X130719000Y-79624000D01*
X130719000Y-79624000D02*
X136561000Y-79624000D01*
X136561000Y-71496000D02*
X130719000Y-71496000D01*
X136561000Y-71496000D02*
X136561000Y-71850000D01*
X136561000Y-79624000D02*
X136561000Y-79270000D01*
X137250000Y-79526000D02*
X136770000Y-79526000D01*
X137010000Y-79190000D01*
X137250000Y-79526000D01*
G36*
X137250000Y-79526000D02*
G01*
X136770000Y-79526000D01*
X137010000Y-79190000D01*
X137250000Y-79526000D01*
G37*
%TO.C,R8*%
X173317500Y-86422258D02*
X173317500Y-85947742D01*
X174362500Y-86422258D02*
X174362500Y-85947742D01*
%TO.C,U8*%
X159840000Y-126110000D02*
X160110000Y-126110000D01*
X165360000Y-126110000D02*
X165090000Y-126110000D01*
X159840000Y-123350000D02*
X159840000Y-126110000D01*
X159840000Y-123350000D02*
X159840000Y-120590000D01*
X165360000Y-123350000D02*
X165360000Y-126110000D01*
X165360000Y-123350000D02*
X165360000Y-120590000D01*
X159840000Y-120590000D02*
X160110000Y-120590000D01*
X165360000Y-120590000D02*
X165090000Y-120590000D01*
X165420000Y-120065000D02*
X165090000Y-119825000D01*
X165420000Y-119585000D01*
X165420000Y-120065000D01*
G36*
X165420000Y-120065000D02*
G01*
X165090000Y-119825000D01*
X165420000Y-119585000D01*
X165420000Y-120065000D01*
G37*
%TO.C,C23*%
X165900000Y-81500580D02*
X165900000Y-81219420D01*
X166920000Y-81500580D02*
X166920000Y-81219420D01*
%TO.C,C13*%
X145354488Y-116278118D02*
X145354488Y-116559278D01*
X146374488Y-116278118D02*
X146374488Y-116559278D01*
%TO.C,R1*%
X139202742Y-81787500D02*
X139677258Y-81787500D01*
X139202742Y-82832500D02*
X139677258Y-82832500D01*
%TO.C,SW2*%
X145950000Y-95150000D02*
X145950000Y-101550000D01*
X145950000Y-101550000D02*
X147150000Y-101550000D01*
X147150000Y-95150000D02*
X145950000Y-95150000D01*
X148750000Y-101550000D02*
X149950000Y-101550000D01*
X149950000Y-95150000D02*
X148750000Y-95150000D01*
X149950000Y-101550000D02*
X149950000Y-95150000D01*
%TO.C,R14*%
X163677500Y-116712742D02*
X163677500Y-117187258D01*
X164722500Y-116712742D02*
X164722500Y-117187258D01*
%TO.C,C6*%
X167055000Y-59794420D02*
X167055000Y-60075580D01*
X168075000Y-59794420D02*
X168075000Y-60075580D01*
%TO.C,C25*%
X173330000Y-79919420D02*
X173330000Y-80200580D01*
X174350000Y-79919420D02*
X174350000Y-80200580D01*
%TO.C,C31*%
X146954488Y-116559278D02*
X146954488Y-116278118D01*
X147974488Y-116559278D02*
X147974488Y-116278118D01*
%TO.C,R4*%
X155827258Y-83337500D02*
X155352742Y-83337500D01*
X155827258Y-84382500D02*
X155352742Y-84382500D01*
%TO.C,C7*%
X133180000Y-66244420D02*
X133180000Y-66525580D01*
X134200000Y-66244420D02*
X134200000Y-66525580D01*
%TO.C,C24*%
X173330000Y-76794420D02*
X173330000Y-77075580D01*
X174350000Y-76794420D02*
X174350000Y-77075580D01*
%TO.C,C2*%
X147855580Y-63450000D02*
X147574420Y-63450000D01*
X147855580Y-64470000D02*
X147574420Y-64470000D01*
%TO.C,C4*%
X131880000Y-59794420D02*
X131880000Y-60075580D01*
X132900000Y-59794420D02*
X132900000Y-60075580D01*
%TO.C,R6*%
X156977742Y-81787500D02*
X157452258Y-81787500D01*
X156977742Y-82832500D02*
X157452258Y-82832500D01*
%TO.C,C39*%
X136990580Y-111540000D02*
X136709420Y-111540000D01*
X136990580Y-112560000D02*
X136709420Y-112560000D01*
%TO.C,C35*%
X149955068Y-116708698D02*
X149673908Y-116708698D01*
X149955068Y-117728698D02*
X149673908Y-117728698D01*
%TO.C,J4*%
X134150000Y-124870000D02*
X135480000Y-124870000D01*
X134150000Y-126200000D02*
X134150000Y-124870000D01*
X136750000Y-124870000D02*
X144430000Y-124870000D01*
X136750000Y-127530000D02*
X136750000Y-124870000D01*
X136750000Y-127530000D02*
X144430000Y-127530000D01*
X144430000Y-127530000D02*
X144430000Y-124870000D01*
%TO.C,C19*%
X138180000Y-79894420D02*
X138180000Y-80175580D01*
X139200000Y-79894420D02*
X139200000Y-80175580D01*
%TD*%
M02*
