M48
; DRILL file {KiCad 9.0.0} date 2025-05-17T06:27:08-0400
; FORMAT={-:-/ absolute / metric / decimal}
; #@! TF.CreationDate,2025-05-17T06:27:08-04:00
; #@! TF.GenerationSoftware,Kicad,Pcbnew,9.0.0
; #@! TF.FileFunction,Plated,1,4,PTH
FMAT,2
METRIC
; #@! TA.AperFunction,Plated,PTH,ViaDrill
T1C0.300
; #@! TA.AperFunction,Plated,PTH,ComponentDrill
T2C0.600
; #@! TA.AperFunction,Plated,PTH,ComponentDrill
T3C1.000
%
G90
G05
T1
X127.35Y-56.15
X127.35Y-58.275
X127.35Y-60.4
X127.35Y-62.525
X127.35Y-64.65
X127.35Y-66.775
X127.35Y-68.9
X127.35Y-71.025
X127.35Y-73.15
X127.35Y-75.275
X127.35Y-77.4
X127.35Y-79.525
X127.35Y-81.65
X128.225Y-54.85
X130.75Y-65.15
X131.1Y-59.935
X131.3Y-61.75
X131.35Y-58.1
X132.15Y-70.45
X132.3Y-67.85
X132.3Y-82.3
X132.35Y-65.25
X132.7Y-121.8
X133.45Y-58.05
X133.55Y-78.05
X133.6Y-59.9
X133.64Y-75.56
X133.65Y-73.0
X133.75Y-60.95
X134.85Y-64.55
X135.05Y-67.9
X135.2Y-93.05
X135.25Y-88.3
X135.25Y-90.7
X135.3Y-95.6
X135.35Y-98.05
X135.35Y-103.15
X135.4Y-100.8
X135.45Y-105.75
X135.65Y-70.7
X135.9Y-83.85
X136.7Y-118.4
X136.7Y-122.35
X137.55Y-80.035
X137.55Y-84.95
X137.6Y-87.65
X137.65Y-81.65
X138.25Y-74.95
X138.5Y-59.0
X138.5Y-61.125
X138.5Y-63.25
X138.5Y-65.375
X138.5Y-67.5
X138.5Y-69.625
X138.85Y-54.85
X139.65Y-80.05
X139.65Y-84.5
X139.7Y-78.4
X139.85Y-87.25
X139.95Y-81.25
X140.15Y-89.75
X140.3Y-83.55
X140.975Y-54.85
X141.2Y-59.0
X141.2Y-61.125
X141.2Y-63.25
X141.2Y-65.375
X141.2Y-67.5
X141.2Y-69.625
X141.35Y-88.55
X141.6Y-114.2
X141.6Y-115.1
X142.5Y-74.1
X142.5Y-76.225
X142.5Y-78.35
X142.5Y-80.475
X142.5Y-84.725
X142.5Y-114.2
X142.5Y-115.1
X142.95Y-97.3
X143.05Y-105.95
X143.1Y-54.85
X143.1Y-103.3
X143.45Y-92.8
X144.15Y-59.1
X144.15Y-61.225
X144.15Y-63.35
X144.15Y-65.475
X144.15Y-67.6
X144.15Y-69.725
X145.15Y-115.3
X145.225Y-54.85
X145.45Y-74.2
X145.45Y-76.325
X145.45Y-78.45
X145.45Y-80.575
X145.45Y-84.825
X145.6Y-108.45
X145.75Y-123.15
X145.85Y-90.85
X145.85Y-118.55
X145.95Y-114.15
X146.15Y-112.7
X146.876Y-105.874
X147.35Y-54.85
X147.45Y-118.55
X147.9Y-106.05
X147.95Y-101.0
X148.104Y-114.177
X148.5Y-65.0
X148.55Y-90.0
X148.75Y-110.65
X149.0Y-83.65
X149.041Y-106.318
X149.05Y-59.835
X149.05Y-118.6
X149.25Y-61.65
X149.3Y-58.0
X149.451Y-104.399
X149.826Y-106.474
X150.1Y-70.35
X150.25Y-67.75
X150.3Y-65.15
X150.5Y-120.67
X151.0Y-127.2
X151.25Y-98.4
X151.4Y-57.95
X151.5Y-77.95
X151.55Y-59.8
X151.59Y-75.46
X151.6Y-72.9
X151.7Y-60.85
X151.7Y-108.75
X151.742Y-111.095
X151.8Y-94.35
X151.85Y-107.75
X151.884Y-110.307
X151.95Y-109.51
X152.0Y-89.95
X152.0Y-112.35
X152.535Y-108.162
X152.8Y-64.45
X152.863Y-104.435
X153.0Y-67.8
X153.335Y-108.133
X153.45Y-112.363
X153.55Y-127.25
X153.6Y-70.6
X153.8Y-83.9
X154.8Y-107.8
X154.967Y-112.362
X155.05Y-85.2
X155.086Y-114.637
X155.2Y-87.5
X155.5Y-79.935
X155.6Y-81.55
X155.648Y-112.783
X155.875Y-54.85
X155.9Y-59.35
X155.9Y-61.475
X155.9Y-63.6
X155.9Y-65.725
X155.9Y-67.85
X155.9Y-69.975
X156.15Y-110.282
X156.15Y-108.2
X156.15Y-111.082
X156.15Y-127.25
X156.2Y-74.85
X156.219Y-112.223
X156.342Y-116.062
X156.667Y-109.672
X157.45Y-117.55
X157.6Y-79.95
X157.6Y-84.4
X157.65Y-78.3
X157.8Y-87.15
X157.9Y-81.15
X158.0Y-54.85
X158.0Y-103.0
X158.05Y-95.65
X158.1Y-89.65
X158.1Y-113.8
X158.25Y-83.45
X158.442Y-99.2
X158.6Y-59.35
X158.6Y-61.475
X158.6Y-63.6
X158.6Y-65.725
X158.6Y-67.85
X158.6Y-69.975
X159.3Y-88.45
X160.125Y-54.85
X160.25Y-74.55
X160.25Y-76.675
X160.25Y-78.8
X160.25Y-80.925
X160.25Y-83.05
X160.25Y-85.175
X160.3Y-108.45
X160.7Y-125.45
X161.2Y-93.2
X161.55Y-59.45
X161.55Y-61.575
X161.55Y-63.7
X161.55Y-65.825
X161.55Y-67.95
X161.55Y-70.075
X161.65Y-113.5
X161.85Y-125.75
X162.25Y-54.85
X162.4Y-108.95
X162.5Y-97.45
X162.6Y-123.35
X162.7Y-93.2
X162.9Y-106.75
X163.15Y-128.3
X163.2Y-74.65
X163.2Y-76.775
X163.2Y-78.9
X163.2Y-81.025
X163.2Y-83.15
X163.2Y-85.275
X163.298Y-97.397
X164.375Y-54.85
X165.2Y-96.45
X165.35Y-127.25
X165.75Y-106.75
X166.05Y-65.0
X166.35Y-59.885
X166.35Y-83.2
X166.45Y-124.5
X166.55Y-61.7
X166.6Y-58.05
X166.95Y-93.65
X167.4Y-70.4
X167.55Y-67.8
X167.6Y-65.2
X167.6Y-125.75
X168.7Y-58.0
X168.8Y-78.0
X168.85Y-59.85
X168.89Y-75.51
X168.9Y-72.95
X169.0Y-60.9
X170.1Y-64.5
X170.3Y-67.85
X170.9Y-70.65
X170.95Y-123.6
X171.05Y-83.95
X172.8Y-79.985
X172.8Y-84.9
X172.85Y-87.6
X172.875Y-54.85
X172.9Y-81.6
X173.25Y-58.75
X173.25Y-60.875
X173.25Y-63.0
X173.25Y-65.125
X173.25Y-67.25
X173.25Y-69.375
X173.5Y-74.9
X174.25Y-106.75
X174.9Y-80.0
X174.9Y-84.45
X174.95Y-78.35
X175.0Y-54.85
X175.1Y-87.2
X175.2Y-81.2
X175.55Y-83.5
X175.7Y-108.35
X176.2Y-58.85
X176.2Y-60.975
X176.2Y-63.1
X176.2Y-65.225
X176.2Y-67.35
X176.2Y-69.475
X177.125Y-54.85
X179.0Y-54.925
X179.0Y-57.05
X179.0Y-59.175
X179.0Y-61.3
X179.0Y-63.425
X179.0Y-65.55
X179.0Y-67.675
X179.0Y-69.8
X179.0Y-71.925
X179.0Y-74.05
X179.0Y-76.175
X179.0Y-78.3
X179.0Y-80.425
T3
X128.4Y-84.27
X128.4Y-86.81
X128.4Y-89.35
X128.4Y-91.89
X128.4Y-94.43
X128.4Y-96.97
X128.4Y-99.51
X128.4Y-102.05
X128.4Y-104.59
X128.4Y-107.13
X128.4Y-109.67
X128.4Y-112.21
X128.4Y-114.75
X128.4Y-117.29
X128.4Y-119.83
X128.4Y-122.37
X128.4Y-124.91
X128.4Y-127.45
X132.403Y-56.36
X134.942Y-56.36
X135.48Y-126.2
X138.02Y-126.2
X140.56Y-126.2
X143.1Y-126.2
X150.04Y-56.36
X152.58Y-56.36
X167.677Y-56.36
X170.218Y-56.36
X178.15Y-84.19
X178.15Y-86.73
X178.15Y-89.27
X178.15Y-91.81
X178.15Y-94.35
X178.15Y-96.89
X178.15Y-99.43
X178.15Y-101.97
X178.15Y-104.51
X178.15Y-107.05
X178.15Y-109.59
X178.15Y-112.13
X178.15Y-114.67
X178.15Y-117.21
X178.15Y-119.75
X178.15Y-122.29
X178.15Y-124.83
X178.15Y-127.37
T2
G00X149.38Y-120.695
M15
G01X149.38Y-121.795
M16
G05
G00X149.38Y-125.025
M15
G01X149.38Y-125.825
M16
G05
G00X158.02Y-120.695
M15
G01X158.02Y-121.795
M16
G05
G00X158.02Y-125.025
M15
G01X158.02Y-125.825
M16
G05
M30
